<svg width="300" height="158" viewBox="0 0 300 158" fill="none" xmlns="http://www.w3.org/2000/svg">
<g clip-path="url(#clip0_76_112)">
<mask id="mask0_76_112" style="mask-type:luminance" maskUnits="userSpaceOnUse" x="-275" y="-4918" width="4561" height="5922">
<path d="M-274.54 1003.62H4285.3V-4917.36H-274.54V1003.62Z" fill="white"/>
</mask>
<g mask="url(#mask0_76_112)">
<path d="M236.108 4.4487L214.707 91.5015L193.247 4.4487H131.262V36.5944C123.73 8.46408 96.0987 1.4088 71.409 1.00803C41.305 0.614792 7.9494 13.6591 6.79242 53.4651H48.4284C48.4284 41.4492 59.4309 34.5678 69.821 34.7417C82.578 34.6359 88.4461 40.0805 88.741 48.5574C88.3024 55.9151 83.9618 61.0346 69.9269 61.0346H55.9222V89.9211H68.6338C75.8554 89.9211 85.9052 93.8533 86.2984 104.137C86.7824 116.395 78.2601 121.779 67.7717 121.885C49.0484 121.19 44.2164 106.807 44.2164 94.4356H1C1.18149 102.769 0.909256 157.086 68.6414 156.685C101.09 156.98 124.705 143.338 131.367 124.532V153.358H173.049V59.439L196.098 153.358H233.34L256.472 59.5448V153.441H299V4.4487H236.108ZM131.398 91.2974C126.089 80.3175 118.618 75.5156 114.414 73.9957C123.238 70.071 127.859 64.7475 131.398 54.1381V91.2974Z" fill="#A7A9AC"/>
</g>
</g>
<defs>
<clipPath id="clip0_76_112">
<rect width="300" height="157.69" fill="white"/>
</clipPath>
</defs>
</svg>
