<svg width="501" height="163" viewBox="0 0 501 163" fill="none" xmlns="http://www.w3.org/2000/svg">
<g clip-path="url(#clip0_76_703)">
<path d="M97.331 105.748L87.103 86.8094L76.4886 105.748M29.1907 148.565L122.149 148.615C119.809 147.015 116.874 140.754 116.874 140.754L29.8317 140.789C20.9012 140.16 19.6955 126.621 31.0825 126.925L109.233 126.974L104.766 118.893H28.6502C9.91611 119.712 9.25953 147.027 29.1907 148.565ZM158.263 126.243L111.041 41.1502C110.934 44.9629 107.367 50.4975 107.367 50.4975L151.16 129.444C154.937 137.575 143.635 145.229 138.384 135.107L99.7027 64.742L95.02 73.0119L132.636 141.087C142.436 157.098 166.578 144.446 158.263 126.243ZM74.5726 21.1286L26.826 107.119C30.0864 105.459 36.2208 105.961 36.2208 105.961L81.0327 25.4922C85.944 17.9984 98.3913 23.604 92.5583 33.4017L51.9458 105.748H61.15L100.656 35.1548C109.097 18.3847 85.6564 4.47104 74.5726 21.1286ZM171.197 123.516C180.294 142.072 165.44 162.033 149.686 162.104L26.3531 162.117L25.8316 162.158C4.809 162.033 -5.02754 138.646 2.5309 124.623L65.4636 11.6184C75.9134 -4.37914 99.9348 -3.41772 109.583 11.8038L169.272 119.917L171.197 123.516Z" fill="#A7A9AC"/>
<path d="M311.14 76.8733C311.14 76.8733 335.925 76.8438 336.083 76.8438C345.497 76.9374 347.115 84.2562 347.035 88.509C346.902 95.9577 342.231 97.6138 337.739 98.7328C340.959 103.396 346.179 109.825 349.561 114.36H336.171L323.065 93.342C323.065 93.342 329.437 93.4113 332.479 93.3472C337.628 93.2311 337.484 84.6581 332.355 84.6824L322.198 84.6512C322.198 84.6512 322.114 114.358 322.198 114.358C318.424 114.358 314.915 114.358 311.141 114.358C311.14 106.7 311.14 76.8733 311.14 76.8733ZM204.684 134.381H210.95C218.683 134.381 223.697 137.515 223.697 143.985C223.697 151.099 219.539 153.838 210.95 153.987H204.684M194.257 161.95H212.958C226.176 161.95 234.284 155.68 234.284 144.034C234.284 133.034 226.297 126.42 212.958 126.42H194.257V161.95ZM238.376 162.028H272.225V154.036H248.645V147.24H269.715V140.049H248.645V133.806H271.638V126.364H238.376M276.523 162.169H286.385V139.848H286.507L302.301 162.169H313.887V126.363H304.323V148.425H303.146L288.106 126.363H276.519M436.673 154.749C429.204 154.749 426.339 149.281 426.339 143.813C426.339 138.35 429.204 132.879 436.673 132.879C444.146 132.879 447.013 138.348 447.013 143.813C447.011 149.281 444.146 154.749 436.673 154.749ZM414.753 143.812C414.753 154.49 422.663 163 436.671 163C450.684 163 458.598 154.49 458.598 143.812C458.598 133.139 450.684 124.629 436.671 124.629C422.664 124.629 414.753 133.139 414.753 143.812ZM321.47 162.014H331.334V139.699H331.454L347.248 162.014H358.834V126.208H349.27V148.276H348.093L333.051 126.208H321.465M366.178 162.28H376.862V126.227H366.178V162.28ZM382.35 160.944C385.913 161.987 390.563 162.506 394.296 162.506C403.199 162.506 411.934 159.948 411.934 150.504C411.934 137.354 392.978 141.319 392.978 135.426C392.978 132.242 397.456 132.031 400.159 132.031C403.201 132.031 406.304 132.552 409.062 133.7L409.749 126.184C407.052 125.354 403.262 124.833 399.41 124.833C391.369 124.833 381.951 127.234 381.951 135.997C381.951 149.253 400.902 144.974 400.902 151.759C400.902 154.68 397.69 155.309 394.296 155.309C389.874 155.309 386.024 154.263 383.271 152.908M463.639 162.014H473.5V139.699H473.619L489.415 162.014H501V126.208H491.437V148.276H490.259L475.218 126.208H463.636M215.213 87.111L215.338 86.6589L220.366 97.7558H210.51M192.769 114.037H203.107L206.907 105.826H223.953L227.772 114.037H238.753L221.772 76.7832H209.75L192.769 114.037ZM272.247 76.7832H260.912L250.858 102.755L240.047 76.7832H228.714L244.898 114.037H256.273M389.174 76.7832H376.072L367.247 91.9146L358.431 76.7832H345.325L361.473 100.157V114.037H373.024V100.157M273.512 114.36H307.228V105.991H283.745V98.8783H304.725V91.3482H283.745V84.8088H306.648V77.0153H273.512" fill="#A7A9AC"/>
</g>
<defs>
<clipPath id="clip0_76_703">
<rect width="501" height="163" fill="white"/>
</clipPath>
</defs>
</svg>
