<svg width="314" height="201" viewBox="0 0 314 201" fill="none" xmlns="http://www.w3.org/2000/svg">
<path fill-rule="evenodd" clip-rule="evenodd" d="M199.641 44.4063C227.836 44.4063 250.778 61.632 259.658 85.3943H139.621C148.501 61.632 171.442 44.4063 199.641 44.4063ZM199.641 0L199.875 0.00178499C189.462 20.9155 207.297 22.1156 196.362 39.486C185.228 39.9771 174.919 42.9722 165.923 47.8782C167.625 26.852 151.255 34.3942 150.355 11.2677C165.027 4.07022 181.711 0 199.641 0ZM205.493 0.151812C222.976 1.02515 239.162 5.78832 253.289 13.5376C233.369 26.3841 248.557 36.5516 229.709 46.0297C221.379 42.1131 212.051 39.7824 202.075 39.4538C212.932 22.1639 195.231 20.9173 205.493 0.151812ZM258.226 16.413C272.668 25.3526 284.792 37.5804 293.608 52.0985C268.893 54.1773 277.739 70.0117 257.954 70.7243C252.125 61.6859 244.235 54.1592 234.931 48.7623C253.279 39.327 238.364 29.197 258.226 16.413ZM296.354 56.9081C301.175 65.8582 304.694 75.4502 306.806 85.3943H265.073C263.907 81.9915 262.469 78.6881 260.773 75.5161C280.811 74.9374 271.938 59.1102 296.354 56.9081ZM160.876 50.9179C152.062 56.7627 144.734 64.5852 139.477 73.7623C128.684 52.7986 119.579 68.6973 105.797 51.8895C115.48 36.0276 129.101 22.94 145.336 13.8984C146.217 37.2231 162.791 29.4399 160.876 50.9179ZM136.869 78.7951C135.865 80.9461 134.975 83.149 134.205 85.3943H92.4736C94.5989 75.3824 98.1511 65.7277 103.022 56.7259C116.904 73.898 126.037 57.7886 136.869 78.7951Z" fill="#A7A9AC"/>
<path fill-rule="evenodd" clip-rule="evenodd" d="M0 64.2075H14.6449V157.271H38.1894V170.062H0V64.2075ZM280.17 99.3161H293.747V108.132C295.805 104.292 300.28 99.3161 309.071 99.3161H309.108V112.518C304.768 110.634 298.278 112.552 295.271 117.96C293.767 120.664 293.745 124.855 293.745 127.845V170.062H280.168L280.17 99.3161ZM242.061 98.2749C247.189 98.2749 251.738 101.481 255.058 107.094V99.3161H268.635V170.062H255.058V161.43C252.511 167.619 248.628 171.555 242.134 171.555C230.588 171.555 225.245 160.31 225.245 141.502V124.95C225.245 107.231 233.794 98.2749 242.061 98.2749ZM255.058 139.382V125.957C255.058 121.132 253.466 111.139 247.182 111.139C243.204 111.139 239.093 117.024 239.093 128.667V139.543C239.093 151.906 241.663 159.296 247.221 159.296C254.772 159.298 255.058 144.942 255.058 139.382ZM144.487 99.3161H158.062V108.132C160.119 104.292 164.598 98.2767 173.389 98.2767C178.933 98.2767 183.01 102.433 185.183 107.48C187.677 103.649 192.718 98.2767 201.023 98.2767C209.539 98.2767 215.315 105.065 215.315 113.507L215.193 170.064H201.616C201.616 152.824 201.738 135.653 201.738 118.413C201.738 113.638 199.468 110.562 194.631 110.562C189.2 110.562 186.96 114.934 186.96 120.557V170.064H173.387V120.716C173.387 110.712 164.325 106.303 159.583 114.822C158.08 117.526 158.058 121.716 158.058 124.705V170.062H144.483V99.3161H144.487ZM119.354 99.3161H132.931V152.99C132.931 163.2 124.577 171.557 114.366 171.557H109.021C98.8105 171.557 90.4539 163.202 90.4539 152.99V99.3161H104.031V151.636C104.037 153.666 104.846 155.611 106.282 157.047C107.717 158.483 109.663 159.292 111.693 159.298C115.908 159.298 119.354 155.849 119.354 151.636V99.3161ZM46.1619 64.2075H60.8069V157.271H84.3513V170.062H46.1619V64.2075ZM306.319 165.436H305.011V168.235H306.361C307.126 168.235 307.669 168.128 308.001 167.917C308.333 167.703 308.499 167.36 308.499 166.892C308.499 166.377 308.324 166.008 307.979 165.779C307.633 165.55 307.081 165.436 306.319 165.436ZM306.604 164.404C307.776 164.404 308.658 164.597 309.251 164.983C309.84 165.374 310.137 165.949 310.137 166.72C310.137 167.32 309.965 167.817 309.632 168.215C309.294 168.613 308.819 168.874 308.205 168.997L310.096 172.855H308.303L306.583 169.247H305.009V172.855H303.411V164.406H306.604V164.404ZM312.911 168.846C312.911 167.942 312.75 167.097 312.435 166.31C312.121 165.522 311.668 164.827 311.064 164.227C310.46 163.615 309.742 163.129 308.949 162.797C308.15 162.467 307.292 162.3 306.427 162.307C305.552 162.307 304.722 162.466 303.943 162.784C303.177 163.094 302.483 163.558 301.905 164.149C301.283 164.769 300.786 165.503 300.441 166.311C300.108 167.085 299.934 167.919 299.93 168.761C299.927 169.604 300.093 170.439 300.419 171.216C300.748 171.998 301.218 172.694 301.836 173.316C302.443 173.934 303.139 174.411 303.929 174.746C304.718 175.082 305.529 175.247 306.367 175.247C307.245 175.247 308.079 175.084 308.867 174.761C309.667 174.429 310.397 173.95 311.019 173.348C311.622 172.764 312.1 172.064 312.425 171.29C312.75 170.516 312.915 169.685 312.911 168.846ZM306.401 161.318C307.392 161.309 308.374 161.5 309.289 161.881C310.203 162.262 311.031 162.824 311.723 163.534C312.409 164.223 312.953 165.041 313.323 165.94C313.693 166.84 313.882 167.803 313.879 168.776C313.879 169.798 313.693 170.753 313.323 171.648C312.95 172.541 312.398 173.348 311.701 174.02C310.969 174.734 310.142 175.282 309.228 175.663C308.333 176.041 307.371 176.236 306.399 176.236C305.422 176.24 304.455 176.045 303.556 175.663C302.646 175.276 301.823 174.71 301.136 173.998C300.443 173.306 299.893 172.486 299.514 171.584C299.145 170.693 298.956 169.738 298.959 168.774C298.959 167.788 299.15 166.836 299.541 165.915C299.928 164.995 300.489 164.166 301.216 163.431C301.878 162.747 302.675 162.208 303.557 161.85C304.462 161.492 305.428 161.311 306.401 161.318ZM124.8 180.676H128.545V200.425H124.8V180.676ZM274.918 180.676H278.786L283.739 197.61L288.687 180.676H292.524L295.663 200.425L292.424 201L290.345 185.339L285.766 201H281.71L277.109 185.271L275.019 201L271.78 200.425L274.918 180.676ZM196.99 180.888L200.629 180.008L204.372 194.676L208.778 180.676H212.928L216.654 195.289L221.221 180.003L224.796 181.115L219.029 200.425H214.418L210.725 185.944L206.169 200.425H201.975L196.99 180.888ZM94.3777 180.888L98.0175 180.008L101.761 194.676L106.165 180.676H110.314L114.043 195.289L118.608 180.003L122.183 181.115L116.417 200.425H111.805L108.11 185.944L103.554 200.425H99.3623L94.3777 180.888ZM235.623 180.676H246.453V183.892H239.364V189.132H246.453V192.179H239.364V200.425H235.621V180.676H235.623ZM153.924 180.676H161.218C166.938 180.676 170.821 185.119 170.821 190.55C170.821 195.98 166.934 200.423 161.218 200.423H153.924V180.676ZM157.628 183.835H161.276C164.489 183.835 167.238 186.832 167.238 190.492C167.238 194.151 164.486 197.148 161.276 197.148H157.628V183.835ZM184.358 179.981C190.2 179.981 194.965 184.703 194.965 190.492C194.965 196.28 190.2 201 184.358 201C178.513 201 173.748 196.28 173.748 190.492C173.748 184.703 178.513 179.981 184.358 179.981ZM184.358 183.232C188.262 183.232 191.45 186.491 191.45 190.49C191.45 194.487 188.262 197.746 184.358 197.746C180.451 197.746 177.266 194.487 177.266 190.49C177.268 186.491 180.452 183.232 184.358 183.232ZM149.419 199.627L145.676 201C142.636 196.018 139.616 191.023 136.616 186.016V200.423H132.871V181.362L136.616 179.981C139.638 185.014 142.66 190.047 145.676 195.08V180.676H149.419V199.627ZM258.16 180.676H261.903V197.378H269.483V200.425H258.16V180.676ZM249.843 180.676H253.59V200.425H249.843V180.676Z" fill="#A7A9AC"/>
</svg>
