<svg width="425" height="112" viewBox="0 0 425 112" fill="none" xmlns="http://www.w3.org/2000/svg">
<path d="M184 28.0007C184 16.9542 192.731 8 203.5 8C214.269 8 223 16.9542 223 28.0007C223 39.0475 214.269 48 203.5 48C192.731 48 184 39.0475 184 28.0007Z" fill="#D9D9D9"/>
<path d="M184 28.0007C184 16.9542 192.731 8 203.5 8C214.269 8 223 16.9542 223 28.0007C223 39.0475 214.269 48 203.5 48C192.731 48 184 39.0475 184 28.0007Z" fill="#A7A9AC" stroke="#A7A9AC" stroke-width="15.9207" stroke-miterlimit="3.86369"/>
<path d="M76.2456 49.2697H64V31H114V49.2697H101.518V107H76.2456V49.2697Z" stroke="#A7A9AC" stroke-width="4" stroke-miterlimit="3.86369"/>
<path d="M374 31H398.144V88.7337H418V107H374V31Z" stroke="#A7A9AC" stroke-width="4" stroke-miterlimit="3.86369"/>
<path fill-rule="evenodd" clip-rule="evenodd" d="M415.001 48C420.584 48 425 43.35 425 37.5001C425 31.6499 420.584 27 415.001 27C409.418 27 405 31.6499 405 37.5001C405 43.35 409.418 48 415.001 48ZM415.001 28.7114C419.566 28.7114 423.373 32.5312 423.373 37.5001C423.373 42.4418 419.566 46.2884 415.001 46.2884C410.431 46.2884 406.624 42.4418 406.624 37.5001C406.624 32.5312 410.431 28.7114 415.001 28.7114Z" fill="#A7A9AC"/>
<path fill-rule="evenodd" clip-rule="evenodd" d="M416.21 38.0002C417.603 37.9404 419 37.0002 419 34.4404C419 31.7053 417.295 31 415.405 31H411V44H412.517V38.0002H414.456L417.132 44H418.855L416.21 38.0002ZM415.119 32.8824C416.373 32.8824 417.483 33.0016 417.483 34.6457C417.483 36.4122 415.544 36.1159 414.126 36.1159H412.517V32.8824H415.119Z" fill="#A7A9AC"/>
<path d="M235.733 31C234.997 37.2919 232.917 43.109 229 47.7892L229.004 107H252.314V70.6477L267.685 107H293V31H269.399V62.2681L256.627 31H235.734H235.733Z" stroke="#A7A9AC" stroke-width="4" stroke-miterlimit="6"/>
<path d="M307.057 31H359V49.2844H331.468V61.3756H359V76.4127H331.468V88.6619H359V107H307.057V31.0134V31ZM126 31H171.003C171.003 31 171.752 41.2976 177.891 47.8726C177.894 49.1248 177.902 49.3024 177.902 49.3024H150.413V61.3949H177.946V76.4307H150.413V88.6798H177.946V107H126V31.0313L126 31ZM215.983 57.9714C213.171 59.5103 208.332 60.4863 203.688 60.5174C200.375 60.54 194.196 59.3282 191.65 58.1252L191.651 107H215.983L215.983 57.9714Z" stroke="#A7A9AC" stroke-width="4" stroke-miterlimit="3.86369"/>
<path d="M34.0399 61.2261C34.0399 61.2261 26.4061 61.6635 26.4061 54.506C26.4061 48.1078 33.2246 48.0357 33.2246 48.0357C44.2866 47.2655 52.0312 48.9548 52.0312 48.9548V31.8549C52.0312 31.8549 40.1953 28.0099 26.1043 28.0099C26.1043 28.0099 2.51242 26.7823 2.01229 51.7334C1.55804 74.3768 13.7933 76.567 22.5057 76.567L26.1413 76.6483C26.1413 76.6483 33.5472 76.0676 33.5472 83.418C33.5472 90.1183 26.7287 90.1544 26.7287 90.1544C12.0119 90.1544 3.6044 87.603 3.6044 87.603V105.429C3.6044 105.429 15.2316 109.991 33.8491 109.991C33.8491 109.991 56.8341 111.194 57.9412 86.2642C58.9826 62.8235 45.9705 61.2079 37.2582 61.2079L34.0399 61.2261Z" stroke="#A7A9AC" stroke-width="4" stroke-miterlimit="3.86369"/>
</svg>
