<svg width="58" height="43" viewBox="0 0 58 43" fill="none" xmlns="http://www.w3.org/2000/svg">
<path d="M51.5556 4.60714C52.4417 4.60714 53.1667 5.29821 53.1667 6.14286V36.8571C53.1667 37.7018 52.4417 38.3929 51.5556 38.3929H6.44444C5.55833 38.3929 4.83333 37.7018 4.83333 36.8571V6.14286C4.83333 5.29821 5.55833 4.60714 6.44444 4.60714H51.5556ZM6.44444 0C2.88993 0 0 2.75469 0 6.14286V36.8571C0 40.2453 2.88993 43 6.44444 43H51.5556C55.1101 43 58 40.2453 58 36.8571V6.14286C58 2.75469 55.1101 0 51.5556 0H6.44444ZM20.9444 21.5C22.6536 21.5 24.2928 20.8528 25.5014 19.7008C26.7099 18.5488 27.3889 16.9863 27.3889 15.3571C27.3889 13.728 26.7099 12.1655 25.5014 11.0135C24.2928 9.86148 22.6536 9.21429 20.9444 9.21429C19.2353 9.21429 17.5961 9.86148 16.3875 11.0135C15.179 12.1655 14.5 13.728 14.5 15.3571C14.5 16.9863 15.179 18.5488 16.3875 19.7008C17.5961 20.8528 19.2353 21.5 20.9444 21.5ZM17.7222 24.5714C13.2715 24.5714 9.66667 28.0076 9.66667 32.25C9.66667 33.0946 10.3917 33.7857 11.2778 33.7857H30.6111C31.4972 33.7857 32.2222 33.0946 32.2222 32.25C32.2222 28.0076 28.6174 24.5714 24.1667 24.5714H17.7222ZM37.8611 10.75C36.5219 10.75 35.4444 11.777 35.4444 13.0536C35.4444 14.3301 36.5219 15.3571 37.8611 15.3571H45.9167C47.2559 15.3571 48.3333 14.3301 48.3333 13.0536C48.3333 11.777 47.2559 10.75 45.9167 10.75H37.8611ZM37.8611 19.9643C36.5219 19.9643 35.4444 20.9913 35.4444 22.2679C35.4444 23.5444 36.5219 24.5714 37.8611 24.5714H45.9167C47.2559 24.5714 48.3333 23.5444 48.3333 22.2679C48.3333 20.9913 47.2559 19.9643 45.9167 19.9643H37.8611Z" fill="#136966"/>
</svg>
