<svg width="54" height="40" viewBox="0 0 54 40" fill="none" xmlns="http://www.w3.org/2000/svg">
<path d="M48 4.28571C48.825 4.28571 49.5 4.92857 49.5 5.71429V34.2857C49.5 35.0714 48.825 35.7143 48 35.7143H6C5.175 35.7143 4.5 35.0714 4.5 34.2857V5.71429C4.5 4.92857 5.175 4.28571 6 4.28571H48ZM6 0C2.69063 0 0 2.5625 0 5.71429V34.2857C0 37.4375 2.69063 40 6 40H48C51.3094 40 54 37.4375 54 34.2857V5.71429C54 2.5625 51.3094 0 48 0H6ZM19.5 20C21.0913 20 22.6174 19.398 23.7426 18.3263C24.8679 17.2547 25.5 15.8012 25.5 14.2857C25.5 12.7702 24.8679 11.3167 23.7426 10.2451C22.6174 9.17347 21.0913 8.57143 19.5 8.57143C17.9087 8.57143 16.3826 9.17347 15.2574 10.2451C14.1321 11.3167 13.5 12.7702 13.5 14.2857C13.5 15.8012 14.1321 17.2547 15.2574 18.3263C16.3826 19.398 17.9087 20 19.5 20ZM16.5 22.8571C12.3562 22.8571 9 26.0536 9 30C9 30.7857 9.675 31.4286 10.5 31.4286H28.5C29.325 31.4286 30 30.7857 30 30C30 26.0536 26.6437 22.8571 22.5 22.8571H16.5ZM35.25 10C34.0031 10 33 10.9554 33 12.1429C33 13.3304 34.0031 14.2857 35.25 14.2857H42.75C43.9969 14.2857 45 13.3304 45 12.1429C45 10.9554 43.9969 10 42.75 10H35.25ZM35.25 18.5714C34.0031 18.5714 33 19.5268 33 20.7143C33 21.9018 34.0031 22.8571 35.25 22.8571H42.75C43.9969 22.8571 45 21.9018 45 20.7143C45 19.5268 43.9969 18.5714 42.75 18.5714H35.25Z" fill="#6E0C0D"/>
</svg>
