<svg width="142" height="105" viewBox="0 0 142 105" fill="none" xmlns="http://www.w3.org/2000/svg">
<path d="M126.222 11.25C128.392 11.25 130.167 12.9375 130.167 15V90C130.167 92.0625 128.392 93.75 126.222 93.75H15.7778C13.6083 93.75 11.8333 92.0625 11.8333 90V15C11.8333 12.9375 13.6083 11.25 15.7778 11.25H126.222ZM15.7778 0C7.07535 0 0 6.72656 0 15V90C0 98.2734 7.07535 105 15.7778 105H126.222C134.925 105 142 98.2734 142 90V15C142 6.72656 134.925 0 126.222 0H15.7778ZM51.2778 52.5C55.4623 52.5 59.4754 50.9196 62.4344 48.1066C65.3933 45.2936 67.0556 41.4782 67.0556 37.5C67.0556 33.5218 65.3933 29.7064 62.4344 26.8934C59.4754 24.0804 55.4623 22.5 51.2778 22.5C47.0933 22.5 43.0801 24.0804 40.1212 26.8934C37.1623 29.7064 35.5 33.5218 35.5 37.5C35.5 41.4782 37.1623 45.2936 40.1212 48.1066C43.0801 50.9196 47.0933 52.5 51.2778 52.5ZM43.3889 60C32.4924 60 23.6667 68.3906 23.6667 78.75C23.6667 80.8125 25.4417 82.5 27.6111 82.5H74.9444C77.1139 82.5 78.8889 80.8125 78.8889 78.75C78.8889 68.3906 70.0632 60 59.1667 60H43.3889ZM92.6944 26.25C89.4156 26.25 86.7778 28.7578 86.7778 31.875C86.7778 34.9922 89.4156 37.5 92.6944 37.5H112.417C115.695 37.5 118.333 34.9922 118.333 31.875C118.333 28.7578 115.695 26.25 112.417 26.25H92.6944ZM92.6944 48.75C89.4156 48.75 86.7778 51.2578 86.7778 54.375C86.7778 57.4922 89.4156 60 92.6944 60H112.417C115.695 60 118.333 57.4922 118.333 54.375C118.333 51.2578 115.695 48.75 112.417 48.75H92.6944Z" fill="#6E0C0D"/>
</svg>
