<svg width="373" height="118" viewBox="0 0 373 118" fill="none" xmlns="http://www.w3.org/2000/svg">
<path d="M22.2813 53.0742C15.7295 53.0742 3.50539 53.5347 0.478533 67.713C-2.54881 81.8902 9.5215 82.3506 16.0743 82.3506C22.6645 82.3506 27.0333 81.2383 30.0986 79.2461C33.2021 77.254 35.0415 74.3418 36.4975 70.7393H24.3125C22.7418 74.0352 20.4038 75.4522 16.9931 75.4522C13.0469 75.4522 10.7862 73.2686 11.9737 67.713C13.1616 62.1562 16.419 59.9727 20.8253 59.9727C25.0025 59.9727 25.6919 62.8081 25.5766 64.7612H37.7623C38.6435 53.918 28.7959 53.0742 22.2813 53.0742Z" fill="#A7A9AC"/>
<path d="M65.4345 67.713C64.2461 73.2686 60.9893 75.4522 56.5825 75.4522C52.1758 75.4522 49.8389 73.2686 51.0269 67.713C52.2144 62.1562 55.4717 59.9727 59.8779 59.9727C64.2847 59.9727 66.6225 62.1562 65.4345 67.713ZM61.3345 53.0742C54.7823 53.0742 42.5582 53.5347 39.5313 67.713C36.5039 81.8902 48.5743 82.3506 55.127 82.3506C61.6793 82.3506 73.9029 81.8902 76.9302 67.713C79.957 53.5347 67.8873 53.0742 61.3345 53.0742Z" fill="#A7A9AC"/>
<path d="M94.4868 54.0327H83.6812L77.8564 81.3921H105.408L106.979 74.0352H90.2329L94.4868 54.0327Z" fill="#A7A9AC"/>
<path d="M147.219 67.7129C147.402 66.8535 147.527 66.0468 147.605 65.2861L135.775 67.4263C135.756 67.5239 135.745 67.6143 135.724 67.7129C134.535 73.2685 131.277 75.4521 126.871 75.4521C123.163 75.4521 120.93 73.8969 121.02 70.0956L109.352 72.2065C109.576 81.3471 118.364 82.2626 124.227 82.3433L143.057 76.435C144.917 74.3476 146.404 71.5311 147.219 67.7129Z" fill="#A7A9AC"/>
<path d="M130.166 59.9727C133.637 59.9727 135.815 61.3365 136.007 64.626L147.673 62.8424C147.187 53.4272 137.321 53.0742 131.622 53.0742C125.071 53.0742 112.846 53.5347 109.819 67.713C109.751 68.0366 109.697 68.3467 109.644 68.6567L121.53 66.8389C122.863 61.9292 126 59.9727 130.166 59.9727Z" fill="#A7A9AC"/>
<path d="M182.518 71.0078L183.724 65.3218L172.057 69.3183L171.788 70.587C171.021 74.1118 168.76 75.2227 165.235 75.2227C162.814 75.2227 161.234 74.6758 160.712 73.2066L149.781 76.9527C151.076 80.9648 155.741 82.3506 163.741 82.3506C165.313 82.3506 166.766 82.2906 168.129 82.1748L181.173 74.9907C181.741 73.8286 182.191 72.5152 182.518 71.0078Z" fill="#A7A9AC"/>
<path d="M162.372 62.6144L151.142 64.6456L149.792 71.0079C149.516 72.2847 149.4 73.4161 149.409 74.4429L160.627 70.9234C160.649 70.8062 160.649 70.7085 160.675 70.587L162.372 62.6144Z" fill="#A7A9AC"/>
<path d="M186.119 54.0327H175.312L174.304 58.7715L185.475 57.0635L186.119 54.0327Z" fill="#A7A9AC"/>
<path d="M164.2 54.0327H153.395L151.653 62.2344L162.817 60.5279L164.2 54.0327Z" fill="#A7A9AC"/>
<path d="M184.097 63.5606L185.174 58.4883L173.931 60.5229L172.51 67.1958L184.097 63.5606Z" fill="#A7A9AC"/>
<path d="M210.266 63.4981C209.921 65.2217 208.847 66.065 206.741 66.065H201.184L186.37 75.0225L185.014 81.3921H195.82L197.621 72.962H205.285C206.762 72.962 207.374 73.6406 207.467 74.8188L221.802 57.3188C221.365 56.2968 220.689 55.4853 219.846 55.0288C219.772 54.9897 219.694 54.9566 219.617 54.92L209.3 61.1577C210.135 61.4653 210.567 62.1406 210.266 63.4981Z" fill="#A7A9AC"/>
<path d="M206.855 81.3921H218.658C218.159 80.5488 217.853 79.4 218.007 78.1733L218.812 72.1958C219.118 69.8198 218.122 68.441 216.588 67.9805L216.628 67.9033C219.962 66.9843 221.608 64.2256 222.145 61.6582C222.455 60.2388 222.357 58.9043 221.982 57.7803L206.81 80.0762C206.754 80.6523 206.76 81.0606 206.855 81.3921Z" fill="#A7A9AC"/>
<path d="M188.806 63.5795L187.067 71.7437L199.306 65.0019L200.187 60.9297H206.701L218.414 54.478C217.826 54.3208 217.152 54.2094 216.36 54.1377L188.806 63.5795Z" fill="#A7A9AC"/>
<path d="M214.435 54.0425C214.164 54.0376 213.892 54.0327 213.6 54.0327H209.802L190.079 57.6006L189.147 61.9756L214.435 54.0425Z" fill="#A7A9AC"/>
<path d="M190.839 54.0327L190.352 56.3188L205.307 54.0327H190.839Z" fill="#A7A9AC"/>
<path d="M238.512 54.0327H227.961L229.427 81.3921H249.433L251.005 74.0352H234.258L238.512 54.0327Z" fill="#A7A9AC"/>
<path d="M221.883 81.3921H227.212V56.3603L221.883 81.3921Z" fill="#A7A9AC"/>
<path d="M279.749 67.713C278.561 73.2686 275.304 75.4522 270.897 75.4522C266.49 75.4522 264.152 73.2686 265.34 67.713C266.529 62.1562 269.785 59.9727 274.192 59.9727C278.599 59.9727 280.936 62.1562 279.749 67.713ZM275.649 53.0742C269.095 53.0742 256.872 53.5347 253.845 67.713C250.817 81.8902 262.889 82.3506 269.441 82.3506C275.994 82.3506 288.216 81.8902 291.244 67.713C294.271 53.5347 282.201 53.0742 275.649 53.0742Z" fill="#A7A9AC"/>
<path d="M315.43 53.0742C308.877 53.0742 296.654 53.5347 293.626 67.713C290.599 81.8902 302.67 82.3506 309.222 82.3506C315.812 82.3506 320.181 81.2383 323.247 79.2461C326.35 77.254 328.19 74.3418 329.646 70.7393H317.461C315.89 74.0352 313.552 75.4522 310.141 75.4522C306.195 75.4522 303.934 73.2686 305.122 67.713C306.31 62.1562 309.566 59.9727 313.974 59.9727C318.15 59.9727 318.84 62.8081 318.725 64.7612H330.911C331.792 53.918 321.944 53.0742 315.43 53.0742Z" fill="#A7A9AC"/>
<path d="M372.225 54.0327H357.894L345.785 63.6895L347.854 54.0327H337.049L331.224 81.3921H342.03L343.601 74.0352L347.816 70.8931L353.066 81.3921H367.435L357.74 64.609L372.225 54.0327Z" fill="#A7A9AC"/>
<path d="M365.88 45.479C366.674 45.479 367.354 45.2745 367.354 44.3428C367.354 43.7178 367.015 43.255 366.22 43.255H364.112V45.479H365.88ZM363.262 42.5386H366.263C367.462 42.5386 368.203 43.1905 368.203 44.211C368.203 44.9776 367.864 45.6123 367.095 45.8281V45.8442C367.838 45.9883 367.99 46.5337 368.05 47.1577C368.104 47.7827 368.069 48.4809 368.427 48.9189H367.479C367.238 48.6592 367.372 47.9722 367.247 47.3472C367.159 46.7207 367.007 46.1933 366.183 46.1933H364.112V48.9189H363.262V42.5386Z" fill="#A7A9AC"/>
<path d="M365.545 41.0519C362.898 41.0519 360.745 43.2051 360.745 45.8516C360.745 48.4981 362.898 50.6514 365.545 50.6514C368.191 50.6514 370.344 48.4981 370.344 45.8516C370.344 43.2051 368.191 41.0519 365.545 41.0519ZM365.545 51.5889C362.38 51.5889 359.808 49.0156 359.808 45.8516C359.808 42.6875 362.38 40.1144 365.545 40.1144C368.709 40.1144 371.281 42.6875 371.281 45.8516C371.281 49.0156 368.709 51.5889 365.545 51.5889Z" fill="#A7A9AC"/>
<path d="M246.499 25.4786C246.499 30.4067 242.505 34.4019 237.576 34.4019C232.646 34.4019 228.652 30.4067 228.652 25.4786C228.652 20.5509 232.646 16.5552 237.576 16.5552C242.505 16.5552 246.499 20.5509 246.499 25.4786Z" fill="#A7A9AC"/>
<path d="M237.576 17.8052C233.345 17.8052 229.902 21.2476 229.902 25.4786C229.902 29.7095 233.345 33.1519 237.576 33.1519C241.806 33.1519 245.249 29.7095 245.249 25.4786C245.249 21.2476 241.806 17.8052 237.576 17.8052ZM237.576 35.6519C231.966 35.6519 227.402 31.0884 227.402 25.4786C227.402 19.8687 231.966 15.3052 237.576 15.3052C243.185 15.3052 247.749 19.8687 247.749 25.4786C247.749 31.0884 243.185 35.6519 237.576 35.6519Z" fill="#A7A9AC"/>
<path d="M236.428 8.52197H238.928V0H236.428V8.52197Z" fill="#A7A9AC"/>
<path d="M236.428 51.0444H238.928V42.4653H236.428V51.0444Z" fill="#A7A9AC"/>
<path d="M256.508 8.37306L254.741 6.60543L248.716 12.6308L250.483 14.3984L256.508 8.37306Z" fill="#A7A9AC"/>
<path d="M218.647 42.6997L220.415 44.4673L226.481 38.3999L224.712 36.6323L218.647 42.6997Z" fill="#A7A9AC"/>
<path d="M254.5 26.7251H263.02V24.2251H254.5V26.7251Z" fill="#A7A9AC"/>
<path d="M211.975 26.7251H220.553V24.2251H211.975V26.7251Z" fill="#A7A9AC"/>
<path d="M254.648 44.3062L256.416 42.5385L250.39 36.5137L248.622 38.2812L254.648 44.3062Z" fill="#A7A9AC"/>
<path d="M220.321 6.44431L218.554 8.21194L224.619 14.2788L226.386 12.5112L220.321 6.44431Z" fill="#A7A9AC"/>
<path d="M12.4341 103.984C12.354 101.604 10.6133 100.443 8.0127 100.443C4.25097 100.443 1.70996 104.265 1.70996 108.106C1.70996 111.027 3.271 113.008 6.33154 113.008C9.47315 113.008 11.5537 110.747 12.0342 107.766H7.1123L7.39257 106.605H13.4951L11.9941 113.869H11.0737L11.314 111.467H11.2739C10.0732 113.349 8.3125 114.169 6.0918 114.169C2.39014 114.169 0.349609 111.848 0.349609 108.186C0.349609 103.584 3.03027 99.2822 8.13232 99.2822C11.7139 99.2822 13.6949 101.023 13.7949 103.984H12.4341Z" fill="#A7A9AC"/>
<path d="M26.0532 107.986C26.0532 107.706 26.0737 107.446 26.0737 107.186C26.0737 105.465 24.9931 104.305 23.2525 104.305C21.1708 104.305 19.751 106.065 19.3105 107.986H26.0532ZM19.1503 109.047C19.1108 109.287 19.0903 109.567 19.0903 109.847C19.0903 111.708 20.0512 113.108 22.0913 113.108C23.732 113.108 24.9931 112.048 25.4726 110.547H26.7338C26.0532 112.848 24.4726 114.169 22.0317 114.169C19.3105 114.169 17.8301 112.468 17.8301 109.787C17.8301 106.525 19.8711 103.244 23.4126 103.244C25.8936 103.244 27.334 104.865 27.334 107.266C27.334 107.846 27.314 108.427 27.2338 109.047H19.1503Z" fill="#A7A9AC"/>
<path d="M31.8491 103.544H33.7095L34.3696 100.423H35.6299L34.9698 103.544H37.0308L36.8305 104.604H34.73L33.3095 111.228C33.2095 111.708 33.1689 111.888 33.1689 112.208C33.1689 112.568 33.3491 112.928 33.8296 112.928C34.3291 112.928 34.8095 112.888 35.31 112.808L35.0899 113.909C34.6699 113.948 34.23 113.989 33.8091 113.989C32.8686 113.989 31.9086 113.748 31.9086 112.508C31.9086 112.288 31.9483 111.907 32.0484 111.447L33.4693 104.604H31.6084L31.8491 103.544Z" fill="#A7A9AC"/>
<path d="M49.4492 103.544H51.3096L51.9702 100.423H53.2305L52.5699 103.544H54.6314L54.4311 104.604H52.3301L50.9096 111.228C50.8096 111.708 50.7695 111.888 50.7695 112.208C50.7695 112.568 50.9497 112.928 51.4297 112.928C51.9297 112.928 52.4101 112.888 52.9106 112.808L52.6905 113.909C52.2705 113.948 51.8301 113.989 51.4096 113.989C50.4692 113.989 49.5092 113.748 49.5092 112.508C49.5092 112.288 49.5494 111.907 49.649 111.447L51.0699 104.604H49.209L49.4492 103.544Z" fill="#A7A9AC"/>
<path d="M60.4293 99.5826H61.6895L60.4293 105.425H60.4688C61.189 104.205 62.5503 103.244 64.0908 103.244C65.8912 103.244 67.2119 104.044 67.2119 106.025C67.2119 106.345 67.1519 106.766 67.0518 107.246L65.6314 113.869H64.3707L65.811 107.206C65.8912 106.885 65.9512 106.505 65.9512 106.165C65.9512 104.805 64.9112 104.305 63.7905 104.305C61.9698 104.305 60.3092 105.945 59.7485 108.566L58.6084 113.869H57.3477L60.4293 99.5826Z" fill="#A7A9AC"/>
<path d="M79.8716 107.986C79.8716 107.706 79.8921 107.446 79.8921 107.186C79.8921 105.465 78.8114 104.305 77.0708 104.305C74.9892 104.305 73.5693 106.065 73.1288 107.986H79.8716ZM72.9687 109.047C72.9292 109.287 72.9087 109.567 72.9087 109.847C72.9087 111.708 73.8696 113.108 75.9096 113.108C77.5502 113.108 78.8114 112.048 79.2909 110.547H80.5522C79.8716 112.848 78.2909 114.169 75.8501 114.169C73.1288 114.169 71.6484 112.468 71.6484 109.787C71.6484 106.525 73.6894 103.244 77.2309 103.244C79.7118 103.244 81.1523 104.865 81.1523 107.266C81.1523 107.846 81.1323 108.427 81.0522 109.047H72.9687Z" fill="#A7A9AC"/>
<path d="M102.552 107.506C102.552 105.585 101.631 104.305 99.5909 104.305C96.8296 104.305 95.3691 107.626 95.3691 109.967C95.3691 111.708 96.2895 113.108 98.1904 113.108C101.052 113.108 102.552 110.027 102.552 107.506ZM96.2495 99.5826H97.5098L96.2895 105.365H96.3296C97.0494 104.125 98.3301 103.244 99.8906 103.244C102.512 103.244 103.812 105.085 103.812 107.546C103.812 110.688 101.872 114.169 98.3501 114.169C96.6294 114.169 95.229 113.208 94.8886 111.508H94.8486L94.3486 113.869H93.208L96.2495 99.5826Z" fill="#A7A9AC"/>
<path d="M116.472 107.986C116.472 107.706 116.492 107.446 116.492 107.186C116.492 105.465 115.412 104.305 113.67 104.305C111.589 104.305 110.169 106.065 109.729 107.986H116.472ZM109.568 109.047C109.529 109.287 109.509 109.567 109.509 109.847C109.509 111.708 110.469 113.108 112.51 113.108C114.15 113.108 115.412 112.048 115.891 110.547H117.152C116.472 112.848 114.891 114.169 112.45 114.169C109.729 114.169 108.248 112.468 108.248 109.787C108.248 106.525 110.289 103.244 113.831 103.244C116.312 103.244 117.752 104.865 117.752 107.266C117.752 107.846 117.732 108.427 117.652 109.047H109.568Z" fill="#A7A9AC"/>
<path d="M122.647 110.507C122.628 112.508 124.108 113.108 125.57 113.108C126.69 113.108 128.17 112.528 128.17 111.208C128.17 109.867 126.75 109.446 125.388 108.926C124.008 108.386 122.628 107.766 122.628 106.065C122.628 104.064 124.788 103.244 126.45 103.244C128.61 103.244 130.171 104.185 130.131 106.565H128.87C128.97 104.985 127.87 104.305 126.45 104.305C125.348 104.305 123.888 104.645 123.888 106.065C123.888 107.026 124.909 107.506 126.068 107.966C127.49 108.526 129.43 109.106 129.43 111.007C129.43 113.328 127.23 114.169 125.268 114.169C123.288 114.169 121.267 113.088 121.387 110.507H122.647Z" fill="#A7A9AC"/>
<path d="M134.947 103.544H136.808L137.468 100.423H138.728L138.068 103.544H140.13L139.93 104.604H137.828L136.408 111.228C136.308 111.708 136.268 111.888 136.268 112.208C136.268 112.568 136.448 112.928 136.928 112.928C137.428 112.928 137.908 112.888 138.41 112.808L138.188 113.909C137.768 113.948 137.328 113.989 136.908 113.989C135.967 113.989 135.007 113.748 135.007 112.508C135.007 112.288 135.048 111.907 135.147 111.447L136.568 104.604H134.707L134.947 103.544Z" fill="#A7A9AC"/>
<path d="M160.552 107.546C160.552 105.625 159.53 104.305 157.51 104.305C154.749 104.305 153.228 107.326 153.228 109.747C153.228 111.748 154.229 113.108 156.329 113.108C159.09 113.108 160.552 109.947 160.552 107.546ZM161.812 107.286C161.812 110.767 159.912 114.169 156.09 114.169C153.429 114.169 151.968 112.448 151.968 109.867C151.968 106.486 154.049 103.244 157.73 103.244C160.132 103.244 161.812 104.745 161.812 107.286Z" fill="#A7A9AC"/>
<path d="M173.91 113.869H172.75L173.11 111.988H173.07C172.29 113.208 170.93 114.169 169.389 114.169C167.588 114.169 166.268 113.368 166.268 111.387C166.268 111.067 166.328 110.647 166.428 110.167L167.848 103.544H169.109L167.668 110.207C167.588 110.527 167.528 110.907 167.528 111.248C167.528 112.608 168.568 113.108 169.689 113.108C171.51 113.108 173.17 111.467 173.73 108.846L174.871 103.544H176.131L173.91 113.869Z" fill="#A7A9AC"/>
<path d="M180.527 103.544H182.388L183.048 100.423H184.308L183.648 103.544H185.71L185.51 104.604H183.408L181.988 111.228C181.888 111.708 181.848 111.888 181.848 112.208C181.848 112.568 182.028 112.928 182.508 112.928C183.008 112.928 183.488 112.888 183.988 112.808L183.768 113.909C183.348 113.948 182.908 113.989 182.488 113.989C181.547 113.989 180.587 113.748 180.587 112.508C180.587 112.288 180.627 111.907 180.727 111.447L182.148 104.604H180.287L180.527 103.544Z" fill="#A7A9AC"/>
<path d="M206.132 107.546C206.132 105.625 205.112 104.305 203.092 104.305C200.33 104.305 198.809 107.326 198.809 109.747C198.809 111.748 199.81 113.108 201.91 113.108C204.672 113.108 206.132 109.947 206.132 107.546ZM207.393 107.286C207.393 110.767 205.493 114.169 201.67 114.169C199.009 114.169 197.548 112.448 197.548 109.867C197.548 106.486 199.629 103.244 203.31 103.244C205.712 103.244 207.393 104.745 207.393 107.286Z" fill="#A7A9AC"/>
<path d="M217.13 104.604H215.109L213.069 113.869H211.808L213.849 104.604H212.049L212.288 103.544H214.069L214.389 102.043C214.71 100.523 215.43 99.5826 217.15 99.5826C217.59 99.5826 218.031 99.6026 218.451 99.7232L218.23 100.763C217.97 100.723 217.71 100.643 217.45 100.643C216.27 100.643 215.869 101.083 215.63 102.104L215.33 103.544H217.37L217.13 104.604Z" fill="#A7A9AC"/>
<path d="M227.448 116.569C227.808 116.609 228.168 116.63 228.528 116.63C229.289 116.63 229.829 116.049 230.149 115.509L231.089 113.869L229.189 103.544H230.509L231.99 112.308H232.03L236.793 103.544H238.151L230.809 116.309C230.289 117.229 229.389 117.69 228.308 117.69C227.948 117.69 227.569 117.61 227.209 117.59L227.448 116.569Z" fill="#A7A9AC"/>
<path d="M249.493 107.546C249.493 105.625 248.472 104.305 246.452 104.305C243.69 104.305 242.169 107.326 242.169 109.747C242.169 111.748 243.17 113.108 245.272 113.108C248.033 113.108 249.493 109.947 249.493 107.546ZM250.754 107.286C250.754 110.767 248.853 114.169 245.03 114.169C242.369 114.169 240.909 112.448 240.909 109.867C240.909 106.486 242.99 103.244 246.672 103.244C249.073 103.244 250.754 104.745 250.754 107.286Z" fill="#A7A9AC"/>
<path d="M262.851 113.869H261.691L262.051 111.988H262.011C261.23 113.208 259.87 114.169 258.33 114.169C256.53 114.169 255.209 113.368 255.209 111.387C255.209 111.067 255.269 110.647 255.369 110.167L256.79 103.544H258.049L256.609 110.207C256.53 110.527 256.469 110.907 256.469 111.248C256.469 112.608 257.51 113.108 258.63 113.108C260.45 113.108 262.111 111.467 262.673 108.846L263.813 103.544H265.073L262.851 113.869Z" fill="#A7A9AC"/>
<path d="M270.608 103.544H271.748L271.228 105.925H271.269C272.069 104.445 273.169 103.384 275.01 103.404C275.23 103.404 275.47 103.404 275.69 103.424L275.41 104.685C275.17 104.685 274.929 104.665 274.69 104.665C272.429 104.705 271.228 106.525 270.808 108.466L269.648 113.869H268.388L270.608 103.544Z" fill="#A7A9AC"/>
<path d="M289.45 99.5826H290.709L287.629 113.869H286.369L289.45 99.5826Z" fill="#A7A9AC"/>
<path d="M301.852 107.986C301.852 107.706 301.872 107.446 301.872 107.186C301.872 105.465 300.792 104.305 299.05 104.305C296.97 104.305 295.549 106.065 295.109 107.986H301.852ZM294.949 109.047C294.909 109.287 294.889 109.567 294.889 109.847C294.889 111.708 295.85 113.108 297.89 113.108C299.532 113.108 300.792 112.048 301.273 110.547H302.532C301.852 112.848 300.272 114.169 297.83 114.169C295.109 114.169 293.628 112.468 293.628 109.787C293.628 106.525 295.669 103.244 299.21 103.244C301.693 103.244 303.133 104.865 303.133 107.266C303.133 107.846 303.113 108.427 303.033 109.047H294.949Z" fill="#A7A9AC"/>
<path d="M314.27 108.346L314.23 108.306C313.83 108.806 312.589 108.846 311.95 108.886C310.409 109.006 307.868 109.086 307.868 111.248C307.868 112.568 308.969 113.108 310.169 113.108C312.189 113.108 313.469 111.888 313.87 110.087L314.27 108.346ZM308.028 106.625C308.368 104.285 310.169 103.244 312.389 103.244C313.79 103.244 315.97 103.725 315.97 105.545C315.97 106.545 315.531 108.106 315.331 109.026C314.87 111.348 314.651 111.888 314.651 112.508C314.651 112.868 315.011 112.928 315.31 112.928C315.491 112.928 315.631 112.908 315.81 112.888L315.631 113.889C315.35 113.948 314.93 113.989 314.59 113.989C313.89 113.989 313.51 113.549 313.49 112.868C313.49 112.688 313.51 112.488 313.53 112.308L313.49 112.268C312.77 113.468 311.349 114.169 309.909 114.169C308.028 114.169 306.606 113.328 306.606 111.308C306.606 109.126 308.348 108.427 310.188 108.106C311.509 107.906 312.67 108.006 313.469 107.806C314.29 107.605 314.711 107.146 314.711 105.785C314.711 104.565 313.49 104.305 312.529 104.305C310.929 104.305 309.549 104.905 309.289 106.625H308.028Z" fill="#A7A9AC"/>
<path d="M321.088 103.544H322.948L323.609 100.423H324.869L324.209 103.544H326.27L326.069 104.604H323.969L322.548 111.228C322.448 111.708 322.409 111.888 322.409 112.208C322.409 112.568 322.588 112.928 323.068 112.928C323.568 112.928 324.049 112.888 324.549 112.808L324.329 113.909C323.909 113.948 323.468 113.989 323.048 113.989C322.108 113.989 321.148 113.748 321.148 112.508C321.148 112.288 321.188 111.907 321.288 111.447L322.708 104.604H320.848L321.088 103.544Z" fill="#A7A9AC"/>
<path d="M332.068 99.5826H333.328L332.068 105.425H332.108C332.829 104.205 334.189 103.244 335.729 103.244C337.529 103.244 338.85 104.044 338.85 106.025C338.85 106.345 338.79 106.766 338.69 107.246L337.269 113.869H336.01L337.45 107.206C337.529 106.885 337.59 106.505 337.59 106.165C337.59 104.805 336.549 104.305 335.429 104.305C333.609 104.305 331.949 105.945 331.388 108.566L330.246 113.869H328.986L332.068 99.5826Z" fill="#A7A9AC"/>
<path d="M351.51 107.986C351.51 107.706 351.53 107.446 351.53 107.186C351.53 105.465 350.449 104.305 348.709 104.305C346.629 104.305 345.207 106.065 344.766 107.986H351.51ZM344.607 109.047C344.566 109.287 344.547 109.567 344.547 109.847C344.547 111.708 345.507 113.108 347.549 113.108C349.19 113.108 350.449 112.048 350.93 110.547H352.19C351.51 112.848 349.929 114.169 347.487 114.169C344.766 114.169 343.286 112.468 343.286 109.787C343.286 106.525 345.327 103.244 348.869 103.244C351.35 103.244 352.79 104.865 352.79 107.266C352.79 107.846 352.771 108.427 352.69 109.047H344.607Z" fill="#A7A9AC"/>
<path d="M358.446 103.544H359.586L359.066 105.925H359.106C359.907 104.445 361.007 103.384 362.847 103.404C363.067 103.404 363.307 103.404 363.527 103.424L363.248 104.685C363.007 104.685 362.767 104.665 362.527 104.665C360.267 104.705 359.066 106.525 358.646 108.466L357.485 113.869H356.225L358.446 103.544Z" fill="#A7A9AC"/>
<path d="M367.487 110.307L368.548 104.025L369.507 99.5826H370.848L369.888 104.044L368.248 110.307H367.487ZM366.267 113.869L366.727 111.748H368.427L367.947 113.869H366.267Z" fill="#A7A9AC"/>
</svg>
