<svg width="90" height="84" viewBox="0 0 90 84" fill="none" xmlns="http://www.w3.org/2000/svg">
<path d="M19.6874 6.16416e-08C19.2014 -0.000101462 18.7236 0.125205 18.3007 0.3637C17.8778 0.602195 17.5241 0.945736 17.2743 1.36082L0.39928 29.3612C0.0997228 29.8595 -0.0368339 30.4381 0.00851659 31.017C0.0538671 31.5959 0.27888 32.1465 0.652405 32.5925L42.84 82.9932C43.1039 83.3084 43.4342 83.5619 43.8075 83.7358C44.1808 83.9098 44.5879 84 45 84C45.4121 84 45.8192 83.9098 46.1925 83.7358C46.5658 83.5619 46.896 83.3084 47.16 82.9932L89.3476 32.5925C89.7211 32.1465 89.9461 31.5959 89.9915 31.017C90.0368 30.4381 89.9003 29.8595 89.6007 29.3612L72.7257 1.36082C72.4759 0.945736 72.1222 0.602195 71.6993 0.3637C71.2764 0.125205 70.7986 -0.000101462 70.3126 6.16416e-08H19.6874ZM7.7793 28.0004L21.2793 5.60008H32.4112L23.4112 28.0004H7.7793ZM23.3887 33.6005L36.1406 66.2434L8.81992 33.6005H23.3887ZM45 73.4731L29.4243 33.6005H60.5757L45 73.4731ZM29.4693 28.0004L38.4694 5.60008H51.5306L60.5307 28.0004H29.4693ZM66.5944 28.0004L57.5944 5.60008H68.7207L82.2207 28.0004H66.5944ZM66.6113 33.6005H81.1801L53.8594 66.2434L66.6113 33.6005Z" fill="#6E0C0D"/>
</svg>
