<svg width="229" height="42" viewBox="0 0 229 42" fill="none" xmlns="http://www.w3.org/2000/svg">
<path d="M228.424 40.8498H221.888L215.189 29.3029L210.804 34.5317V40.8498H205.14V0H210.804V25.7354L220.935 13.6166H228.342L219.056 24.7005L228.424 40.8498Z" fill="#D9D9D9"/>
<path d="M187.496 41.5581C184.99 41.5581 182.702 40.9135 180.633 39.6245C178.581 38.3355 176.938 36.6107 175.704 34.4502C174.487 32.2715 173.879 29.8659 173.879 27.2334C173.879 25.2363 174.233 23.3753 174.941 21.6506C175.649 19.9076 176.62 18.3826 177.855 17.0754C179.108 15.75 180.56 14.7152 182.212 13.9708C183.864 13.2264 185.625 12.8542 187.496 12.8542C190.001 12.8542 192.279 13.4988 194.331 14.7878C196.401 16.0768 198.044 17.8107 199.26 19.9893C200.495 22.168 201.112 24.5827 201.112 27.2334C201.112 29.2123 200.758 31.0642 200.05 32.789C199.342 34.5137 198.362 36.0388 197.109 37.3641C195.874 38.6713 194.431 39.6971 192.779 40.4415C191.145 41.1859 189.384 41.5581 187.496 41.5581ZM187.496 35.8935C189.002 35.8935 190.355 35.4941 191.553 34.6953C192.752 33.8964 193.696 32.8434 194.386 31.5362C195.094 30.2109 195.448 28.7766 195.448 27.2334C195.448 25.6539 195.085 24.2014 194.358 22.8761C193.65 21.5507 192.697 20.4977 191.499 19.717C190.301 18.9182 188.966 18.5188 187.496 18.5188C186.007 18.5188 184.654 18.9182 183.438 19.717C182.239 20.5159 181.286 21.578 180.578 22.9033C179.888 24.2287 179.543 25.672 179.543 27.2334C179.543 28.8492 179.907 30.3107 180.633 31.6179C181.359 32.9251 182.321 33.9691 183.519 34.7498C184.736 35.5123 186.061 35.8935 187.496 35.8935Z" fill="#D9D9D9"/>
<path d="M157.549 41.5581C155.044 41.5581 152.756 40.9135 150.686 39.6245C148.635 38.3355 146.992 36.6107 145.757 34.4502C144.541 32.2715 143.933 29.8659 143.933 27.2334C143.933 25.2363 144.287 23.3753 144.995 21.6506C145.703 19.9076 146.674 18.3826 147.909 17.0754C149.161 15.75 150.614 14.7152 152.266 13.9708C153.918 13.2264 155.679 12.8542 157.549 12.8542C160.055 12.8542 162.333 13.4988 164.385 14.7878C166.454 16.0768 168.098 17.8107 169.314 19.9893C170.549 22.168 171.166 24.5827 171.166 27.2334C171.166 29.2123 170.812 31.0642 170.104 32.789C169.396 34.5137 168.415 36.0388 167.163 37.3641C165.928 38.6713 164.485 39.6971 162.832 40.4415C161.198 41.1859 159.437 41.5581 157.549 41.5581ZM157.549 35.8935C159.056 35.8935 160.409 35.4941 161.607 34.6953C162.805 33.8964 163.749 32.8434 164.439 31.5362C165.147 30.2109 165.501 28.7766 165.501 27.2334C165.501 25.6539 165.138 24.2014 164.412 22.8761C163.704 21.5507 162.751 20.4977 161.553 19.717C160.354 18.9182 159.02 18.5188 157.549 18.5188C156.06 18.5188 154.708 18.9182 153.491 19.717C152.293 20.5159 151.34 21.578 150.632 22.9033C149.942 24.2287 149.597 25.672 149.597 27.2334C149.597 28.8492 149.96 30.3107 150.686 31.6179C151.413 32.9251 152.375 33.9691 153.573 34.7498C154.79 35.5123 156.115 35.8935 157.549 35.8935Z" fill="#D9D9D9"/>
<path d="M126.857 12.8541C129.507 12.8541 131.913 13.4986 134.073 14.7876C136.252 16.0767 137.986 17.8105 139.275 19.9892C140.564 22.1497 141.208 24.5553 141.208 27.206C141.208 29.1849 140.836 31.0459 140.092 32.7888C139.348 34.5136 138.313 36.0386 136.987 37.364C135.68 38.6712 134.155 39.697 132.412 40.4413C130.687 41.1857 128.836 41.5579 126.857 41.5579C124.95 41.5579 123.28 41.1222 121.846 40.2507C120.43 39.3611 119.268 38.2264 118.36 36.8465V40.8498H112.695V0H118.36V17.5654C119.268 16.1675 120.43 15.0327 121.846 14.1613C123.28 13.2898 124.95 12.8541 126.857 12.8541ZM126.802 36.0568C128.382 36.0568 129.825 35.6574 131.132 34.8585C132.439 34.0597 133.474 32.9885 134.237 31.645C135.017 30.3015 135.408 28.8218 135.408 27.206C135.408 25.5538 135.017 24.056 134.237 22.7125C133.456 21.369 132.412 20.3069 131.105 19.5262C129.798 18.7274 128.363 18.328 126.802 18.328C125.223 18.328 123.834 18.7274 122.635 19.5262C121.437 20.3251 120.502 21.3962 119.83 22.7397C119.159 24.0832 118.823 25.572 118.823 27.206C118.823 28.84 119.159 30.3287 119.83 31.6722C120.502 33.0157 121.437 34.0869 122.635 34.8857C123.834 35.6664 125.223 36.0568 126.802 36.0568Z" fill="#D9D9D9"/>
<path d="M95.1049 41.5581C92.5994 41.5581 90.3118 40.9135 88.2421 39.6245C86.1905 38.3355 84.5475 36.6107 83.3129 34.4502C82.0965 32.2715 81.4883 29.8659 81.4883 27.2334C81.4883 25.2363 81.8423 23.3753 82.5504 21.6506C83.2584 19.9076 84.2298 18.3826 85.4643 17.0754C86.7171 15.75 88.1695 14.7152 89.8216 13.9708C91.4738 13.2264 93.2349 12.8542 95.1049 12.8542C97.1928 12.8542 99.1082 13.29 100.851 14.1614C102.594 15.0148 104.083 16.2039 105.317 17.729C106.552 19.2359 107.46 20.9788 108.041 22.9578C108.622 24.9186 108.794 27.0064 108.558 29.2214H87.5613C87.7973 30.4741 88.2512 31.6089 88.9229 32.6256C89.6129 33.6241 90.4843 34.4139 91.5373 34.9949C92.6085 35.5758 93.7977 35.8754 95.1049 35.8935C96.4847 35.8935 97.7374 35.5486 98.8631 34.8587C100.007 34.1688 100.942 33.2156 101.668 31.9992L107.414 33.3336C106.325 35.7483 104.682 37.7273 102.485 39.2705C100.288 40.7955 97.8282 41.5581 95.1049 41.5581ZM87.3707 24.8913H102.839C102.658 23.5841 102.195 22.404 101.45 21.351C100.724 20.2798 99.8072 19.4356 98.6997 18.8183C97.6103 18.1829 96.4121 17.8652 95.1049 17.8652C93.8158 17.8652 92.6176 18.1738 91.5101 18.7911C90.4208 19.4084 89.513 20.2526 88.7868 21.3238C88.0787 22.3768 87.6067 23.566 87.3707 24.8913Z" fill="#D9D9D9"/>
<path d="M73.7786 33.1158L78.844 35.8663C77.6094 37.5911 76.039 38.9709 74.1326 40.0058C72.2445 41.0406 70.1929 41.5581 67.9779 41.5581C65.4725 41.5581 63.1849 40.9135 61.1152 39.6245C59.0636 38.3355 57.4205 36.6107 56.186 34.4502C54.9695 32.2715 54.3613 29.8659 54.3613 27.2334C54.3613 25.2363 54.7154 23.3753 55.4234 21.6506C56.1315 19.9076 57.1028 18.3826 58.3374 17.0754C59.5901 15.75 61.0425 14.7152 62.6947 13.9708C64.3468 13.2264 66.1079 12.8542 67.9779 12.8542C70.1929 12.8542 72.2445 13.3717 74.1326 14.4065C76.039 15.4414 77.6094 16.8303 78.844 18.5732L73.7786 21.3238C73.0161 20.416 72.1265 19.7261 71.1098 19.2541C70.093 18.7639 69.0491 18.5188 67.9779 18.5188C66.4892 18.5188 65.1366 18.9273 63.9202 19.7442C62.7219 20.5431 61.7688 21.6052 61.0607 22.9305C60.3708 24.2377 60.0258 25.672 60.0258 27.2334C60.0258 28.7766 60.3799 30.2109 61.0879 31.5362C61.796 32.8434 62.7492 33.8964 63.9474 34.6953C65.1638 35.4941 66.5073 35.8935 67.9779 35.8935C69.1036 35.8935 70.1748 35.6394 71.1915 35.131C72.2082 34.6227 73.0705 33.9509 73.7786 33.1158Z" fill="#D9D9D9"/>
<path d="M45.4279 13.6168H51.0924V40.85H45.4006L45.1828 36.9012C44.3839 38.2991 43.3037 39.4248 41.942 40.2781C40.5804 41.1314 38.9736 41.5581 37.1217 41.5581C35.1246 41.5581 33.2456 41.1859 31.4845 40.4415C29.7234 39.679 28.1711 38.6259 26.8276 37.2824C25.5022 35.9389 24.4674 34.3957 23.723 32.6528C22.9786 30.8917 22.6064 29.0035 22.6064 26.9883C22.6064 25.0457 22.9696 23.221 23.6958 21.5144C24.422 19.7896 25.4296 18.2827 26.7187 16.9937C28.0077 15.7047 29.4964 14.697 31.1849 13.9708C32.8915 13.2264 34.7161 12.8542 36.6588 12.8542C38.6377 12.8542 40.3807 13.3081 41.8876 14.2159C43.4126 15.1055 44.6744 16.2493 45.673 17.6473L45.4279 13.6168ZM36.9856 36.0842C38.5833 36.0842 39.9812 35.6938 41.1795 34.9132C42.3778 34.1143 43.3037 33.0431 43.9573 31.6996C44.629 30.3561 44.9649 28.8674 44.9649 27.2334C44.9649 25.5812 44.629 24.0834 43.9573 22.7399C43.2855 21.3964 42.3505 20.3343 41.1523 19.5536C39.9722 18.7548 38.5833 18.3554 36.9856 18.3554C35.4061 18.3554 33.9627 18.7548 32.6555 19.5536C31.3483 20.3525 30.3134 21.4236 29.5509 22.7671C28.7884 24.1106 28.4071 25.5994 28.4071 27.2334C28.4071 28.8855 28.7975 30.3834 29.5781 31.7269C30.377 33.0522 31.4209 34.1143 32.71 34.9132C34.0172 35.6938 35.4424 36.0842 36.9856 36.0842Z" fill="#D9D9D9"/>
<path d="M0.199219 40.8496V2.72314H22.6666V8.38765H5.86373V17.5925H20.0522V23.257H5.86373V40.8496H0.199219Z" fill="#D9D9D9"/>
</svg>
