<svg width="173" height="58" viewBox="0 0 173 58" fill="none" xmlns="http://www.w3.org/2000/svg">
<path d="M42.2268 20.1519H22.0075V26.1761H36.3501C35.6378 34.6209 28.6377 38.2245 22.0349 38.2245C17.7842 38.2245 13.7075 36.5291 10.7018 33.5112C7.69605 30.4934 6.00745 26.4003 6.00745 22.1324C6.00745 17.8645 7.69605 13.7715 10.7018 10.7536C13.7075 7.73578 17.7842 6.04037 22.0349 6.04037C26.064 6.03409 29.9385 7.59701 32.8432 10.4004L37.0487 6.02662C32.9866 2.08353 27.5338 -0.0826597 21.8843 0.00241438C18.9898 0.0231855 16.1277 0.616163 13.4614 1.74749C10.7952 2.87882 8.37698 4.52634 6.34489 6.59599C4.31281 8.66564 2.70663 11.1169 1.61807 13.8098C0.529503 16.5026 -0.0201248 19.3844 0.000563015 22.2906C0.0212508 25.1967 0.611849 28.0703 1.73864 30.7473C2.86543 33.4243 4.50634 35.8523 6.56768 37.8925C8.62903 39.9328 11.0704 41.5455 13.7525 42.6384C16.4346 43.7313 19.3048 44.2832 22.1993 44.2624C33.9939 44.2624 42.6378 36.1476 42.6378 24.1405C42.6622 22.8013 42.5382 21.4635 42.2679 20.1519H42.2268ZM58.7886 15.7919C55.9918 15.8028 53.2608 16.6447 50.9399 18.2115C48.619 19.7784 46.812 22 45.7467 24.5964C44.6815 27.1928 44.4056 30.0477 44.9539 32.8013C45.5022 35.5548 46.8501 38.0838 48.8277 40.0694C50.8053 42.055 53.3242 43.4084 56.0667 43.9588C58.8092 44.5093 61.6526 44.2323 64.2386 43.1628C66.8246 42.0932 69.0373 40.2789 70.5979 37.9487C72.1584 35.6184 72.997 32.8764 73.0078 30.0684C73.0374 28.1854 72.6899 26.3156 71.9858 24.5701C71.2817 22.8245 70.2354 21.2388 68.9091 19.9072C67.5827 18.5755 66.0034 17.525 64.2649 16.8181C62.5263 16.1111 60.6641 15.7622 58.7886 15.7919ZM58.8708 21.376C60.5947 21.274 62.3093 21.6944 63.7923 22.5828C65.2754 23.4711 66.4583 24.7864 67.1877 26.358C67.9171 27.9296 68.1594 29.685 67.883 31.3965C67.6067 33.108 66.8246 34.6967 65.638 35.9564C64.4515 37.2162 62.9153 38.0889 61.2287 38.4614C59.5421 38.8339 57.783 38.6889 56.1794 38.0454C54.5759 37.4018 53.202 36.2894 52.2358 34.8523C51.2697 33.4152 50.7559 31.7197 50.7611 29.9859C50.7036 28.8793 50.8705 27.7726 51.2517 26.7327C51.6329 25.6929 52.2205 24.7416 52.9788 23.9365C53.7371 23.1315 54.6503 22.4894 55.6631 22.0492C56.6759 21.6091 57.7672 21.38 58.8708 21.376ZM89.7751 15.7919C86.9777 15.8 84.2454 16.6397 81.9227 18.2049C79.5999 19.7701 77.7908 21.9908 76.7234 24.5869C75.6561 27.1831 75.3782 30.0384 75.925 32.7929C76.4717 35.5474 77.8186 38.0776 79.7957 40.0646C81.7727 42.0516 84.2916 43.4063 87.0345 43.9579C89.7774 44.5095 92.6215 44.2333 95.2083 43.1641C97.795 42.095 100.009 40.2807 101.57 37.9501C103.131 35.6195 103.97 32.877 103.981 30.0684C104.01 28.1866 103.663 26.3179 102.96 24.5733C102.257 22.8287 101.211 21.2436 99.8866 19.9122C98.5618 18.5807 96.9841 17.5299 95.2471 16.8221C93.5102 16.1144 91.6494 15.764 89.7751 15.7919ZM89.8573 21.376C91.5812 21.274 93.2958 21.6944 94.7788 22.5828C96.2618 23.4711 97.4448 24.7864 98.1742 26.358C98.9036 27.9296 99.1459 29.685 98.8695 31.3965C98.5932 33.108 97.811 34.6967 96.6245 35.9564C95.4379 37.2162 93.9018 38.0889 92.2152 38.4614C90.5286 38.8339 88.7695 38.6889 87.1659 38.0454C85.5624 37.4018 84.1884 36.2894 83.2223 34.8523C82.2561 33.4152 81.7424 31.7197 81.7476 29.9859C81.6901 28.8793 81.857 27.7726 82.2382 26.7327C82.6194 25.6929 83.207 24.7416 83.9653 23.9365C84.7236 23.1315 85.6368 22.4894 86.6496 22.0492C87.6624 21.6091 88.7537 21.38 89.8573 21.376ZM120.145 15.8056C112.529 15.8056 106.542 22.5038 106.542 30.0134C106.486 33.6831 107.865 37.2288 110.382 39.89C112.899 42.5512 116.355 44.116 120.008 44.2487C121.482 44.3293 122.954 44.0585 124.304 43.4585C125.654 42.8585 126.844 41.9463 127.775 40.7964V43.5472C127.775 48.4574 124.803 51.3869 120.323 51.3869C118.761 51.3739 117.238 50.8932 115.95 50.0062C114.661 49.1193 113.666 47.8664 113.09 46.408L107.611 48.6912C108.671 51.1963 110.447 53.3293 112.715 54.8204C114.982 56.3114 117.64 57.0934 120.351 57.0673C127.926 57.0673 133.693 52.2809 133.693 42.2406V16.6584H127.789V19.0653C126.821 18.0053 125.637 17.1659 124.319 16.6036C123 16.0413 121.577 15.7692 120.145 15.8056ZM120.693 21.376C124.433 21.376 128.255 24.5806 128.255 30.0409C128.255 35.5012 124.433 38.6646 120.611 38.6646C119.53 38.637 118.466 38.3912 117.482 37.9419C116.498 37.4927 115.613 36.849 114.882 36.0494C114.151 35.2499 113.588 34.3107 113.226 33.2878C112.864 32.265 112.711 31.1795 112.775 30.0959C112.775 24.5944 116.693 21.376 120.693 21.376ZM160.145 15.7644C152.967 15.7644 146.926 21.4997 146.926 29.9721C146.855 31.8393 147.164 33.7014 147.833 35.4448C148.503 37.1883 149.519 38.7764 150.82 40.1124C152.122 41.4484 153.68 42.5041 155.401 43.2153C157.122 43.9264 158.969 44.278 160.83 44.2487C163.164 44.2533 165.464 43.6871 167.531 42.5992C169.598 41.5112 171.37 39.9342 172.693 38.0044L167.789 34.731C167.079 35.9414 166.062 36.9416 164.842 37.63C163.623 38.3185 162.243 38.6706 160.844 38.6508C159.391 38.7111 157.953 38.3334 156.715 37.5662C155.477 36.799 154.496 35.6774 153.899 34.3459L172.899 26.4374L171.913 24.113C171.007 21.6983 169.399 19.6126 167.299 18.1264C165.198 16.6402 162.701 15.8221 160.132 15.7781L160.145 15.7644ZM160.392 21.2659C161.464 21.2195 162.527 21.4808 163.456 22.0191C164.385 22.5575 165.142 23.3506 165.639 24.3055L152.954 29.6283C152.891 28.5878 153.034 27.5452 153.374 26.5605C153.715 25.5758 154.246 24.6686 154.937 23.8911C155.629 23.1137 156.467 22.4814 157.403 22.0308C158.339 21.5803 159.355 21.3203 160.392 21.2659ZM137.871 43.4097H144.118V1.47408H137.871V43.4097Z" fill="#D9D9D9"/>
</svg>
