<svg width="604" height="109" viewBox="0 0 604 109" fill="none" xmlns="http://www.w3.org/2000/svg">
<path d="M2.59863 2.48145H11.219V18.7462L26.5368 2.48145H37.2979L21.9801 17.9773L38.7812 41.7135H27.9647L16.1599 24.0753L11.219 29.0755V41.7135H2.59863V2.48145Z" fill="#A7A9AC"/>
<path d="M51.9582 12.5371C60.9093 12.5371 66.674 18.4727 66.674 27.5375C66.674 36.5488 60.9093 42.4844 51.9582 42.4844C43.0645 42.4844 37.2998 36.5508 37.2998 27.5375C37.2998 18.4727 43.0645 12.5371 51.9582 12.5371ZM51.9582 36.6043C57.2833 36.6043 58.8775 32.0441 58.8775 27.5375C58.8775 22.9773 57.2853 18.4172 51.9582 18.4172C46.6866 18.4172 45.0964 22.9773 45.0964 27.5375C45.0964 32.0441 46.6885 36.6043 51.9582 36.6043Z" fill="#A7A9AC"/>
<path d="M90.2277 23.3063C89.7326 20.1195 87.7028 18.4171 84.463 18.4171C79.4666 18.4171 77.8209 23.4728 77.8209 27.6484C77.8209 31.7151 79.4131 36.6043 84.2986 36.6043C87.9226 36.6043 90.0079 34.2974 90.503 30.8352H98.0262C97.038 38.3622 91.8219 42.4843 84.356 42.4843C75.7911 42.4843 70.0264 36.4398 70.0264 27.9239C70.0264 19.0771 75.298 12.5391 84.5204 12.5391C91.2179 12.5391 97.3688 16.0548 97.8619 23.3083L90.2277 23.3063Z" fill="#A7A9AC"/>
<path d="M101.65 2.48145H109.447V17.2618H109.611C111.59 14.0751 114.992 12.5372 117.903 12.5372C126.195 12.5372 128.28 17.2083 128.28 24.2418V41.7135H120.483V25.6687C120.483 20.9976 119.111 18.6907 115.487 18.6907C111.259 18.6907 109.447 21.0531 109.447 26.8221V41.7135H101.65V2.48145Z" fill="#A7A9AC"/>
<path d="M160.401 15.6703C159.852 11.7681 156.117 8.80131 151.836 8.80131C144.095 8.80131 141.184 15.3948 141.184 22.2618C141.184 28.7998 144.095 35.3933 151.836 35.3933C157.108 35.3933 160.072 31.7666 160.73 26.602H169.075C168.197 36.3823 161.443 42.6468 151.834 42.6468C139.701 42.6468 132.563 33.58 132.563 22.2618C132.563 10.6147 139.701 1.54785 151.834 1.54785C160.454 1.54785 167.702 6.60347 168.746 15.6683L160.401 15.6703Z" fill="#A7A9AC"/>
<path d="M173.362 2.48145H181.159V17.2618H181.323C183.302 14.0751 186.704 12.5372 189.615 12.5372C197.906 12.5372 199.992 17.2083 199.992 24.2418V41.7135H192.195V25.6687C192.195 20.9976 190.823 18.6907 187.199 18.6907C182.971 18.6907 181.159 21.0531 181.159 26.8221V41.7135H173.362V2.48145Z" fill="#A7A9AC"/>
<path d="M211.577 29.4063C211.797 34.351 214.213 36.6043 218.55 36.6043C221.678 36.6043 224.203 34.6819 224.698 32.9241H231.562C229.366 39.6266 224.698 42.4844 218.276 42.4844C209.327 42.4844 203.782 36.3308 203.782 27.5375C203.782 19.0216 209.656 12.5371 218.276 12.5371C227.938 12.5371 232.606 20.6705 232.057 29.4063H211.577ZM224.261 24.4617C223.548 20.504 221.845 18.4172 218.056 18.4172C213.114 18.4172 211.688 22.2619 211.579 24.4617H224.261Z" fill="#A7A9AC"/>
<path d="M236.121 13.3061H243.478V17.1528H243.589C245.619 14.2395 248.585 12.5371 252.263 12.5371C255.831 12.5371 259.016 13.857 260.554 17.2618C262.202 14.7885 265.167 12.5371 269.119 12.5371C275.159 12.5371 279.496 15.3394 279.496 22.7019V41.7134H271.7V25.6131C271.7 21.8219 271.369 18.6907 266.923 18.6907C262.531 18.6907 261.707 22.3174 261.707 25.8886V41.7134H253.91V25.7776C253.91 22.4819 254.13 18.6907 249.189 18.6907C247.653 18.6907 243.918 19.6796 243.918 25.2287V41.7115H236.121V13.3061Z" fill="#A7A9AC"/>
<path d="M292.346 8.91245H284.55V2.48145H292.346V8.91245ZM284.55 13.3061H292.346V41.7135H284.55V13.3061Z" fill="#A7A9AC"/>
<path d="M303.822 29.4063C304.04 34.351 306.458 36.6043 310.795 36.6043C313.926 36.6043 316.451 34.6819 316.944 32.9241H323.807C321.611 39.6266 316.944 42.4844 310.519 42.4844C301.57 42.4844 296.025 36.3308 296.025 27.5375C296.025 19.0216 301.899 12.5371 310.519 12.5371C320.183 12.5371 324.849 20.6705 324.302 29.4063H303.822ZM316.504 24.4617C315.791 20.504 314.088 18.4172 310.3 18.4172C305.359 18.4172 303.931 22.2619 303.822 24.4617H316.504Z" fill="#A7A9AC"/>
<path d="M331.805 5.19238C335.332 5.19238 338.476 7.73109 338.476 11.6769C338.476 15.6405 335.332 18.1971 331.805 18.1971C328.278 18.1971 325.133 15.6405 325.133 11.6769C325.133 7.72911 328.278 5.19238 331.805 5.19238ZM331.805 16.8058C334.496 16.8058 336.704 14.6496 336.704 11.6769C336.704 8.72002 334.498 6.58164 331.805 6.58164C329.076 6.58164 326.903 8.72002 326.903 11.6769C326.903 14.6516 329.076 16.8058 331.805 16.8058ZM329.214 8.02638H331.961C333.785 8.02638 334.809 8.60111 334.809 10.1826C334.809 11.5203 333.975 12.0435 332.898 12.1287L334.842 15.3115H333.329L331.557 12.1981H330.654V15.3115H329.21V8.02638H329.214ZM330.658 11.0685H331.943C332.759 11.0685 333.367 10.9456 333.367 10.0597C333.367 9.27691 332.533 9.15602 331.874 9.15602H330.658V11.0685Z" fill="#A7A9AC"/>
<path d="M2.59863 56.5156H31.9174V63.7691H11.219V72.174H30.2163V78.8785H11.219V88.4942H32.357V95.7477H2.59863V56.5156Z" fill="#A7A9AC"/>
<path d="M43.778 80.8009L34.4447 67.3384H43.3383L48.3347 74.7563L53.2756 67.3384H61.896L52.5627 80.6364L63.0505 95.7458H54.1549L48.2258 86.7879L42.2947 95.7458H33.5674L43.778 80.8009Z" fill="#A7A9AC"/>
<path d="M84.5187 77.3385C84.0237 74.1518 81.9938 72.4474 78.754 72.4474C73.7576 72.4474 72.112 77.503 72.112 81.6787C72.112 85.7454 73.7042 90.6365 78.5896 90.6365C82.2136 90.6365 84.2989 88.3277 84.794 84.8675H92.3153C91.3271 92.3944 86.1109 96.5146 78.6451 96.5146C70.0802 96.5146 64.3154 90.4701 64.3154 81.9542C64.3154 73.1074 69.5871 66.5693 78.8094 66.5693C85.5069 66.5693 91.6578 70.0851 92.1509 77.3385H84.5187Z" fill="#A7A9AC"/>
<path d="M102.312 83.4385C102.532 88.3851 104.948 90.6385 109.285 90.6385C112.414 90.6385 114.939 88.7141 115.434 86.9582H122.298C120.101 93.6607 115.434 96.5165 109.012 96.5165C100.062 96.5165 94.5176 90.365 94.5176 81.5716C94.5176 73.0558 100.391 66.5732 109.012 66.5732C118.674 66.5732 123.341 74.7046 122.793 83.4405L102.312 83.4385ZM114.994 78.4919C114.281 74.5362 112.578 72.4474 108.79 72.4474C103.847 72.4474 102.421 76.2941 102.312 78.4919H114.994Z" fill="#A7A9AC"/>
<path d="M126.799 56.5156H134.595V95.7477H126.799V56.5156Z" fill="#A7A9AC"/>
<path d="M140.143 56.5156H147.939V95.7477H140.143V56.5156Z" fill="#A7A9AC"/>
<path d="M159.688 83.4385C159.908 88.3852 162.324 90.6385 166.661 90.6385C169.79 90.6385 172.315 88.7141 172.81 86.9583H179.674C177.477 93.6588 172.81 96.5146 166.388 96.5146C157.438 96.5146 151.894 90.363 151.894 81.5697C151.894 73.0538 157.767 66.5713 166.388 66.5713C176.05 66.5713 180.717 74.7027 180.169 83.4385H159.688ZM172.372 78.4919C171.659 74.5362 169.956 72.4474 166.168 72.4474C161.225 72.4474 159.799 76.2941 159.69 78.4919H172.372Z" fill="#A7A9AC"/>
<path d="M183.959 67.3402H191.371V71.2959H191.536C193.512 68.1112 196.916 66.5713 200.21 66.5713C208.501 66.5713 210.586 71.2405 210.586 78.2739V95.7456H202.79V79.7008C202.79 75.0317 201.418 72.7229 197.794 72.7229C193.566 72.7229 191.754 75.0852 191.754 80.8562V95.7476H183.957L183.959 67.3402Z" fill="#A7A9AC"/>
<path d="M235.022 77.3385C234.527 74.1518 232.497 72.4474 229.257 72.4474C224.261 72.4474 222.615 77.503 222.615 81.6787C222.615 85.7454 224.207 90.6365 229.093 90.6365C232.717 90.6365 234.802 88.3277 235.297 84.8675H242.818C241.83 92.3944 236.614 96.5146 229.148 96.5146C220.583 96.5146 214.818 90.4701 214.818 81.9542C214.818 73.1074 220.09 66.5693 229.312 66.5693C236.01 66.5693 242.161 70.0851 242.654 77.3385H235.022Z" fill="#A7A9AC"/>
<path d="M252.813 83.4385C253.033 88.3851 255.449 90.6385 259.786 90.6385C262.915 90.6385 265.44 88.7141 265.935 86.9582H272.799C270.602 93.6607 265.935 96.5165 259.513 96.5165C250.563 96.5165 245.019 90.365 245.019 81.5716C245.019 73.0558 250.892 66.5732 259.513 66.5732C269.175 66.5732 273.842 74.7046 273.294 83.4405L252.813 83.4385ZM265.495 78.4919C264.782 74.5362 263.079 72.4474 259.291 72.4474C254.348 72.4474 252.922 76.2941 252.813 78.4919H265.495Z" fill="#A7A9AC"/>
<path d="M277.906 56.5156H305.468V63.7691H286.527V72.8339H302.944V79.5384H286.527V95.7477H277.906V56.5156Z" fill="#A7A9AC"/>
<path d="M322.598 66.5713C331.549 66.5713 337.314 72.5049 337.314 81.5697C337.314 90.581 331.549 96.5146 322.598 96.5146C313.704 96.5146 307.939 90.581 307.939 81.5697C307.939 72.5049 313.704 66.5713 322.598 66.5713ZM322.598 90.6365C327.923 90.6365 329.515 86.0744 329.515 81.5697C329.515 77.0095 327.923 72.4474 322.598 72.4474C317.328 72.4474 315.734 77.0095 315.734 81.5697C315.736 86.0763 317.328 90.6365 322.598 90.6365Z" fill="#A7A9AC"/>
<path d="M341.544 67.3402H348.956V72.6158H349.067C350.495 69.0426 354.337 66.5713 358.125 66.5713C358.674 66.5713 359.333 66.6803 359.826 66.8468V74.0982C359.113 73.9337 357.961 73.8228 357.026 73.8228C351.317 73.8228 349.341 77.943 349.341 82.9451V95.7476H341.542V67.3402H341.544Z" fill="#A7A9AC"/>
<path d="M362.903 56.5156H392.224V63.7691H371.524V72.174H390.521V78.8785H371.524V88.4942H392.664V95.7477H362.905V56.5156H362.903Z" fill="#A7A9AC"/>
<path d="M404.087 80.8009L394.751 67.3384H403.647L408.641 74.7563L413.582 67.3384H422.205L412.869 80.6364L423.357 95.7458H414.462L408.532 86.7879L402.603 95.7458H393.874L404.087 80.8009Z" fill="#A7A9AC"/>
<path d="M425.498 67.3402H432.91V70.967H433.021C434.887 67.9447 437.962 66.5713 441.477 66.5713C450.371 66.5713 454.381 73.7693 454.381 81.8452C454.381 89.4276 450.209 96.5146 441.917 96.5146C438.513 96.5146 435.275 95.0322 433.405 92.2299H433.297V105.746H425.498V67.3402ZM446.583 81.6272C446.583 77.1225 444.771 72.4494 439.774 72.4494C434.667 72.4494 433.021 77.0115 433.021 81.6272C433.021 86.2408 434.778 90.6385 439.83 90.6385C444.935 90.6365 446.583 86.2408 446.583 81.6272Z" fill="#A7A9AC"/>
<path d="M464.649 83.4385C464.867 88.3851 467.285 90.6385 471.622 90.6385C474.753 90.6385 477.278 88.7141 477.771 86.9582H484.635C482.438 93.6607 477.771 96.5165 471.347 96.5165C462.397 96.5165 456.853 90.365 456.853 81.5716C456.853 73.0558 462.728 66.5732 471.347 66.5732C481.011 66.5732 485.676 74.7046 485.128 83.4405L464.649 83.4385ZM477.331 78.4919C476.618 74.5362 474.915 72.4474 471.127 72.4474C466.186 72.4474 464.758 76.2941 464.649 78.4919H477.331Z" fill="#A7A9AC"/>
<path d="M488.918 67.3402H496.33V72.6158H496.441C497.869 69.0426 501.711 66.5713 505.499 66.5713C506.048 66.5713 506.707 66.6803 507.2 66.8468V74.0982C506.487 73.9337 505.335 73.8228 504.4 73.8228C498.691 73.8228 496.715 77.943 496.715 82.9451V95.7476H488.916L488.918 67.3402Z" fill="#A7A9AC"/>
<path d="M519.335 67.3405H525.046V72.5607H519.335V86.6276C519.335 89.2654 519.995 89.9253 522.63 89.9253C523.454 89.9253 524.223 89.8699 525.046 89.7054V95.8034C523.729 96.0234 522.028 96.0789 520.49 96.0789C515.713 96.0789 511.539 94.981 511.539 89.3209V72.5626H506.815V67.3425H511.539V58.8267H519.335V67.3405Z" fill="#A7A9AC"/>
<path d="M533.996 86.5144C534.05 89.9231 536.907 91.2945 539.981 91.2945C542.233 91.2945 545.086 90.4166 545.086 87.6698C545.086 85.3074 541.846 84.483 536.246 83.2721C531.745 82.2832 527.241 80.6898 527.241 75.6897C527.241 68.4382 533.501 66.5693 539.595 66.5693C545.799 66.5693 551.51 68.6562 552.112 75.6342H544.7C544.482 72.6139 542.175 71.7894 539.375 71.7894C537.618 71.7894 535.038 72.1184 535.038 74.4253C535.038 77.2276 539.432 77.612 543.878 78.6584C548.437 79.7009 552.883 81.3497 552.883 86.6253C552.883 94.0988 546.405 96.5146 539.925 96.5146C533.337 96.5146 526.915 94.0433 526.584 86.5144H533.996Z" fill="#A7A9AC"/>
<path d="M556.946 87.2852H565.569V95.7475H556.946V87.2852Z" fill="#A7A9AC"/>
</svg>
