<svg width="210" height="104" viewBox="0 0 210 104" fill="none" xmlns="http://www.w3.org/2000/svg">
<path d="M34.6645 68.4285H29.624L31.708 58.6142L26.3286 68.4285H23.2283L22.212 58.2652L20.0253 68.4285H17.9824L21.0519 53.9946H26.8419L27.5503 62.1354L31.9133 53.9946H37.7546L34.6645 68.4285Z" fill="white"/>
<path d="M49.7655 68.4285H44.4375L44.1192 64.8148H39.9205L38.3087 68.4285H36.1016L42.8052 53.9946H48.1948L49.7655 68.4285ZM40.6699 63.1518H43.9653L43.4417 56.9717L40.6699 63.1518Z" fill="white"/>
<path d="M67.5371 68.4285H62.4965L64.5805 58.6142L59.2012 68.4285H56.1009L55.0845 58.2652L52.8979 68.4285H50.855L53.9245 53.9946H59.7145L60.4228 62.1354L64.7858 53.9946H70.6271L67.5371 68.4285Z" fill="white"/>
<path d="M84.1982 57.4234C84.1982 58.3217 83.9467 59.1481 83.4488 59.9077C82.9483 60.6623 82.1245 61.2372 80.9747 61.6324L83.6131 68.4285H78.5417L76.5398 62.1354H76.2934L74.9486 68.4285H70.0415L73.111 53.9946H79.0858C79.7839 53.9946 80.4434 54.0356 81.0671 54.1178C81.6882 54.1999 82.2297 54.3693 82.6891 54.6208C83.1537 54.8749 83.5207 55.2239 83.7876 55.6679C84.0596 56.1145 84.1982 56.6996 84.1982 57.4234ZM77.6588 60.6777C78.0489 60.6777 78.3826 60.5494 78.6649 60.2876C78.9446 60.0207 79.1705 59.6999 79.3424 59.3226C79.5195 58.9402 79.6453 58.5321 79.7223 58.1009C79.7967 57.6698 79.8352 57.2951 79.8352 56.9717C79.8352 56.5816 79.7659 56.2479 79.6299 55.9656C79.4913 55.6859 79.1987 55.5447 78.747 55.5447H77.7204L76.5912 60.6777H77.6588Z" fill="white"/>
<path d="M93.7732 53.7687C95.0718 53.7687 96.1267 53.9381 96.9351 54.2717C97.7487 54.6002 98.3929 55.1135 98.8651 55.8116C99.1654 56.2839 99.3989 56.8177 99.5632 57.4131C99.7326 58.0034 99.8198 58.681 99.8198 59.4458C99.8198 60.1182 99.7582 60.788 99.635 61.4579C99.5118 62.1226 99.3399 62.7617 99.1217 63.3776C98.901 63.9884 98.6341 64.5633 98.321 65.1023C98.013 65.6361 97.6691 66.1083 97.2944 66.519C96.5809 67.2941 95.7596 67.8382 94.8306 68.1513C93.8989 68.4592 92.7492 68.6132 91.3812 68.6132C90.0672 68.6132 89.0047 68.4746 88.1988 68.2026C87.3981 67.9305 86.7641 67.4891 86.2996 66.8783C85.9634 66.4548 85.699 65.9184 85.5091 65.2665C85.3166 64.6172 85.2217 63.7985 85.2217 62.813C85.2217 61.1294 85.5194 59.628 86.1148 58.3062C86.7154 56.9794 87.5726 55.9297 88.6813 55.1546C89.3434 54.6824 90.0877 54.3333 90.909 54.1075C91.7303 53.8816 92.685 53.7687 93.7732 53.7687ZM91.2067 67.022C91.5558 67.022 91.8843 66.868 92.1922 66.56C92.5002 66.2469 92.7877 65.8286 93.0546 65.3076C93.3215 64.7815 93.5627 64.1861 93.7835 63.5213C94.0016 62.8515 94.1864 62.1611 94.3378 61.4476C94.4867 60.7367 94.6047 60.0284 94.6869 59.3226C94.7741 58.6194 94.8203 57.9777 94.8203 57.4028C94.8203 56.6175 94.7382 56.076 94.5739 55.7808C94.4148 55.4882 94.1864 55.3394 93.8861 55.3394C93.5371 55.3394 93.2009 55.4908 92.8801 55.7911C92.5644 56.0939 92.2667 56.4994 91.9869 57.0127C91.7046 57.5209 91.4557 58.1009 91.2375 58.7579C91.0168 59.415 90.8269 60.0925 90.6626 60.7906C90.5035 61.4887 90.3854 62.1816 90.3033 62.8643C90.2212 63.5419 90.1801 64.1681 90.1801 64.743C90.1801 65.613 90.2725 66.211 90.4573 66.5395C90.6472 66.8629 90.8987 67.022 91.2067 67.022Z" fill="white"/>
<path d="M113.842 55.7192H110.188L107.478 68.4285H102.57L105.281 55.7192H101.667L102.067 53.9946H114.232L113.842 55.7192Z" fill="white"/>
<path d="M129.784 67.1965C129.399 67.3813 129.006 67.5635 128.604 67.7406C128.206 67.9126 127.777 68.064 127.32 68.1923C126.869 68.3232 126.371 68.4259 125.832 68.5003C125.298 68.5747 124.713 68.6132 124.076 68.6132C122.044 68.6132 120.476 68.159 119.374 67.2479C118.279 66.3393 117.732 64.8225 117.732 62.7001C117.732 61.4758 117.919 60.3235 118.297 59.2404C118.679 58.1523 119.241 57.2052 119.98 56.3968C120.724 55.5832 121.643 54.9442 122.731 54.4771C123.825 54.0048 125.077 53.7687 126.489 53.7687C127.151 53.7687 127.762 53.8175 128.316 53.9124C128.87 54.0023 129.368 54.1177 129.815 54.2615C130.259 54.4052 130.659 54.5592 131.016 54.7234C131.37 54.8877 131.694 55.0468 131.981 55.1957L131.17 59.4252H127.074C127.087 59.2764 127.105 59.0813 127.125 58.8401C127.151 58.5937 127.171 58.3473 127.187 58.1009C127.207 57.8494 127.223 57.603 127.238 57.3618C127.251 57.1154 127.259 56.9101 127.259 56.7458C127.259 56.6226 127.251 56.484 127.238 56.3249C127.223 56.1684 127.187 56.0144 127.125 55.863C127.064 55.7141 126.966 55.5909 126.838 55.4934C126.707 55.3907 126.535 55.3394 126.325 55.3394C125.934 55.3394 125.575 55.5036 125.247 55.8322C124.918 56.1555 124.623 56.5867 124.364 57.1257C124.11 57.6595 123.884 58.2703 123.686 58.953C123.494 59.6305 123.332 60.3235 123.204 61.0267C123.073 61.7325 122.973 62.428 122.906 63.1107C122.837 63.7959 122.803 64.3939 122.803 64.9072C122.803 65.0587 122.808 65.246 122.824 65.4719C122.837 65.6977 122.88 65.9184 122.957 66.1289C123.039 66.3419 123.157 66.5267 123.317 66.6832C123.473 66.8347 123.689 66.9091 123.963 66.9091C124.436 66.9091 124.89 66.6191 125.329 66.0365C125.765 65.4488 126.153 64.4042 126.489 62.9054H130.688L129.784 67.1965Z" fill="white"/>
<path d="M144.085 68.4285H138.757L138.439 64.8148H134.24L132.629 68.4285H130.421L137.125 53.9946H142.515L144.085 68.4285ZM134.99 63.1518H138.285L137.762 56.9717L134.99 63.1518Z" fill="white"/>
<path d="M159.331 57.4234C159.331 58.3217 159.08 59.1481 158.582 59.9077C158.081 60.6623 157.257 61.2372 156.108 61.6324L158.746 68.4285H153.674L151.673 62.1354H151.426L150.081 68.4285H145.174L148.244 53.9946H154.219C154.917 53.9946 155.576 54.0356 156.2 54.1178C156.821 54.1999 157.363 54.3693 157.822 54.6208C158.286 54.8749 158.653 55.2239 158.92 55.6679C159.192 56.1145 159.331 56.6996 159.331 57.4234ZM152.792 60.6777C153.182 60.6777 153.515 60.5494 153.798 60.2876C154.077 60.0207 154.303 59.6999 154.475 59.3226C154.652 58.9402 154.778 58.5321 154.855 58.1009C154.93 57.6698 154.968 57.2951 154.968 56.9717C154.968 56.5816 154.899 56.2479 154.763 55.9656C154.624 55.6859 154.332 55.5447 153.88 55.5447H152.853L151.724 60.6777H152.792Z" fill="white"/>
<path d="M172.858 58.1728C172.904 57.9469 172.93 57.639 172.93 57.2489C172.93 57.0179 172.912 56.792 172.878 56.5713C172.85 56.3532 172.799 56.1581 172.724 55.9861C172.647 55.8091 172.534 55.673 172.386 55.5755C172.234 55.4805 172.037 55.4318 171.79 55.4318C171.516 55.4318 171.267 55.4934 171.041 55.6166C170.815 55.7346 170.612 55.8886 170.435 56.0785C170.263 56.2633 170.127 56.484 170.024 56.7356C169.927 56.9819 169.881 57.2437 169.881 57.5158C169.881 57.9136 169.983 58.219 170.189 58.4294C170.394 58.6425 170.661 58.817 170.989 58.953C171.323 59.0916 171.703 59.2045 172.129 59.2918C172.552 59.3816 172.994 59.4868 173.453 59.61C173.828 59.7127 174.205 59.8513 174.583 60.0207C174.965 60.1849 175.304 60.4082 175.599 60.6879C175.891 60.9703 176.128 61.3347 176.307 61.7864C176.492 62.233 176.584 62.7873 176.584 63.4495C176.584 64.4093 176.394 65.2126 176.02 65.862C175.642 66.5138 175.119 67.0425 174.449 67.4532C173.784 67.8638 172.994 68.1615 172.078 68.3463C171.159 68.5234 170.163 68.6132 169.09 68.6132C167.994 68.6132 167.101 68.5414 166.411 68.3976C165.726 68.2539 165.184 68.0974 164.789 67.9254C164.322 67.7355 163.978 67.5096 163.752 67.2479L164.522 64.1373H168.515C168.5 64.2682 168.487 64.453 168.474 64.6916C168.459 64.9252 168.454 65.11 168.454 65.246C168.454 65.4308 168.474 65.6233 168.515 65.8209C168.562 66.0134 168.633 66.1956 168.731 66.365C168.834 66.5292 168.972 66.6678 169.152 66.7756C169.337 66.8783 169.565 66.9296 169.84 66.9296C170.14 66.9296 170.407 66.8629 170.64 66.7243C170.879 66.5883 171.077 66.4163 171.236 66.211C171.392 66.0057 171.513 65.7798 171.595 65.5335C171.682 65.2819 171.729 65.0356 171.729 64.7943C171.729 64.4607 171.646 64.1784 171.482 63.9525C171.323 63.7267 171.107 63.5367 170.835 63.3776C170.561 63.2134 170.245 63.0773 169.891 62.967C169.534 62.8515 169.167 62.7309 168.793 62.6077C168.428 62.505 168.046 62.3792 167.643 62.2278C167.245 62.0713 166.878 61.8583 166.544 61.5913C166.208 61.3193 165.931 60.9728 165.713 60.5545C165.492 60.1387 165.384 59.6049 165.384 58.953C165.384 57.9829 165.631 57.1667 166.123 56.5097C166.616 55.8476 167.235 55.3137 167.982 54.9082C168.733 54.4976 169.555 54.2076 170.445 54.0356C171.341 53.8585 172.193 53.7687 173.002 53.7687C174.062 53.7687 174.973 53.897 175.732 54.1485C176.497 54.3949 177.08 54.6875 177.477 55.0211L176.636 58.1728H172.858Z" fill="white"/>
<path d="M184.55 62.197C185.002 62.197 185.382 62.0097 185.69 61.6324C186.003 61.2577 186.264 60.7957 186.47 60.2465C186.675 59.6999 186.821 59.1327 186.911 58.5424C186.998 57.9546 187.045 57.4388 187.045 56.9922C187.045 56.5893 186.975 56.2479 186.839 55.9656C186.701 55.6859 186.408 55.5447 185.956 55.5447H184.93L183.503 62.197H184.55ZM183.185 63.6548L182.158 68.4285H177.251L180.32 53.9946H185.566C186.434 53.9946 187.224 54.0433 187.938 54.1383C188.649 54.2281 189.262 54.4103 189.775 54.6824C190.289 54.9493 190.689 55.3394 190.977 55.8527C191.264 56.3609 191.408 57.0384 191.408 57.8854C191.408 58.6733 191.279 59.4201 191.028 60.1233C190.781 60.8291 190.381 61.4425 189.827 61.9609C189.278 62.4819 188.564 62.8951 187.681 63.2031C186.803 63.5059 185.736 63.6548 184.478 63.6548H183.185Z" fill="white"/>
<path d="M203.486 68.4285H198.158L197.84 64.8148H193.641L192.029 68.4285H189.822L196.526 53.9946H201.916L203.486 68.4285ZM194.391 63.1518H197.686L197.162 56.9717L194.391 63.1518Z" fill="white"/>
<path d="M57.3789 93.0495L60.4484 78.6156H66.5566C67.5011 78.6156 68.3249 78.7131 69.0307 78.903C69.7339 79.0878 70.3165 79.4035 70.7759 79.8475C71.2405 80.2864 71.5895 80.8613 71.8231 81.5722C72.054 82.2857 72.1721 83.1583 72.1721 84.19C72.1721 85.2936 72.0309 86.3741 71.7512 87.434C71.4689 88.4965 71.0043 89.4436 70.355 90.2777C69.7031 91.1144 68.8511 91.7842 67.7988 92.2898C66.744 92.798 65.4428 93.0495 63.8978 93.0495H57.3789ZM63.6103 91.4583C64.1082 91.4583 64.5497 91.2504 64.9346 90.832C65.3247 90.4163 65.6584 89.885 65.9407 89.2408C66.2204 88.5992 66.454 87.8857 66.6388 87.1055C66.8287 86.3253 66.9801 85.5733 67.0905 84.847C67.206 84.1156 67.2907 83.4611 67.3471 82.8862C67.401 82.3113 67.4292 81.9058 67.4292 81.6646C67.4292 81.1923 67.3317 80.8279 67.1418 80.5661C66.9493 80.2992 66.6208 80.1658 66.1563 80.1658H65.0578L62.6248 91.4583H63.6103Z" fill="white"/>
<path d="M75.4977 78.6156H85.0656L84.7063 80.3403H80.0661L79.1113 84.7341H83.0021L82.6325 86.4382H78.7418L77.7049 91.3043H82.3348L81.9961 93.0495H72.4282L75.4977 78.6156Z" fill="white"/>
<path d="M97.7017 80.3403H94.0471L91.3369 93.0495H86.4298L89.14 80.3403H85.5264L85.9267 78.6156H98.0919L97.7017 80.3403Z" fill="white"/>
<path d="M109.077 93.0495H103.749L103.43 89.4359H99.2315L97.6198 93.0495H95.4126L102.116 78.6156H107.506L109.077 93.0495ZM99.9809 87.7728H103.276L102.753 81.5927L99.9809 87.7728Z" fill="white"/>
<path d="M115.072 93.0495H110.165L113.235 78.6156H118.162L115.072 93.0495Z" fill="white"/>
<path d="M120.646 78.6156H125.573L122.894 91.14H127.514L127.123 93.0495H117.576L120.646 78.6156Z" fill="white"/>
<path d="M133.441 93.0495H128.534L131.603 78.6156H136.531L133.441 93.0495Z" fill="white"/>
<path d="M148.059 93.0495H142.741L140.215 82.6193L137.988 93.0495H135.945L139.014 78.6156H144.445L146.837 89.1895L149.085 78.6156H151.169L148.059 93.0495Z" fill="white"/>
<path d="M158.654 86.4588H164.536L163.222 93.0495H160.543L160.112 91.5917H160.019C159.622 92.0511 159.152 92.4412 158.613 92.762C158.079 93.0751 157.381 93.2343 156.519 93.2343C155.846 93.2343 155.205 93.1239 154.589 92.9058C153.978 92.6876 153.434 92.3386 152.956 91.8586C152.484 91.3813 152.099 90.755 151.807 89.98C151.519 89.2075 151.375 88.2758 151.375 87.1876C151.375 86.0045 151.555 84.8829 151.92 83.8204C152.289 82.7605 152.836 81.8263 153.562 81.0178C154.286 80.2042 155.194 79.5652 156.283 79.0981C157.376 78.6259 158.654 78.3897 160.112 78.3897C161.233 78.3897 162.209 78.5206 163.038 78.7798C163.872 79.0339 164.662 79.3214 165.409 79.6422L164.536 84.0463H160.697C160.71 83.882 160.73 83.687 160.759 83.4611C160.792 83.2301 160.815 82.9889 160.83 82.7425C160.851 82.491 160.866 82.2446 160.882 82.0033C160.895 81.7647 160.902 81.5516 160.902 81.3669C160.902 81.2437 160.895 81.1051 160.882 80.946C160.866 80.7894 160.83 80.6354 160.769 80.484C160.707 80.3351 160.615 80.2119 160.492 80.1144C160.374 80.0118 160.199 79.9604 159.968 79.9604C159.578 79.9604 159.219 80.1247 158.89 80.4532C158.567 80.7766 158.277 81.2077 158.018 81.7467C157.756 82.2805 157.53 82.8913 157.34 83.574C157.155 84.2516 156.996 84.9445 156.868 85.6477C156.737 86.3535 156.637 87.0439 156.57 87.7215C156.501 88.3939 156.467 88.979 156.467 89.4769C156.467 89.6361 156.473 89.826 156.488 90.0518C156.508 90.2777 156.56 90.501 156.642 90.7191C156.724 90.9398 156.842 91.1297 157.001 91.294C157.165 91.4531 157.396 91.5301 157.699 91.5301C158.197 91.5301 158.68 91.2581 159.147 90.7088C159.619 90.1622 159.978 89.2511 160.225 87.9781H158.315L158.654 86.4588Z" fill="white"/>
<path d="M96.5 100.75H175.178" stroke="#FF1616" stroke-width="6"/>
<path d="M21.1532 27.2483C21.0403 27.1662 20.8812 27.1918 20.7965 27.3048L20.7888 27.315C20.7888 27.315 20.6066 27.5691 20.2832 28.0105C20.1318 28.2338 19.9136 28.4853 19.6801 28.7805C19.5697 28.9319 19.4311 29.0782 19.2925 29.2399C19.1514 29.3939 19.0154 29.5684 18.8485 29.7301C18.6869 29.8969 18.5226 30.0714 18.3506 30.2511C18.1761 30.4256 17.9862 30.5976 17.7963 30.7798C17.4011 31.1314 16.9878 31.501 16.5361 31.8526C16.0844 32.2067 15.5994 32.5455 15.104 32.8869C14.5985 33.2128 14.08 33.5336 13.5411 33.8211C13.0098 34.1188 12.4554 34.3985 11.9216 34.6346C11.7882 34.6937 11.6393 34.7553 11.4981 34.8143C11.3878 34.8605 11.3159 34.8836 11.2184 34.9015C11.0336 34.9349 10.8437 34.9323 10.6666 34.8836C10.623 34.8707 10.5793 34.8605 10.5357 34.8425C10.4947 34.8271 10.4485 34.8066 10.4254 34.7963C10.4125 34.7963 10.2919 34.7219 10.2791 34.7116L10.0943 34.5987C9.8479 34.4498 9.60408 34.3036 9.36797 34.1598C8.76998 33.8082 8.10269 33.685 7.51753 33.7389C7.19672 33.7697 7.01194 33.8288 6.79122 33.8724C6.5782 33.9186 6.37802 33.9622 6.1881 34.0033C5.81082 34.0957 5.48231 34.1727 5.21283 34.2445C4.67131 34.3857 4.3659 34.4883 4.3659 34.4883C4.2735 34.5191 4.20421 34.6013 4.19651 34.7039C4.18624 34.8399 4.2889 34.9606 4.42493 34.9708C4.42493 34.9708 4.74574 34.9939 5.30523 35.0016C5.58497 35.0093 5.92118 35.0016 6.31129 34.9991C6.50377 34.9939 6.70909 34.9888 6.92724 34.9811C7.1377 34.9811 7.39947 34.9606 7.55346 34.9708C7.91534 34.9991 8.29261 35.1171 8.61599 35.3507C8.83414 35.5072 9.05742 35.6664 9.2884 35.828L9.46549 35.9512C9.57328 36.0231 9.57328 36.0257 9.69134 36.0924C9.794 36.1514 9.88126 36.1925 9.97622 36.2335C10.0686 36.272 10.1661 36.308 10.2637 36.3362C10.6589 36.4466 11.0849 36.4722 11.5007 36.3901C11.7035 36.3542 11.9242 36.2797 12.0961 36.2027C12.2399 36.1386 12.3759 36.0821 12.5273 36.0128C13.1304 35.7382 13.7002 35.4379 14.2699 35.1069C14.8371 34.7783 15.3787 34.4062 15.9022 34.0366C16.1589 33.8365 16.4207 33.6542 16.6619 33.4515C16.9006 33.2436 17.147 33.0511 17.3677 32.8381C17.822 32.4275 18.2454 32.0091 18.6176 31.5908C18.7998 31.3778 18.982 31.1724 19.1488 30.9697C19.3105 30.7618 19.4722 30.5616 19.6185 30.3666C19.7673 30.1741 19.888 29.9713 20.0163 29.7891C20.1369 29.6018 20.2627 29.4349 20.3576 29.2579C20.5501 28.9139 20.7323 28.6214 20.8555 28.3647C21.1019 27.854 21.2354 27.5614 21.2354 27.5614C21.2867 27.4536 21.2533 27.3202 21.1532 27.2483Z" fill="#FEFFFF"/>
<mask id="mask0_9_671" style="mask-type:luminance" maskUnits="userSpaceOnUse" x="0" y="14" width="210" height="24">
<path d="M0 14.4544H210V37.5938H0V14.4544Z" fill="white"/>
</mask>
<g mask="url(#mask0_9_671)">
<path d="M200.891 18.3709C203.779 18.3452 206.05 18.3375 207.6 18.3401H207.646C208.945 18.3426 210 17.2929 210 15.9943V14.806C210 14.6854 209.902 14.5853 209.779 14.5853C209.433 14.5879 208.688 14.5956 207.585 14.6033C206.011 14.6161 203.702 14.6469 200.763 14.7059C200.108 14.7213 199.423 14.7367 198.71 14.7521C198.71 14.7521 198.687 14.7521 198.648 14.7547C198.412 14.7598 198.176 14.7675 197.932 14.7726C192.319 14.9164 184.979 15.1653 176.443 15.635C171.418 15.9096 165.979 16.2561 160.225 16.6898C159.147 16.7745 158.057 16.8566 156.958 16.9439C156.951 16.9439 156.94 16.9439 156.933 16.9439C156.922 16.9439 156.909 16.9465 156.899 16.9465C153.003 17.198 149.187 17.4572 145.638 17.7292H145.635C145.25 17.8293 145.027 17.8832 145.014 17.8858L144.934 17.9038C144.801 17.914 144.667 17.9269 144.531 17.9346C143.759 17.9807 142.981 18.0244 142.198 18.0706C141.3 18.127 140.397 18.1809 139.488 18.2297C134.091 18.5248 128.537 18.7173 122.906 18.8944C119.613 18.9842 116.3 19.0792 112.966 19.1382C109.635 19.2178 106.291 19.2666 102.944 19.3179C99.5974 19.3589 96.2507 19.3974 92.9194 19.4385C89.5856 19.4616 86.2646 19.4873 82.9718 19.5104C76.3811 19.5514 69.8956 19.554 63.6179 19.5591C60.4766 19.5591 57.3942 19.5591 54.3709 19.5591C51.345 19.5617 48.3987 19.5489 45.5037 19.5822C39.6547 19.6541 34.1291 20.5678 29.2579 22.0435C24.3739 23.4884 20.1058 25.2798 16.2997 26.6888C15.3476 27.0379 14.4237 27.3843 13.5356 27.6846C13.0891 27.836 12.6579 27.9952 12.2216 28.1337C11.7853 28.2749 11.3567 28.4109 10.9358 28.5444C10.7279 28.6137 10.5252 28.6804 10.3224 28.742C10.112 28.8139 9.90665 28.8806 9.69876 28.9499C9.28813 29.0859 8.89032 29.2168 8.49765 29.3503C8.10498 29.4811 7.73284 29.6454 7.36327 29.7866C6.99626 29.938 6.63182 30.0586 6.29304 30.2306C5.94913 30.3922 5.61549 30.5488 5.29212 30.7002C5.13043 30.7747 4.97387 30.8619 4.82245 30.9492C4.66846 31.0364 4.51704 31.1211 4.36818 31.2058C4.21933 31.2879 4.07304 31.3701 3.92931 31.4522C3.78303 31.5292 3.65214 31.6319 3.51868 31.7191C3.25176 31.9065 2.98998 32.0733 2.74873 32.2555C1.7786 32.9921 1.04716 33.8057 0.598023 34.5987C0.14119 35.3892 -0.00253266 36.1489 3.36534e-05 36.6673C0.00259997 36.7982 3.34891e-05 36.9111 0.017999 37.0189V37.0215C0.0590627 37.2832 0.328543 37.4424 0.577492 37.3602L1.53736 37.042C1.53736 37.042 1.51169 36.8983 1.50656 36.8546C1.49629 36.8084 1.50142 36.7417 1.50142 36.6724C1.50656 36.385 1.58355 35.9204 1.91719 35.3507C2.24827 34.7835 2.83086 34.1265 3.68037 33.4926C3.89338 33.336 4.13207 33.1897 4.37075 33.028C4.49394 32.951 4.6043 32.8612 4.74032 32.7893C4.87121 32.7175 5.00724 32.6431 5.14326 32.5686C5.27928 32.4942 5.41787 32.4198 5.55903 32.3402C5.69762 32.2606 5.84134 32.1837 5.9979 32.1169C6.30074 31.9783 6.61385 31.8346 6.93466 31.6883C7.25034 31.5292 7.60451 31.4163 7.95099 31.2777C8.30516 31.1494 8.65677 30.9979 9.03404 30.8722C9.41132 30.7541 9.79629 30.6284 10.1915 30.5026C10.3891 30.4384 10.5893 30.3743 10.7921 30.3101C11.0025 30.246 11.213 30.1792 11.426 30.1151C11.8469 29.9842 12.2806 29.8507 12.7169 29.7173C13.1584 29.5812 13.6101 29.4196 14.0669 29.2681C14.9857 28.9679 15.9173 28.6316 16.8849 28.2903C20.7423 26.907 25.0027 25.1746 29.7712 23.8195C34.5295 22.4336 39.8523 21.6149 45.5166 21.6021C48.3756 21.5995 51.345 21.6431 54.3606 21.6713C57.3814 21.7047 60.4689 21.7381 63.6077 21.774C69.8879 21.833 76.3734 21.8972 82.9718 21.9254C86.2671 21.9383 89.5933 21.9485 92.9297 21.9614C96.2661 21.9562 99.618 21.9511 102.967 21.946C106.319 21.9306 109.671 21.9152 113.01 21.8741C116.349 21.8484 119.672 21.7868 122.973 21.7329C129.576 21.5969 136.072 21.4378 142.365 21.1119C143.153 21.0734 143.936 21.0374 144.716 20.9989C145.499 20.9476 146.277 20.8988 147.052 20.8501C148.592 20.7423 150.139 20.655 151.633 20.537C153.142 20.4266 154.63 20.3162 156.104 20.2085C157.572 20.1109 159.022 20.0134 160.454 19.9184C166.182 19.5489 171.608 19.2589 176.615 19.0381C185.849 18.6301 193.669 18.4581 199.41 18.3863L200.891 18.3709Z" fill="#FF1616"/>
</g>
<mask id="mask1_9_671" style="mask-type:luminance" maskUnits="userSpaceOnUse" x="74" y="0" width="118" height="19">
<path d="M74.8823 0H191.832V18.9021H74.8823V0Z" fill="white"/>
</mask>
<g mask="url(#mask1_9_671)">
<path d="M77.4359 18.453C77.6284 18.3041 77.9158 18.086 78.2931 17.8062C79.0554 17.2442 80.1872 16.4383 81.6629 15.4656C84.6169 13.5253 88.9748 10.9281 94.5107 8.4514C97.2722 7.21179 100.339 6.03378 103.645 5.00975C105.298 4.48876 107.02 4.04476 108.783 3.62129C110.556 3.23632 112.373 2.86674 114.242 2.6178C114.706 2.5562 115.176 2.4869 115.646 2.42788C116.118 2.38168 116.59 2.33292 117.065 2.28672C117.304 2.26105 117.54 2.23796 117.781 2.21486C118.017 2.19433 118.258 2.18406 118.5 2.16866C118.977 2.14043 119.459 2.1122 119.942 2.08397C120.424 2.0506 120.91 2.0583 121.395 2.04547C121.88 2.04034 122.365 2.01724 122.855 2.03264C123.343 2.0429 123.83 2.05574 124.323 2.06857L124.69 2.07883L124.967 2.08653C124.98 2.08653 124.983 2.08653 124.983 2.08653C124.983 2.08653 124.985 2.08653 124.99 2.08653L125.039 2.0891L125.786 2.14556C126.784 2.21486 127.79 2.28672 128.796 2.36115C129.299 2.39451 129.802 2.43301 130.308 2.46894L131.065 2.52284C131.317 2.54593 131.563 2.5793 131.814 2.60496L131.963 2.62293C134.671 2.94117 137.363 3.40314 140.014 4.03706C150.206 6.47778 156.966 9.4318 159.907 10.869C160.182 11.0025 160.354 11.2643 160.369 11.5671C160.385 11.87 160.238 12.1446 159.982 12.3037C156.558 14.4159 151.222 16.1483 147.932 17.0979C153.894 16.3459 176.476 13.5895 191.159 13.0249C191.321 13.0197 191.349 12.7913 191.195 12.7477C190.854 12.6476 190.507 12.5449 190.151 12.4423C188.955 12.1009 187.682 11.7391 186.339 11.3541C184.992 10.9897 183.578 10.5995 182.1 10.1966C180.624 9.78597 179.074 9.40357 177.477 8.98267C175.881 8.5592 174.223 8.15626 172.519 7.74049C171.664 7.53517 170.799 7.32215 169.927 7.10914C169.046 6.90638 168.158 6.70107 167.26 6.49831C165.464 6.09024 163.631 5.65137 161.752 5.2741C160.813 5.07905 159.869 4.88143 158.919 4.68125C158.442 4.58372 157.964 4.48106 157.484 4.38097C157.004 4.28087 156.519 4.19618 156.037 4.10635C155.067 3.92157 154.094 3.73935 153.114 3.55456C152.624 3.46473 152.131 3.37234 151.638 3.27995C151.148 3.18499 150.652 3.09259 150.157 3.01817C148.171 2.69222 146.166 2.36885 144.157 2.04034C142.134 1.77086 140.109 1.49881 138.079 1.22676C136.039 1.00091 133.988 0.816126 131.956 0.608241C131.699 0.585143 131.445 0.554345 131.191 0.53638L130.434 0.492749C129.928 0.461952 129.425 0.43372 128.92 0.402923C127.913 0.349027 126.91 0.289998 125.906 0.230968C121.818 0.00768512 117.812 0.295131 113.985 0.887987C112.071 1.17287 110.212 1.57837 108.4 1.99927C106.599 2.45867 104.846 2.93604 103.167 3.49553C99.8053 4.58885 96.6999 5.83359 93.9101 7.13223C88.3229 9.72694 83.9445 12.4243 80.9751 14.4364C79.4917 15.4425 78.3547 16.2766 77.5848 16.8618C77.2024 17.1518 76.9098 17.3828 76.7147 17.5393C76.5787 17.6471 75.9165 18.1424 75.511 18.4427C75.411 18.5171 75.4648 18.6788 75.5906 18.6788H76.7917C77.0227 18.6788 77.246 18.5993 77.4308 18.4581C77.4308 18.4555 77.4333 18.453 77.4359 18.453Z" fill="#FF1616"/>
</g>
<path d="M140.784 5.31773C140.615 5.2741 140.44 5.29977 140.294 5.38959C140.143 5.47942 140.04 5.62058 140.001 5.78997L137.337 17.2621C137.33 17.2981 137.34 17.3366 137.363 17.3622C137.386 17.3905 137.42 17.4059 137.453 17.4059C137.456 17.4059 137.458 17.4059 137.458 17.4059L143.592 17.1133C143.908 17.1004 144.167 16.8515 144.195 16.5358L145.096 6.55991C145.101 6.50345 145.065 6.44955 145.009 6.43672L140.784 5.31773Z" fill="#FF1616"/>
<path d="M89.6755 16.6564L94.3902 15.771C94.6827 15.7171 94.8932 15.4605 94.8932 15.1653V14.8009C94.8932 14.5237 94.7443 14.2671 94.5031 14.1285L93.0145 13.2713C92.6732 13.0736 92.2805 12.9684 91.8827 12.9684H90.9716C90.5687 12.9684 90.1683 13.0762 89.8193 13.2815L86.6368 15.1576C86.1903 15.4194 85.9131 15.9045 85.9131 16.4203V16.6282C85.9131 16.8335 85.967 17.0414 86.0671 17.2211L86.9114 18.7276C86.932 18.7661 86.9705 18.7866 87.0141 18.7866H89.7371C89.886 18.7866 90.022 18.7122 90.099 18.5839C90.176 18.453 90.1786 18.299 90.1093 18.1655L89.4985 17.0235C89.46 16.9516 89.4574 16.8669 89.4933 16.795C89.5293 16.7206 89.5934 16.6693 89.6755 16.6564Z" fill="#FF1616"/>
<path d="M38.8056 27.7154C31.3987 27.7154 24.6848 31.8064 21.2842 38.392C21.2149 38.5254 21.2586 38.6794 21.3869 38.7564C21.5152 38.836 21.6718 38.8026 21.759 38.682C25.5086 33.4027 32.3612 29.8559 38.8056 29.8559C45.6119 29.8559 52.603 33.6902 56.2012 39.398C56.2551 39.4853 56.3423 39.5315 56.4347 39.5315C56.4809 39.5315 56.5271 39.5187 56.5708 39.493C56.7068 39.4211 56.7555 39.2697 56.6914 39.1311C53.4705 32.1965 46.4511 27.7154 38.8056 27.7154Z" fill="#FF1616"/>
<path d="M175.743 27.4023C168.336 27.4023 161.622 31.4933 158.221 38.0789C158.152 38.2123 158.196 38.3638 158.324 38.4433C158.452 38.5229 158.609 38.4895 158.696 38.3663C162.446 33.0871 169.296 29.5402 175.743 29.5402C182.549 29.5402 189.537 33.3771 193.138 39.0849C193.192 39.1696 193.279 39.2158 193.372 39.2158C193.418 39.2158 193.464 39.2056 193.508 39.1825C193.644 39.108 193.693 38.9566 193.628 38.818C190.407 31.8834 183.388 27.4023 175.743 27.4023Z" fill="#FF1616"/>
<mask id="mask2_9_671" style="mask-type:luminance" maskUnits="userSpaceOnUse" x="71" y="34" width="87" height="14">
<path d="M71.5972 34.473H157.01V47.6903H71.5972V34.473Z" fill="white"/>
</mask>
<g mask="url(#mask2_9_671)">
<path d="M156.335 34.5833C156.335 34.5833 155.187 35.2634 153.257 36.5313C152.292 37.1678 151.132 37.9505 149.831 38.8796C148.532 39.8087 147.09 40.8815 145.584 42.1134C145.399 42.2648 145.211 42.4162 145.024 42.5728C144.826 42.7242 144.629 42.8782 144.429 43.0322C144.223 43.181 144.031 43.353 143.815 43.489C143.6 43.6276 143.387 43.7688 143.169 43.9099C143.061 43.9792 142.95 44.0511 142.84 44.1229C142.727 44.1897 142.606 44.2513 142.488 44.3154C142.252 44.4437 142.014 44.5721 141.77 44.703C141.531 44.8364 141.267 44.9339 141.01 45.052C140.882 45.1085 140.753 45.1675 140.625 45.2239C140.494 45.283 140.363 45.3394 140.225 45.3856C138.069 46.2043 135.6 46.6997 133.005 46.9409C130.411 47.1899 127.7 47.2566 124.944 47.29C122.188 47.3182 119.385 47.3156 116.58 47.3259C94.1539 47.3849 71.728 47.444 71.728 47.444C71.6895 47.444 71.6587 47.4696 71.6587 47.5004C71.6587 47.5312 71.6895 47.5569 71.728 47.5569C71.728 47.5569 94.1539 47.6159 116.58 47.6749C119.385 47.6801 122.188 47.698 124.949 47.6852C127.711 47.6672 130.436 47.6133 133.067 47.3747C135.695 47.1462 138.231 46.6535 140.466 45.8194C140.61 45.7706 140.746 45.7141 140.879 45.6551C141.013 45.5961 141.149 45.5371 141.282 45.478C141.547 45.3574 141.821 45.2547 142.07 45.1213C142.322 44.9878 142.571 44.8544 142.817 44.7235C142.94 44.6568 143.066 44.5926 143.186 44.5233C143.302 44.4489 143.417 44.3744 143.533 44.3026C143.761 44.1537 143.99 44.0074 144.216 43.8611C144.444 43.7174 144.631 43.5532 144.839 43.4017C145.039 43.2478 145.24 43.0963 145.437 42.9475C145.632 42.7884 145.825 42.6344 146.015 42.4778C147.516 41.2664 148.956 40.209 150.255 39.2928C151.553 38.3766 152.713 37.6041 153.676 36.9778C154.641 36.3516 155.408 35.8717 155.937 35.5509C156.465 35.2301 156.745 35.0581 156.745 35.0581H156.748C156.904 34.9632 156.94 34.7809 156.827 34.6501C156.714 34.5192 156.494 34.4884 156.335 34.5833Z" fill="#FF1616"/>
</g>
<path d="M140.277 33.5234C139.717 35.0581 138.842 36.6442 137.787 38.256C137.51 38.6538 137.228 39.0567 136.945 39.4648L136.84 39.6136L136.722 39.7625L136.483 40.0628C136.322 40.2604 136.15 40.4426 135.98 40.6351C135.274 41.3896 134.446 42.0877 133.511 42.7062C132.577 43.3273 131.535 43.8586 130.411 44.2769C129.289 44.7004 128.096 45.0058 126.851 45.1854C124.354 45.5653 121.772 45.7655 119.19 45.881C98.4558 46.4328 77.7237 46.9846 77.7237 46.9846C77.6827 46.9846 77.6519 47.0128 77.6544 47.0461C77.6544 47.0795 77.6878 47.1052 77.7263 47.1026C77.7263 47.1026 98.4686 46.6689 119.213 46.2326C121.808 46.1325 124.405 45.9451 126.936 45.5756C128.209 45.3985 129.456 45.0879 130.616 44.6568C131.782 44.2333 132.865 43.6892 133.837 43.0501C134.81 42.4162 135.677 41.695 136.417 40.9174C136.594 40.7172 136.784 40.5196 136.948 40.3194L137.189 40.0217L137.307 39.8728L137.423 39.7137C137.715 39.3005 138.003 38.8924 138.288 38.4895C139.373 36.8572 140.279 35.2455 140.864 33.6825C141.467 32.1298 141.873 30.6566 142.04 29.3323C142.217 28.008 142.248 26.8428 142.165 25.8855C142.083 24.9282 141.935 24.1788 141.801 23.6732C141.727 23.4191 141.673 23.2266 141.624 23.0906C141.575 22.9546 141.55 22.8956 141.55 22.8956L141.544 22.8827C141.478 22.7287 141.275 22.6518 141.093 22.7082C140.91 22.7621 140.816 22.9315 140.882 23.0829C140.882 23.0829 140.913 23.1497 140.952 23.2651C140.995 23.3781 141.049 23.5629 141.118 23.8015C141.249 24.2815 141.398 24.9975 141.483 25.924C141.573 26.848 141.552 27.9823 141.39 29.2707C141.239 30.5616 140.857 32.0014 140.277 33.5234Z" fill="#FF1616"/>
<mask id="mask3_9_671" style="mask-type:luminance" maskUnits="userSpaceOnUse" x="198" y="19" width="12" height="9">
<path d="M198.895 19.5591H210V27.9746H198.895V19.5591Z" fill="white"/>
</mask>
<g mask="url(#mask3_9_671)">
<path d="M209.559 25.1387C209.559 25.1387 209.297 25.1798 208.84 25.2516C208.784 25.2619 208.725 25.2696 208.661 25.2798C208.627 25.285 208.594 25.2901 208.56 25.2952C208.514 25.3055 208.468 25.3183 208.422 25.3337C208.237 25.3953 208.052 25.5185 207.916 25.7084C207.85 25.7957 207.793 25.9343 207.765 26.0087C207.739 26.0806 207.708 26.155 207.672 26.2269C207.606 26.3732 207.521 26.5169 207.421 26.6503C207.395 26.6863 207.367 26.7196 207.344 26.7453C207.305 26.7889 207.287 26.8043 207.259 26.8351C207.205 26.8839 207.144 26.9301 207.077 26.9686C206.944 27.043 206.79 27.0918 206.623 27.102C206.541 27.1072 206.453 27.1046 206.374 27.0918L206.322 27.0815L206.24 27.0635L206.094 27.0097C205.889 26.9301 205.668 26.8736 205.46 26.7761C205.255 26.6683 205.037 26.581 204.829 26.4604C204.629 26.3321 204.416 26.214 204.215 26.0755C204.02 25.924 203.818 25.7854 203.625 25.6238C203.44 25.4544 203.245 25.3004 203.066 25.1233C202.701 24.7717 202.355 24.4021 202.039 24.0146C201.88 23.8221 201.721 23.6296 201.58 23.4294C201.428 23.2344 201.287 23.0367 201.151 22.8391C200.879 22.4464 200.635 22.0512 200.417 21.6739C200.309 21.4866 200.204 21.2915 200.119 21.1221C200.055 21.0092 200.058 20.9143 200.06 20.9348C200.05 20.9502 200.053 20.9168 200.137 20.8552C200.219 20.8013 200.337 20.7449 200.461 20.7012C200.71 20.614 200.966 20.5447 201.179 20.4985C201.39 20.4472 201.564 20.4112 201.682 20.383C201.8 20.3548 201.862 20.3394 201.862 20.3394L201.872 20.3368C201.962 20.3137 202.039 20.2495 202.07 20.1571C202.121 20.0109 202.044 19.8517 201.898 19.7978C201.898 19.7978 201.826 19.7747 201.698 19.7388C201.569 19.7054 201.379 19.667 201.133 19.6413C200.884 19.6208 200.576 19.6002 200.201 19.667C200.012 19.7029 199.804 19.7542 199.57 19.8748C199.452 19.939 199.331 20.0211 199.211 20.1495C199.093 20.2701 198.982 20.4472 198.936 20.6422C198.882 20.8347 198.887 21.0349 198.923 21.1991C198.941 21.2838 198.964 21.3608 198.99 21.4327L199.011 21.4892L199.013 21.4943L199.034 21.5405L199.039 21.5507L199.047 21.5687L199.085 21.6431C199.195 21.851 199.303 22.0435 199.424 22.2488C199.662 22.6543 199.929 23.0701 200.227 23.4859C200.517 23.9068 200.848 24.3225 201.205 24.7255C201.557 25.1336 201.947 25.5237 202.355 25.8932C202.555 26.0832 202.781 26.2474 202.994 26.4219C203.212 26.5913 203.451 26.7376 203.674 26.8942C203.905 27.0405 204.151 27.1662 204.385 27.2971C204.626 27.4203 204.88 27.5152 205.121 27.6179C205.368 27.7154 205.627 27.7693 205.868 27.8412C205.935 27.8617 205.976 27.8746 206.066 27.8951L206.153 27.9105L206.274 27.9259C206.425 27.9387 206.571 27.9336 206.713 27.9156C207 27.8797 207.27 27.7693 207.495 27.6153C207.608 27.5383 207.708 27.4485 207.798 27.351C207.839 27.3048 207.891 27.2432 207.916 27.2073C207.952 27.1559 207.986 27.1097 208.016 27.061C208.14 26.8685 208.229 26.6734 208.299 26.4861C208.335 26.3911 208.363 26.2987 208.389 26.2089C208.412 26.1216 208.417 26.1037 208.44 26.0575C208.486 25.9779 208.553 25.9189 208.63 25.883C208.648 25.8727 208.668 25.865 208.686 25.8599C208.72 25.8522 208.748 25.8445 208.779 25.8368C208.84 25.8188 208.899 25.8008 208.956 25.788C209.4 25.6648 209.656 25.5955 209.656 25.5955C209.769 25.5647 209.844 25.4518 209.826 25.3337C209.805 25.208 209.687 25.1207 209.559 25.1387Z" fill="white"/>
</g>
<path d="M202.013 21.0785C201.992 21.1863 202.062 21.2864 202.167 21.3069C202.167 21.3069 202.567 21.3839 203.168 21.4301C203.468 21.4532 203.817 21.4738 204.192 21.4814L204.292 21.484C204.292 21.6431 204.294 21.8048 204.294 21.9639C204.3 22.3643 204.307 22.7647 204.32 23.1394C204.333 23.5141 204.351 23.8631 204.369 24.166C204.392 24.4637 204.413 24.7152 204.425 24.8897C204.443 25.0643 204.454 25.1643 204.454 25.1643C204.461 25.2619 204.541 25.344 204.644 25.3543C204.759 25.3671 204.862 25.2798 204.875 25.1643C204.875 25.1643 204.885 25.0643 204.903 24.8897C204.916 24.7152 204.934 24.4637 204.959 24.166C204.975 23.8631 204.995 23.5141 205.008 23.1394C205.021 22.7647 205.028 22.3643 205.034 21.9639V21.6662L205.036 21.5174V21.4789L205.034 21.4224V21.4045L205.028 21.3608C205.026 21.3249 205.018 21.2967 205.013 21.2736C204.962 21.0708 204.818 20.9014 204.633 20.8167C204.543 20.7731 204.443 20.75 204.343 20.7474C204.292 20.7474 204.243 20.75 204.192 20.75C203.817 20.7577 203.468 20.7782 203.168 20.8013C202.567 20.8475 202.167 20.9245 202.167 20.9245C202.09 20.9399 202.028 20.999 202.013 21.0785Z" fill="white"/>
</svg>
