<svg width="427" height="97" viewBox="0 0 427 97" fill="none" xmlns="http://www.w3.org/2000/svg">
<path d="M42.9273 55.2969C42.6981 55.1302 42.3752 55.1823 42.2033 55.4115L42.1877 55.4323C42.1877 55.4323 41.8179 55.9479 41.1617 56.8438C40.8544 57.2969 40.4117 57.8073 39.9377 58.4063C39.7138 58.7136 39.4325 59.0104 39.1513 59.3386C38.8648 59.6511 38.5888 60.0052 38.2502 60.3334C37.9221 60.6719 37.5888 61.0261 37.2398 61.3906C36.8856 61.7448 36.5002 62.0938 36.1148 62.4636C35.3127 63.1771 34.4742 63.9271 33.5575 64.6406C32.6408 65.3594 31.6565 66.0469 30.6513 66.7396C29.6252 67.4011 28.5731 68.0521 27.4794 68.6354C26.4013 69.2396 25.2763 69.8073 24.1929 70.2865C23.9221 70.4063 23.62 70.5313 23.3335 70.6511C23.1096 70.7448 22.9638 70.7917 22.7658 70.8281C22.3908 70.8959 22.0054 70.8906 21.646 70.7917C21.5575 70.7656 21.469 70.7448 21.3804 70.7084C21.2971 70.6771 21.2033 70.6354 21.1565 70.6146C21.1304 70.6146 20.8856 70.4636 20.8596 70.4427L20.4846 70.2136C19.9846 69.9115 19.4898 69.6146 19.0106 69.3229C17.7971 68.6094 16.4429 68.3594 15.2554 68.4688C14.6044 68.5313 14.2294 68.6511 13.7815 68.7396C13.3492 68.8334 12.9429 68.9219 12.5575 69.0052C11.7919 69.1927 11.1252 69.349 10.5783 69.4948C9.47938 69.7813 8.85959 69.9896 8.85959 69.9896C8.67209 70.0521 8.53147 70.2188 8.51584 70.4271C8.49501 70.7031 8.70334 70.9479 8.97938 70.9688C8.97938 70.9688 9.63042 71.0156 10.7658 71.0313C11.3335 71.0469 12.0158 71.0313 12.8075 71.0261C13.1981 71.0156 13.6148 71.0052 14.0575 70.9896C14.4846 70.9896 15.0158 70.9479 15.3283 70.9688C16.0627 71.0261 16.8283 71.2656 17.4846 71.7396C17.9273 72.0573 18.3804 72.3802 18.8492 72.7084L19.2085 72.9584C19.4273 73.1042 19.4273 73.1094 19.6669 73.2448C19.8752 73.3646 20.0523 73.4479 20.245 73.5313C20.4325 73.6094 20.6304 73.6823 20.8283 73.7396C21.6304 73.9636 22.495 74.0156 23.3388 73.849C23.7502 73.7761 24.1981 73.625 24.5471 73.4688C24.8388 73.3386 25.1148 73.224 25.4221 73.0834C26.646 72.5261 27.8023 71.9167 28.9585 71.2448C30.1096 70.5781 31.2085 69.8229 32.271 69.0729C32.7919 68.6667 33.3231 68.2969 33.8127 67.8854C34.2971 67.4636 34.7971 67.0729 35.245 66.6406C36.1669 65.8073 37.0263 64.9584 37.7815 64.1094C38.1513 63.6771 38.5211 63.2604 38.8596 62.849C39.1877 62.4271 39.5158 62.0209 39.8127 61.625C40.1148 61.2344 40.3596 60.8229 40.62 60.4531C40.8648 60.0729 41.12 59.7344 41.3127 59.375C41.7033 58.6771 42.0731 58.0834 42.3231 57.5625C42.8231 56.5261 43.094 55.9323 43.094 55.9323C43.1981 55.7136 43.1304 55.4427 42.9273 55.2969Z" fill="#FEFFFF"/>
<mask id="mask0_168_175" style="mask-type:luminance" maskUnits="userSpaceOnUse" x="0" y="29" width="427" height="48">
<path d="M0 29.3333H426.167V76.2916H0V29.3333Z" fill="white"/>
</mask>
<g mask="url(#mask0_168_175)">
<path d="M407.682 37.2812C413.542 37.2291 418.151 37.2135 421.297 37.2187H421.391C424.026 37.2239 426.167 35.0937 426.167 32.4583V30.0469C426.167 29.8021 425.969 29.5989 425.719 29.5989C425.016 29.6041 423.505 29.6198 421.266 29.6354C418.073 29.6614 413.385 29.7239 407.422 29.8437C406.094 29.875 404.703 29.9062 403.255 29.9375C403.255 29.9375 403.208 29.9375 403.13 29.9427C402.651 29.9531 402.172 29.9687 401.677 29.9791C390.287 30.2708 375.391 30.776 358.068 31.7291C347.87 32.2864 336.833 32.9896 325.156 33.8698C322.969 34.0416 320.755 34.2083 318.526 34.3854C318.51 34.3854 318.49 34.3854 318.474 34.3854C318.453 34.3854 318.427 34.3906 318.406 34.3906C310.5 34.901 302.755 35.4271 295.552 35.9791H295.547C294.766 36.1823 294.313 36.2916 294.287 36.2969L294.125 36.3333C293.854 36.3541 293.583 36.3802 293.307 36.3958C291.74 36.4896 290.162 36.5781 288.573 36.6719C286.75 36.7864 284.917 36.8958 283.073 36.9948C272.12 37.5937 260.849 37.9844 249.422 38.3437C242.74 38.526 236.016 38.7187 229.25 38.8385C222.49 39 215.703 39.0989 208.912 39.2031C202.12 39.2864 195.328 39.3646 188.568 39.4479C181.802 39.4948 175.063 39.5469 168.38 39.5937C155.005 39.6771 141.844 39.6823 129.104 39.6927C122.729 39.6927 116.474 39.6927 110.339 39.6927C104.198 39.6979 98.2188 39.6719 92.3438 39.7396C80.474 39.8854 69.2605 41.7396 59.3751 44.7344C49.4636 47.6666 40.8022 51.3021 33.0782 54.1614C31.1459 54.8698 29.2709 55.5729 27.4688 56.1823C26.5626 56.4896 25.6876 56.8125 24.8022 57.0937C23.9167 57.3802 23.0469 57.6562 22.1928 57.9271C21.7709 58.0677 21.3594 58.2031 20.948 58.3281C20.5209 58.4739 20.1042 58.6094 19.6824 58.75C18.849 59.026 18.0417 59.2916 17.2449 59.5625C16.448 59.8281 15.6928 60.1614 14.9428 60.4479C14.198 60.7552 13.4584 61 12.7709 61.3489C12.073 61.6771 11.3959 61.9948 10.7397 62.3021C10.4115 62.4531 10.0938 62.6302 9.78653 62.8073C9.47403 62.9844 9.16674 63.1562 8.86465 63.3281C8.56257 63.4948 8.26569 63.6614 7.97403 63.8281C7.67715 63.9844 7.41153 64.1927 7.14069 64.3698C6.59903 64.75 6.06778 65.0885 5.57819 65.4583C3.60944 66.9531 2.12507 68.6041 1.21361 70.2135C0.286527 71.8177 -0.0051397 73.3594 6.82952e-05 74.4114C0.0052763 74.6771 6.79617e-05 74.9062 0.0365266 75.125V75.1302C0.11986 75.6614 0.666735 75.9844 1.17194 75.8177L3.11986 75.1719C3.11986 75.1719 3.06778 74.8802 3.05736 74.7916C3.03653 74.6979 3.04694 74.5625 3.04694 74.4219C3.05736 73.8385 3.21361 72.8958 3.89069 71.7396C4.56257 70.5885 5.74486 69.2552 7.46882 67.9687C7.90111 67.651 8.38548 67.3541 8.86986 67.026C9.11986 66.8698 9.34382 66.6875 9.61986 66.5416C9.88548 66.3958 10.1615 66.2448 10.4376 66.0937C10.7136 65.9427 10.9949 65.7916 11.2813 65.6302C11.5626 65.4687 11.8542 65.3125 12.1719 65.1771C12.7865 64.8958 13.4219 64.6041 14.073 64.3073C14.7136 63.9844 15.4324 63.7552 16.1355 63.4739C16.8542 63.2135 17.5678 62.9062 18.3334 62.651C19.099 62.4114 19.8803 62.1562 20.6824 61.901C21.0834 61.7708 21.4897 61.6406 21.9011 61.5104C22.3282 61.3802 22.7553 61.2448 23.1876 61.1146C24.0417 60.8489 24.9219 60.5781 25.8074 60.3073C26.7032 60.0312 27.6199 59.7031 28.5469 59.3958C30.4115 58.7864 32.3022 58.1041 34.2657 57.4114C42.0938 54.6041 50.7397 51.0885 60.4167 48.3385C70.073 45.526 80.8751 43.8646 92.3699 43.8385C98.172 43.8333 104.198 43.9219 110.318 43.9791C116.448 44.0469 122.714 44.1146 129.083 44.1875C141.828 44.3073 154.99 44.4375 168.38 44.4948C175.068 44.5208 181.818 44.5416 188.589 44.5677C195.359 44.5573 202.162 44.5469 208.958 44.5364C215.76 44.5052 222.563 44.4739 229.339 44.3906C236.115 44.3385 242.859 44.2135 249.557 44.1041C262.958 43.8281 276.141 43.5052 288.912 42.8437C290.51 42.7656 292.099 42.6927 293.682 42.6146C295.271 42.5104 296.849 42.4114 298.422 42.3125C301.547 42.0937 304.688 41.9166 307.719 41.6771C310.781 41.4531 313.802 41.2291 316.792 41.0104C319.771 40.8125 322.714 40.6146 325.62 40.4219C337.245 39.6719 348.255 39.0833 358.417 38.6354C377.156 37.8073 393.026 37.4583 404.677 37.3125L407.682 37.2812Z" fill="#FF1616"/>
</g>
<mask id="mask1_168_175" style="mask-type:luminance" maskUnits="userSpaceOnUse" x="151" y="0" width="239" height="39">
<path d="M151.964 0H389.297V38.3594H151.964V0Z" fill="white"/>
</mask>
<g mask="url(#mask1_168_175)">
<path d="M157.146 37.4479C157.537 37.1458 158.12 36.7031 158.886 36.1354C160.432 34.9948 162.729 33.3594 165.724 31.3854C171.719 27.4479 180.563 22.1771 191.797 17.151C197.401 14.6354 203.625 12.2448 210.333 10.1666C213.688 9.10936 217.182 8.20832 220.761 7.34894C224.359 6.56769 228.047 5.81769 231.839 5.31248C232.781 5.18748 233.734 5.04686 234.688 4.92707C235.646 4.83332 236.604 4.73436 237.568 4.64061C238.052 4.58852 238.531 4.54165 239.021 4.49477C239.5 4.45311 239.99 4.43227 240.479 4.40102C241.448 4.34373 242.427 4.28644 243.406 4.22915C244.386 4.16144 245.37 4.17707 246.354 4.15102C247.339 4.14061 248.323 4.09373 249.318 4.12498C250.307 4.14582 251.297 4.17186 252.297 4.1979L253.042 4.21873L253.604 4.23436C253.63 4.23436 253.636 4.23436 253.636 4.23436C253.636 4.23436 253.641 4.23436 253.651 4.23436L253.75 4.23957L255.266 4.35415C257.292 4.49477 259.333 4.64061 261.375 4.79165C262.396 4.85936 263.417 4.93748 264.443 5.0104L265.979 5.11977C266.49 5.16665 266.99 5.23436 267.5 5.28644L267.802 5.3229C273.297 5.96873 278.761 6.90623 284.141 8.19269C304.823 13.1458 318.542 19.1406 324.511 22.0573C325.068 22.3281 325.417 22.8594 325.448 23.4739C325.479 24.0885 325.182 24.6458 324.662 24.9687C317.714 29.2552 306.886 32.7708 300.208 34.6979C312.307 33.1719 358.136 27.5781 387.932 26.4323C388.261 26.4219 388.318 25.9583 388.005 25.8698C387.313 25.6667 386.609 25.4583 385.886 25.25C383.458 24.5573 380.875 23.8229 378.151 23.0416C375.417 22.3021 372.547 21.5104 369.547 20.6927C366.552 19.8594 363.406 19.0833 360.167 18.2291C356.927 17.3698 353.563 16.5521 350.104 15.7083C348.37 15.2916 346.615 14.8594 344.844 14.4271C343.057 14.0156 341.255 13.5989 339.432 13.1875C335.787 12.3594 332.068 11.4687 328.255 10.7031C326.349 10.3073 324.432 9.90623 322.505 9.49998C321.537 9.30206 320.568 9.09373 319.594 8.89061C318.62 8.68748 317.636 8.51561 316.656 8.33332C314.688 7.95832 312.714 7.58852 310.724 7.21352C309.729 7.03123 308.729 6.84373 307.729 6.65623C306.734 6.46352 305.729 6.27602 304.724 6.12498C300.693 5.46352 296.625 4.80727 292.547 4.14061C288.443 3.59373 284.333 3.04165 280.214 2.48957C276.073 2.03123 271.912 1.65623 267.787 1.23436C267.266 1.18748 266.75 1.12498 266.234 1.08852L264.698 0.999982C263.672 0.937482 262.651 0.88019 261.625 0.81769C259.583 0.708316 257.547 0.588524 255.511 0.468732C247.214 0.0156081 239.083 0.598942 231.318 1.80207C227.432 2.38019 223.662 3.20311 219.984 4.05727C216.328 4.98956 212.771 5.95832 209.365 7.09373C202.542 9.31248 196.24 11.8385 190.578 14.4739C179.24 19.7396 170.354 25.2135 164.328 29.2969C161.318 31.3385 159.011 33.0312 157.448 34.2187C156.672 34.8073 156.078 35.276 155.682 35.5937C155.406 35.8125 154.063 36.8177 153.24 37.4271C153.037 37.5781 153.146 37.9062 153.401 37.9062H155.839C156.307 37.9062 156.761 37.7448 157.136 37.4583C157.136 37.4531 157.141 37.4479 157.146 37.4479Z" fill="#FF1616"/>
</g>
<path d="M285.703 10.7917C285.36 10.7031 285.005 10.7552 284.708 10.9375C284.401 11.1198 284.193 11.4062 284.115 11.75L278.708 35.0312C278.693 35.1042 278.714 35.1823 278.761 35.2344C278.807 35.2917 278.875 35.3229 278.943 35.3229C278.948 35.3229 278.953 35.3229 278.953 35.3229L291.401 34.7292C292.042 34.7031 292.568 34.1979 292.625 33.5573L294.453 13.3125C294.464 13.1979 294.391 13.0885 294.276 13.0625L285.703 10.7917Z" fill="#FF1616"/>
<path d="M181.985 33.8021L191.552 32.0052C192.146 31.8958 192.573 31.375 192.573 30.776V30.0364C192.573 29.4739 192.271 28.9531 191.781 28.6719L188.761 26.9323C188.068 26.5312 187.271 26.3177 186.464 26.3177H184.615C183.797 26.3177 182.985 26.5364 182.276 26.9531L175.818 30.7604C174.912 31.2916 174.349 32.276 174.349 33.3229V33.7448C174.349 34.1614 174.458 34.5833 174.662 34.9479L176.375 38.0052C176.417 38.0833 176.495 38.125 176.583 38.125H182.11C182.412 38.125 182.688 37.9739 182.844 37.7135C183 37.4479 183.005 37.1354 182.865 36.8646L181.625 34.5469C181.547 34.401 181.542 34.2291 181.615 34.0833C181.688 33.9323 181.818 33.8281 181.985 33.8021Z" fill="#FF1616"/>
<path d="M78.75 56.2448C63.7187 56.2448 50.0937 64.5469 43.1927 77.9115C43.0521 78.1823 43.1406 78.4948 43.401 78.6511C43.6614 78.8125 43.9792 78.7448 44.1562 78.5C51.7656 67.7865 65.6719 60.5886 78.75 60.5886C92.5625 60.5886 106.75 68.3698 114.052 79.9531C114.161 80.1302 114.339 80.224 114.526 80.224C114.62 80.224 114.714 80.1979 114.802 80.1459C115.078 80 115.177 79.6927 115.047 79.4115C108.51 65.3386 94.2656 56.2448 78.75 56.2448Z" fill="#FF1616"/>
<path d="M356.646 55.6094C341.615 55.6094 327.99 63.9115 321.089 77.276C320.948 77.5469 321.037 77.8542 321.297 78.0156C321.557 78.1771 321.875 78.1094 322.052 77.8594C329.662 67.1458 343.563 59.9479 356.646 59.9479C370.458 59.9479 384.641 67.7344 391.948 79.3177C392.057 79.4896 392.235 79.5833 392.422 79.5833C392.516 79.5833 392.61 79.5625 392.698 79.5156C392.974 79.3646 393.073 79.0573 392.943 78.776C386.406 64.7031 372.162 55.6094 356.646 55.6094Z" fill="#FF1616"/>
<mask id="mask2_168_175" style="mask-type:luminance" maskUnits="userSpaceOnUse" x="145" y="69" width="174" height="28">
<path d="M145.297 69.9583H318.63V96.7812H145.297V69.9583Z" fill="white"/>
</mask>
<g mask="url(#mask2_168_175)">
<path d="M317.26 70.1823C317.26 70.1823 314.932 71.5625 311.016 74.1354C309.057 75.4271 306.703 77.0156 304.062 78.9011C301.427 80.7865 298.5 82.9636 295.443 85.4636C295.068 85.7708 294.688 86.0781 294.307 86.3958C293.906 86.7031 293.505 87.0156 293.099 87.3281C292.682 87.6302 292.292 87.9792 291.854 88.2552C291.417 88.5365 290.984 88.8229 290.542 89.1094C290.323 89.25 290.099 89.3958 289.875 89.5417C289.646 89.6771 289.401 89.8021 289.161 89.9323C288.682 90.1927 288.198 90.4531 287.703 90.7188C287.219 90.9896 286.682 91.1875 286.161 91.4271C285.901 91.5417 285.641 91.6615 285.38 91.7761C285.115 91.8958 284.849 92.0104 284.568 92.1042C280.193 93.7656 275.182 94.7708 269.917 95.2604C264.651 95.7656 259.151 95.9011 253.557 95.9688C247.964 96.0261 242.276 96.0208 236.583 96.0417C191.073 96.1615 145.562 96.2813 145.562 96.2813C145.484 96.2813 145.422 96.3333 145.422 96.3958C145.422 96.4583 145.484 96.5104 145.562 96.5104C145.562 96.5104 191.073 96.6302 236.583 96.75C242.276 96.7604 247.964 96.7969 253.568 96.7708C259.172 96.7344 264.703 96.625 270.042 96.1406C275.375 95.6771 280.521 94.6771 285.057 92.9844C285.349 92.8854 285.625 92.7708 285.896 92.6511C286.167 92.5313 286.443 92.4115 286.714 92.2917C287.25 92.0469 287.807 91.8386 288.312 91.5677C288.823 91.2969 289.328 91.0261 289.828 90.7604C290.078 90.625 290.333 90.4948 290.578 90.3542C290.812 90.2031 291.047 90.0521 291.281 89.9063C291.745 89.6042 292.208 89.3073 292.667 89.0104C293.13 88.7188 293.51 88.3854 293.932 88.0781C294.339 87.7656 294.745 87.4583 295.146 87.1563C295.542 86.8333 295.932 86.5208 296.318 86.2031C299.365 83.7448 302.286 81.599 304.922 79.7396C307.557 77.8802 309.911 76.3125 311.865 75.0417C313.823 73.7708 315.38 72.7969 316.453 72.1458C317.526 71.4948 318.094 71.1458 318.094 71.1458H318.099C318.417 70.9531 318.49 70.5833 318.26 70.3177C318.031 70.0521 317.583 69.9896 317.26 70.1823Z" fill="#FF1616"/>
</g>
<path d="M284.672 68.0313C283.537 71.1459 281.761 74.3646 279.62 77.6354C279.057 78.4427 278.485 79.2604 277.912 80.0886L277.698 80.3907L277.458 80.6927L276.974 81.3021C276.646 81.7032 276.297 82.0729 275.953 82.4636C274.521 83.9948 272.839 85.4115 270.943 86.6667C269.047 87.9271 266.932 89.0052 264.651 89.8542C262.375 90.7136 259.953 91.3334 257.427 91.6979C252.36 92.4688 247.12 92.875 241.88 93.1094C199.802 94.2292 157.729 95.349 157.729 95.349C157.646 95.349 157.583 95.4063 157.589 95.474C157.589 95.5417 157.656 95.5938 157.735 95.5886C157.735 95.5886 199.828 94.7084 241.927 93.8229C247.193 93.6198 252.464 93.2396 257.599 92.4896C260.182 92.1302 262.714 91.5 265.068 90.625C267.432 89.7657 269.63 88.6615 271.604 87.3646C273.578 86.0782 275.339 84.6146 276.839 83.0365C277.198 82.6302 277.583 82.2292 277.917 81.8229L278.406 81.2188L278.646 80.9167L278.88 80.5938C279.474 79.7552 280.057 78.9271 280.636 78.1094C282.839 74.7969 284.677 71.5261 285.865 68.3542C287.089 65.2032 287.912 62.2136 288.25 59.5261C288.61 56.8386 288.672 54.474 288.505 52.5313C288.339 50.5886 288.037 49.0677 287.766 48.0417C287.615 47.5261 287.505 47.1354 287.406 46.8594C287.307 46.5834 287.255 46.4636 287.255 46.4636L287.245 46.4375C287.11 46.125 286.698 45.9688 286.328 46.0834C285.958 46.1927 285.766 46.5365 285.901 46.8438C285.901 46.8438 285.964 46.9792 286.042 47.2136C286.13 47.4427 286.24 47.8177 286.38 48.3021C286.646 49.2761 286.948 50.7292 287.12 52.6094C287.302 54.4844 287.261 56.7865 286.932 59.4011C286.625 62.0209 285.849 64.9427 284.672 68.0313Z" fill="#FF1616"/>
<mask id="mask3_168_175" style="mask-type:luminance" maskUnits="userSpaceOnUse" x="403" y="39" width="24" height="18">
<path d="M403.63 39.6927H426.167V56.7708H403.63V39.6927Z" fill="white"/>
</mask>
<g mask="url(#mask3_168_175)">
<path d="M425.271 51.0156C425.271 51.0156 424.739 51.099 423.812 51.2448C423.698 51.2656 423.578 51.2813 423.448 51.3021C423.38 51.3125 423.312 51.3229 423.245 51.3334C423.151 51.3542 423.057 51.3802 422.963 51.4115C422.588 51.5365 422.213 51.7865 421.937 52.1719C421.802 52.349 421.687 52.6302 421.63 52.7813C421.578 52.9271 421.515 53.0781 421.443 53.224C421.307 53.5209 421.135 53.8125 420.932 54.0834C420.88 54.1563 420.823 54.224 420.776 54.2761C420.698 54.3646 420.661 54.3959 420.604 54.4584C420.495 54.5573 420.37 54.6511 420.234 54.7292C419.963 54.8802 419.651 54.9792 419.312 55C419.146 55.0104 418.969 55.0052 418.807 54.9792L418.703 54.9584L418.536 54.9219L418.239 54.8125C417.823 54.6511 417.375 54.5365 416.953 54.3386C416.536 54.1198 416.094 53.9427 415.672 53.6979C415.265 53.4375 414.833 53.1979 414.427 52.9167C414.031 52.6094 413.62 52.3281 413.229 52C412.854 51.6563 412.458 51.3438 412.094 50.9844C411.354 50.2709 410.651 49.5209 410.01 48.7344C409.687 48.3438 409.364 47.9531 409.078 47.5469C408.771 47.1511 408.484 46.75 408.208 46.349C407.656 45.5521 407.161 44.75 406.719 43.9844C406.5 43.6042 406.286 43.2084 406.114 42.8646C405.984 42.6354 405.989 42.4427 405.995 42.4844C405.974 42.5156 405.979 42.4479 406.151 42.3229C406.318 42.2136 406.557 42.099 406.807 42.0104C407.312 41.8334 407.833 41.6927 408.265 41.599C408.693 41.4948 409.047 41.4219 409.286 41.3646C409.526 41.3073 409.651 41.2761 409.651 41.2761L409.672 41.2709C409.854 41.224 410.01 41.0938 410.073 40.9063C410.177 40.6094 410.021 40.2865 409.724 40.1771C409.724 40.1771 409.578 40.1302 409.318 40.0573C409.057 39.9896 408.672 39.9115 408.172 39.8594C407.666 39.8177 407.041 39.7761 406.281 39.9115C405.896 39.9844 405.474 40.0886 405 40.3334C404.76 40.4636 404.515 40.6302 404.271 40.8906C404.031 41.1354 403.807 41.4948 403.713 41.8906C403.604 42.2813 403.614 42.6875 403.687 43.0209C403.724 43.1927 403.771 43.349 403.823 43.4948L403.864 43.6094L403.87 43.6198L403.911 43.7136L403.922 43.7344L403.937 43.7709L404.015 43.9219C404.239 44.3438 404.458 44.7344 404.703 45.1511C405.187 45.974 405.729 46.8177 406.333 47.6615C406.922 48.5156 407.594 49.3594 408.318 50.1771C409.031 51.0052 409.823 51.7969 410.651 52.5469C411.057 52.9323 411.515 53.2656 411.948 53.6198C412.39 53.9636 412.875 54.2604 413.328 54.5781C413.797 54.875 414.297 55.1302 414.771 55.3959C415.26 55.6459 415.776 55.8386 416.265 56.0469C416.765 56.2448 417.291 56.3542 417.781 56.5C417.916 56.5417 418 56.5677 418.182 56.6094L418.359 56.6406L418.604 56.6719C418.911 56.6979 419.208 56.6875 419.495 56.6511C420.078 56.5781 420.625 56.3542 421.083 56.0417C421.312 55.8854 421.515 55.7031 421.698 55.5052C421.781 55.4115 421.885 55.2865 421.937 55.2136C422.01 55.1094 422.078 55.0156 422.14 54.9167C422.39 54.5261 422.573 54.1302 422.713 53.75C422.786 53.5573 422.844 53.3698 422.896 53.1875C422.943 53.0104 422.953 52.974 423 52.8802C423.094 52.7188 423.229 52.599 423.385 52.5261C423.422 52.5052 423.463 52.4896 423.5 52.4792C423.568 52.4636 423.625 52.4479 423.687 52.4323C423.812 52.3959 423.932 52.3594 424.047 52.3334C424.948 52.0834 425.469 51.9427 425.469 51.9427C425.698 51.8802 425.849 51.6511 425.812 51.4115C425.771 51.1563 425.531 50.9792 425.271 51.0156Z" fill="white"/>
</g>
<path d="M409.958 42.7761C409.917 42.9948 410.057 43.1979 410.271 43.2396C410.271 43.2396 411.083 43.3959 412.302 43.4896C412.911 43.5365 413.62 43.5781 414.38 43.5938L414.583 43.599C414.583 43.9219 414.588 44.25 414.588 44.5729C414.599 45.3854 414.614 46.1979 414.641 46.9584C414.667 47.7188 414.703 48.4271 414.739 49.0417C414.786 49.6459 414.828 50.1563 414.854 50.5104C414.891 50.8646 414.911 51.0677 414.911 51.0677C414.927 51.2656 415.088 51.4323 415.297 51.4531C415.531 51.4792 415.739 51.3021 415.766 51.0677C415.766 51.0677 415.786 50.8646 415.823 50.5104C415.849 50.1563 415.885 49.6459 415.937 49.0417C415.969 48.4271 416.01 47.7188 416.036 46.9584C416.062 46.1979 416.078 45.3854 416.088 44.5729V43.9688L416.094 43.6667V43.5886L416.088 43.474V43.4375L416.078 43.349C416.073 43.2761 416.057 43.2188 416.047 43.1719C415.943 42.7604 415.651 42.4167 415.276 42.2448C415.094 42.1563 414.891 42.1094 414.687 42.1042C414.583 42.1042 414.484 42.1094 414.38 42.1094C413.62 42.125 412.911 42.1667 412.302 42.2136C411.083 42.3073 410.271 42.4636 410.271 42.4636C410.114 42.4948 409.989 42.6146 409.958 42.7761Z" fill="white"/>
</svg>
