<svg width="42" height="43" viewBox="0 0 42 43" fill="none" xmlns="http://www.w3.org/2000/svg">
<path d="M41.9029 21.6875C41.9018 16.1846 39.6941 10.9074 35.7651 7.01625C31.8362 3.12511 26.5078 0.9386 20.9515 0.9375V5.0875C24.2662 5.08825 27.5063 6.06199 30.2625 7.88571C33.0187 9.70944 35.1672 12.3013 36.4367 15.3338C37.2792 17.3482 37.7127 19.5072 37.7126 21.6875H41.9029ZM0 17.5375V7.1625C0 6.61218 0.220738 6.08439 0.613654 5.69525C1.00657 5.30612 1.53948 5.0875 2.09515 5.0875H12.5709C13.1265 5.0875 13.6594 5.30612 14.0524 5.69525C14.4453 6.08439 14.666 6.61218 14.666 7.1625V15.4625C14.666 16.0128 14.4453 16.5406 14.0524 16.9297C13.6594 17.3189 13.1265 17.5375 12.5709 17.5375H8.38058C8.38058 21.9401 10.1465 26.1624 13.2898 29.2755C16.4331 32.3886 20.6964 34.1375 25.1417 34.1375V29.9875C25.1417 29.4372 25.3625 28.9094 25.7554 28.5203C26.1483 28.1311 26.6812 27.9125 27.2369 27.9125H35.6175C36.1731 27.9125 36.7061 28.1311 37.099 28.5203C37.4919 28.9094 37.7126 29.4372 37.7126 29.9875V40.3625C37.7126 40.9128 37.4919 41.4406 37.099 41.8298C36.7061 42.2189 36.1731 42.4375 35.6175 42.4375H25.1417C11.2572 42.4375 0 31.2885 0 17.5375Z" fill="#6E0C0D"/>
<path d="M32.5646 16.9236C33.197 18.4338 33.5224 20.0528 33.522 21.6878H29.7508C29.7511 20.5432 29.5236 19.4099 29.0815 18.3524C28.6394 17.2949 27.9912 16.3341 27.1741 15.5247C26.3569 14.7154 25.3867 14.0735 24.319 13.6356C23.2512 13.1978 22.1068 12.9725 20.9512 12.9728V9.23779C23.4374 9.23792 25.8677 9.96819 27.9349 11.3362C30.002 12.7043 31.6132 14.6487 32.5646 16.9236Z" fill="#6E0C0D"/>
</svg>
