<svg width="30" height="30" viewBox="0 0 30 30" fill="none" xmlns="http://www.w3.org/2000/svg">
<path d="M30 15C29.9992 11.022 28.4186 7.20715 25.6057 4.39428C22.7929 1.5814 18.978 0.000795362 15 0V3C17.3731 3.00054 19.6929 3.70445 21.6661 5.02281C23.6394 6.34116 25.1776 8.2148 26.0865 10.407C26.6897 11.8632 27.0001 13.4239 27 15H30ZM0 12V4.5C0 4.10218 0.158035 3.72064 0.43934 3.43934C0.720644 3.15804 1.10218 3 1.5 3H9C9.39782 3 9.77936 3.15804 10.0607 3.43934C10.342 3.72064 10.5 4.10218 10.5 4.5V10.5C10.5 10.8978 10.342 11.2794 10.0607 11.5607C9.77936 11.842 9.39782 12 9 12H6C6 15.1826 7.26428 18.2348 9.51472 20.4853C11.7652 22.7357 14.8174 24 18 24V21C18 20.6022 18.158 20.2206 18.4393 19.9393C18.7206 19.658 19.1022 19.5 19.5 19.5H25.5C25.8978 19.5 26.2794 19.658 26.5607 19.9393C26.842 20.2206 27 20.6022 27 21V28.5C27 28.8978 26.842 29.2794 26.5607 29.5607C26.2794 29.842 25.8978 30 25.5 30H18C8.0595 30 0 21.9405 0 12Z" fill="#EAE2E2"/>
<path d="M23.3145 11.5559C23.7673 12.6476 24.0002 13.818 24 14.9999H21.3C21.3002 14.1725 21.1374 13.3532 20.8208 12.5887C20.5043 11.8243 20.0403 11.1297 19.4552 10.5447C18.8702 9.95962 18.1756 9.49557 17.4111 9.17904C16.6467 8.8625 15.8274 8.69968 15 8.69988V5.99988C16.78 5.99997 18.52 6.52787 19.9999 7.51683C21.4799 8.50579 22.6334 9.91138 23.3145 11.5559Z" fill="#EAE2E2"/>
</svg>
