<svg width="77" height="86" viewBox="0 0 77 86" fill="none" xmlns="http://www.w3.org/2000/svg">
<path d="M5.04267 13.2111L4.85343 8.71504C2.50105 8.81405 0.622656 10.7097 0.545113 13.0629L5.04267 13.2111ZM37.7244 5L39.2244 0.757359C38.1789 0.387704 37.0337 0.417135 36.0085 0.840004L37.7244 5ZM70.6957 17.7111C73.181 17.7111 75.1957 15.6963 75.1957 13.2111C75.1957 10.7258 73.181 8.71106 70.6957 8.71106V17.7111ZM37.7244 81L36.8571 85.4156L37.5904 85.5596L38.3308 85.459L37.7244 81ZM71.9927 24.372L76.4924 24.3203C76.4729 22.6196 75.4961 21.0751 73.9678 20.3286C72.4394 19.5821 70.6208 19.7611 69.2673 20.7912L71.9927 24.372ZM39.8104 48.8669L36.9067 52.3048L39.6639 54.6335L42.5358 52.4477L39.8104 48.8669ZM29.3047 34.1035C27.406 32.4998 24.5668 32.739 22.9632 34.6377C21.3595 36.5364 21.5987 39.3756 23.4974 40.9792L29.3047 34.1035ZM5.23191 17.7071C9.9734 17.5075 17.4834 15.7764 24.0122 14.0088C30.6179 12.2205 36.9299 10.1955 39.4404 9.16L36.0085 0.840004C34.0493 1.64817 28.1922 3.55318 21.6603 5.3216C15.0516 7.11081 8.45552 8.56342 4.85343 8.71504L5.23191 17.7071ZM36.2244 9.24264C38.3424 9.99144 43.9144 12.1134 50.3154 14.0123C56.6404 15.8887 64.2883 17.7111 70.6957 17.7111V8.71106C65.6604 8.71106 59.0576 7.21807 52.8751 5.38398C46.7686 3.57244 41.5763 1.58888 39.2244 0.757359L36.2244 9.24264ZM0.545113 13.0629C0.233844 22.5089 1.46739 38.6493 6.44013 53.2813C11.3463 67.7174 20.4567 82.1943 36.8571 85.4156L38.5918 76.5844C27.1008 74.3273 19.5723 63.9526 14.9615 50.3853C10.4172 37.0139 9.25553 21.999 9.54023 13.3593L0.545113 13.0629ZM38.3308 85.459C52.4091 83.5446 76.9928 67.8852 76.4924 24.3203L67.493 24.4237C67.9462 63.8781 46.2826 75.2948 37.1181 76.541L38.3308 85.459ZM69.2673 20.7912L37.0849 45.2861L42.5358 52.4477L74.7182 27.9528L69.2673 20.7912ZM42.714 45.4291L29.3047 34.1035L23.4974 40.9792L36.9067 52.3048L42.714 45.4291Z" fill="#6E0C0D"/>
</svg>
