<svg width="133" height="90" viewBox="0 0 133 90" fill="none" xmlns="http://www.w3.org/2000/svg">
<path d="M27.0429 35.1558L33.1144 53.842H52.7622L36.8668 65.3907L42.9383 84.0768L27.0429 72.5281L11.1475 84.0768L17.219 65.3907L1.32357 53.842H20.9714L27.0429 35.1558Z" fill="#6E0C0D"/>
<path d="M68.058 0L74.0283 18.6862H93.3487L77.7182 30.2349L83.6885 48.9211L68.058 37.3724L52.4275 48.9211L58.3978 30.2349L42.7673 18.6862H62.0877L68.058 0Z" fill="#6E0C0D"/>
<path d="M105.468 35.1558L111.539 53.842H131.187L115.292 65.3907L121.363 84.0768L105.468 72.5281L89.5723 84.0768L95.6438 65.3907L79.7484 53.842H99.3962L105.468 35.1558Z" fill="#6E0C0D"/>
</svg>
