<svg width="378" height="140" viewBox="0 0 378 140" fill="none" xmlns="http://www.w3.org/2000/svg">
<g clip-path="url(#clip0_341_3)">
<path d="M119.43 69.47C126.7 69.47 133.72 69.47 140.74 69.47C141.73 69.47 142.06 69 142.07 68.06C142.09 65.9 142.1 63.74 142.24 61.58C142.34 60.15 141.9 59.67 140.4 59.69C134.08 59.77 127.75 59.72 121.43 59.73C118.18 59.73 114.99 59.44 112.09 57.82C107.82 55.43 105.06 52.13 105.39 46.86C105.57 44.01 105.24 41.11 105.57 38.28C106.19 33.01 111.7 28.35 117.82 28.12C124.95 27.85 132.1 27.95 139.24 27.99C141.63 28 144.1 27.94 146.37 28.53C151.24 29.79 155.27 32.41 156.41 37.7C156.93 40.11 156.75 42.7 156.59 45.2C156.55 45.84 155.45 46.91 154.79 46.94C151.42 47.12 148.03 47.13 144.65 46.97C143.14 46.9 142.32 45.77 142.33 44.18C142.33 42.61 142.33 41.05 142.33 39.37H119.87V48.45H121.73C128.46 48.45 135.2 48.41 141.93 48.46C146.39 48.49 150.24 50.1 153.48 53.2C156.57 56.16 156.59 59.94 156.44 63.79C156.39 65.07 156.35 66.36 156.35 67.64C156.34 73.37 153.8 77.3 148.41 79.37C146.54 80.09 144.46 80.58 142.46 80.62C134.67 80.76 126.89 80.71 119.1 80.66C115.8 80.64 112.77 79.62 110.09 77.67C106.71 75.21 104.71 72.04 105.03 67.69C105.12 66.53 105.05 65.35 105.07 64.18C105.1 62.39 105.82 61.51 107.56 61.46C110.49 61.38 113.42 61.37 116.34 61.46C118.43 61.53 119.44 62.79 119.4 64.93C119.38 66.38 119.4 67.82 119.4 69.47H119.43Z" fill="#A7A9AC"/>
<path d="M253.62 69.4799H255.45C265.81 69.4799 276.18 69.4799 286.54 69.4799C289.63 69.4799 290.42 70.3599 290.28 73.4999C290.21 75.0199 290.22 76.5399 290.26 78.0599C290.3 79.7499 289.39 80.4999 287.84 80.6699C287.38 80.7199 286.9 80.6999 286.44 80.6999C272.09 80.6999 257.75 80.6999 243.4 80.6999C239.85 80.6999 238.96 79.8299 239 76.2599C239.12 65.3899 239.26 54.5299 239.42 43.6599C239.48 39.3999 239.59 35.1299 239.68 30.8699C239.73 28.7199 240.36 27.9999 242.52 27.9999C257.57 27.9799 272.62 27.9799 287.67 27.9999C290 27.9999 290.92 29.0399 290.94 31.3799C290.95 32.9599 290.96 34.5399 290.94 36.1199C290.92 38.2399 290.13 39.1199 288.02 39.2399C286.56 39.3299 285.09 39.2699 283.63 39.2699C274.32 39.2699 265.01 39.2999 255.7 39.2399C254.25 39.2399 253.73 39.6299 253.79 41.0999C253.89 43.4799 253.82 45.8699 253.82 48.5199H255.84C265.91 48.5199 275.98 48.5199 286.06 48.5199C289.9 48.5199 290.59 49.1999 290.6 52.9299C290.6 54.1599 290.63 55.3899 290.62 56.6099C290.61 59.0099 289.92 59.7099 287.45 59.7299C284.35 59.7499 281.24 59.7299 278.14 59.7299C270.64 59.7299 263.15 59.7499 255.65 59.7099C254.23 59.7099 253.5 59.9899 253.59 61.6399C253.72 64.1399 253.62 66.6499 253.62 69.4699V69.4799Z" fill="#A7A9AC"/>
<path d="M320.74 46.8298C322.84 47.4198 324.19 46.6198 325.47 45.4698C331.12 40.3798 336.82 35.3498 342.43 30.2298C344.08 28.7198 345.89 27.9298 348.12 27.9598C351.34 27.9998 354.56 27.9798 357.78 27.9598C358.9 27.9598 360.14 28.1098 360.3 29.3198C360.42 30.1898 360.01 31.4598 359.37 32.0498C352.3 38.6098 345.17 45.0998 337.99 51.5498C336.85 52.5798 337.09 53.1598 338.05 54.0498C345.98 61.4098 353.87 68.7898 361.77 76.1798C362.24 76.6198 362.73 77.0698 363.05 77.6098C364.03 79.2998 363.26 80.6598 361.33 80.6798C358.05 80.7098 354.77 80.6798 351.49 80.6898C349.27 80.6998 347.42 79.9298 345.79 78.4098C339.07 72.1498 332.32 65.9398 325.57 59.7198C325.14 59.3198 324.73 58.7498 324.22 58.6298C323.18 58.3898 322.04 58.2298 321.02 58.4098C320.72 58.4598 320.5 59.7898 320.49 60.5398C320.42 66.0298 320.41 71.5298 320.37 77.0198C320.35 79.9098 319.59 80.6698 316.74 80.6898C314.34 80.6998 311.94 80.7098 309.54 80.6898C306.94 80.6598 306.05 79.7698 306.07 77.2098C306.21 62.7798 306.36 48.3498 306.52 33.9198C306.53 32.6998 306.64 31.4698 306.67 30.2498C306.71 28.8098 307.52 28.0698 308.87 28.0398C311.91 27.9698 314.96 27.9398 318 28.0398C319.92 28.0998 320.81 29.1698 320.81 31.0998C320.8 35.7198 320.75 40.3298 320.72 44.9498C320.72 45.5798 320.72 46.2098 320.72 46.8398L320.74 46.8298Z" fill="#A7A9AC"/>
<path d="M190.41 39.2599C185.55 39.2599 180.99 39.2599 176.43 39.2599C172.67 39.2599 171.76 38.2899 171.9 34.5799C171.95 33.2999 171.9 32.0099 171.95 30.7199C172.01 28.8699 172.78 28.0999 174.64 27.9799C175.05 27.9499 175.46 27.9699 175.87 27.9699C190.27 27.9699 204.68 27.9699 219.08 27.9699C222.66 27.9699 223.64 29.0799 223.31 32.6799C223.22 33.6099 223.26 34.5499 223.25 35.4799C223.23 38.5599 222.55 39.2399 219.39 39.2499C215.17 39.2599 210.96 39.2499 206.74 39.2499C206.17 39.2499 205.59 39.2499 204.52 39.2499C204.52 42.7099 204.55 46.0099 204.52 49.3099C204.42 58.7699 204.29 68.2399 204.17 77.6999C204.14 79.6799 203.29 80.6199 201.31 80.6499C198.56 80.6999 195.81 80.7099 193.06 80.6499C190.89 80.5899 189.86 79.4799 189.88 77.3199C189.99 66.0399 190.1 54.7699 190.23 43.4899C190.25 42.1599 190.35 40.8299 190.42 39.2399L190.41 39.2599Z" fill="#A7A9AC"/>
<path d="M60.1196 84.7602C58.3796 84.3102 56.6096 83.9402 54.8896 83.4002C44.4096 80.1102 34.0196 76.4702 23.4296 73.5602C14.1296 71.0102 11.8096 62.2502 13.8596 55.5602C17.1496 44.8502 20.5596 34.1702 24.0096 23.5102C26.0796 17.1002 32.9896 11.2002 41.8396 14.4402C45.6196 15.8302 49.5196 16.8802 53.3696 18.0902C60.2896 20.2602 67.1396 22.6502 74.1296 24.5302C82.6596 26.8302 85.4496 35.0502 83.6196 41.5202C81.4496 49.2102 78.8896 56.7902 76.4896 64.4202C75.4596 67.7002 74.4296 70.9902 73.3596 74.2602C71.3096 80.4802 66.0396 84.5602 60.1096 84.7502L60.1196 84.7602ZM36.9096 18.7402C33.1896 18.8702 30.2496 21.0302 29.0696 24.7402C25.5696 35.7402 22.0896 46.7602 18.6396 57.7802C17.2496 62.2202 19.4096 66.5902 23.8296 68.0102C35.1696 71.6602 46.5296 75.2502 57.9096 78.7702C62.4496 80.1802 66.7396 77.8502 68.1896 73.3302C71.6796 62.4402 75.1496 51.5502 78.5796 40.6502C80.1496 35.6502 77.8896 31.3502 72.8996 29.7702C61.8796 26.2802 50.8496 22.8102 39.8096 19.3602C38.8696 19.0702 37.8796 18.9502 36.9096 18.7502V18.7402Z" fill="#A7A9AC"/>
<path d="M127.57 95.3499C129.69 95.3499 131.67 95.2899 133.64 95.3899C134.11 95.4099 134.65 95.8999 134.98 96.3199C139.19 101.79 143.37 107.27 147.53 112.78C148.28 113.78 148.86 114.91 149.72 116.3C149.72 112.53 149.72 109.11 149.72 105.7C149.72 102.29 149.72 98.9399 149.72 95.4499H155.88V125.56C153.93 125.56 152.02 125.61 150.11 125.52C149.7 125.5 149.22 125.04 148.93 124.66C144.53 118.98 140.13 113.29 135.78 107.56C134.99 106.52 134.45 105.29 133.67 103.93V125.48H127.58V95.3599L127.57 95.3499Z" fill="#A7A9AC"/>
<path d="M163.41 110.49C163.41 101.56 170.42 94.6602 179.52 94.6402C188.41 94.6202 195.64 101.66 195.7 110.37C195.75 119.18 188.55 126.3 179.57 126.3C170.52 126.3 163.41 119.35 163.41 110.48V110.49ZM188.81 110.41C188.8 104.7 184.82 100.43 179.52 100.44C174.18 100.44 170.05 104.85 170.08 110.53C170.11 116.3 174.08 120.39 179.63 120.38C185.06 120.37 188.83 116.28 188.81 110.42V110.41Z" fill="#A7A9AC"/>
<path d="M66.05 125.29V95.1899C70.89 95.3699 75.66 95.4499 80.41 95.7599C83.29 95.9399 85.87 97.1399 87.92 99.1699C92.79 103.98 93.42 109.89 91.53 116.04C89.75 121.82 85.41 124.93 79.38 125.25C75.02 125.48 70.63 125.3 66.04 125.3L66.05 125.29ZM72.59 120.02C76.85 119.87 81.29 120.67 84.18 116.55C86.28 113.55 86.21 107.03 84.08 104.16C81.12 100.17 76.78 101.04 72.59 100.98V120.02Z" fill="#A7A9AC"/>
<path d="M95.71 95.3499C98.3 95.3499 100.52 95.2899 102.72 95.3999C103.19 95.4199 103.78 96.0199 104.04 96.4999C105.83 99.7499 107.54 103.04 109.24 106.24C110.87 103.16 112.62 99.9499 114.26 96.6999C114.77 95.6799 115.38 95.2399 116.56 95.3099C118.52 95.4099 120.48 95.3399 122.78 95.3399C121.1 98.0499 119.59 100.45 118.1 102.87C116.26 105.85 113.74 108.63 112.8 111.87C111.87 115.05 112.56 118.7 112.54 122.15C112.54 123.2 112.54 124.24 112.54 125.44H105.87C105.87 121.79 105.78 118.18 105.91 114.58C105.98 112.57 105.49 110.89 104.38 109.19C101.48 104.76 98.74 100.22 95.71 95.3599V95.3499Z" fill="#A7A9AC"/>
<path d="M310.7 108.98V93.73H314.05V125.46H311.03C310.96 124.67 310.89 123.9 310.8 122.93C310.49 123.17 310.3 123.27 310.17 123.42C307.78 126.27 304.73 126.92 301.3 125.92C297.78 124.9 295.86 122.27 295.3 118.84C294.7 115.15 294.95 111.55 297.65 108.46C300.42 105.29 307.35 104.86 309.95 108.63C310.08 108.82 310.08 109.09 310.15 109.32C310.33 109.21 310.51 109.09 310.69 108.98H310.7ZM298.66 115.9C298.66 120.39 300.98 123.11 304.75 123.05C308.51 123 310.85 120.41 310.9 116.26C310.95 112.12 308.33 109.21 304.55 109.21C300.8 109.21 298.66 111.64 298.66 115.9Z" fill="#A7A9AC"/>
<path d="M239.86 125.47H236.51C236.51 123.24 236.51 121.04 236.51 118.84C236.51 117.26 236.54 115.68 236.51 114.11C236.42 110.7 234.96 109.01 231.96 108.79C228.93 108.57 226.41 110.5 226.13 113.58C225.89 116.19 225.99 118.83 225.96 121.46C225.94 122.74 225.96 124.02 225.96 125.44H222.86V93.73H225.88V109.25C228.09 106.7 230.52 105.81 233.42 105.94C236.96 106.11 239.57 107.95 239.79 111.42C240.08 116.06 239.86 120.73 239.86 125.48V125.47Z" fill="#A7A9AC"/>
<path d="M277.55 116.57H262.76C262.27 119.19 263.71 121.9 266.07 122.95C269.17 124.33 271.84 123.31 274.81 119.51C275.22 119.75 275.66 119.98 276.08 120.25C276.47 120.5 276.83 120.78 277.19 121.04C275.54 124.86 271.49 126.89 266.87 126.25C262.87 125.7 259.58 122.47 259.04 118.38C258.48 114.12 259.07 110.17 262.91 107.46C268.74 103.35 276.47 106.83 277.27 113.91C277.36 114.71 277.44 115.51 277.55 116.57ZM273.68 113.67C273.45 110.62 271.42 108.81 268.3 108.77C265.3 108.73 263.07 110.66 262.7 113.67H273.68Z" fill="#A7A9AC"/>
<path d="M215.73 109.73C214.81 110.3 213.99 110.81 213.08 111.37C211.96 109.68 210.59 108.62 208.55 108.73C207.11 108.81 206.03 109.41 205.65 110.82C205.26 112.26 206.27 112.99 207.39 113.47C208.78 114.07 210.23 114.52 211.64 115.07C215.17 116.46 216.32 118.31 215.75 121.6C215.29 124.24 212.74 126.18 209.56 126.3C205.57 126.45 203.19 125.28 201.51 122.25C202.38 121.64 203.26 121.02 204.21 120.35C205.63 122.49 207.39 123.73 210 123.25C211.35 123 212.29 122.31 212.5 120.93C212.7 119.55 211.83 118.76 210.68 118.27C209.13 117.6 207.51 117.07 206 116.32C202.84 114.75 201.72 112.83 202.33 110.33C202.99 107.65 205.34 106.05 208.55 105.97C211.62 105.89 214.17 106.69 215.73 109.75V109.73Z" fill="#A7A9AC"/>
<path d="M287.7 125.5H284.45V93.6899H287.7V125.5Z" fill="#A7A9AC"/>
<path d="M248.6 106.64H251.72V125.46H248.6V106.64Z" fill="#A7A9AC"/>
<path d="M252.4 97.6399C252.4 99.0999 251.43 100.05 249.96 99.9799C248.49 99.9199 247.71 99.1099 247.66 97.6499C247.61 96.2399 248.68 95.1299 250.02 95.1299C251.38 95.1299 252.39 96.1999 252.39 97.6399H252.4Z" fill="#A7A9AC"/>
<path d="M31.8303 57.7598C35.1503 60.9398 38.4403 63.6698 42.6603 65.0998C46.3503 66.3498 50.0003 66.3498 53.3803 64.5498C55.4003 63.4798 57.0003 61.6298 58.4603 60.4098C57.5503 67.8698 51.3603 71.2398 44.3403 70.3698C39.0603 69.7098 34.9503 66.6698 31.3003 63.0098C30.9503 62.6598 30.8703 61.8398 30.9503 61.2798C31.1103 60.1898 31.4803 59.1298 31.8403 57.7698L31.8303 57.7598Z" fill="#A7A9AC"/>
<path d="M38.9805 39.9102C39.1805 41.0102 39.2905 41.9802 39.5305 42.9202C40.2405 45.6802 42.1305 47.5102 44.4105 49.0702C46.0905 50.2202 47.7905 51.4002 49.2005 52.8302C50.8805 54.5402 50.4405 56.2302 48.3905 57.4402C46.4805 56.0602 44.6205 54.6702 42.7105 53.3502C38.0305 50.1102 36.6905 45.4702 38.9805 39.9202V39.9102Z" fill="#A7A9AC"/>
<path d="M57.6098 46.5202C55.4098 44.0402 53.2298 42.2002 50.0498 41.9102C49.6598 41.8702 48.9798 40.4202 49.1498 39.8102C49.3898 38.9502 50.2598 37.6902 50.9098 37.6602C52.2798 37.5902 53.8098 37.9602 55.0398 38.6002C56.4498 39.3402 57.5998 40.5802 59.0398 41.7402C60.6298 40.0702 62.2698 38.3402 64.0198 36.4902C64.0498 41.3602 60.1298 43.3502 57.6098 46.5102V46.5202Z" fill="#A7A9AC"/>
</g>
<defs>
<clipPath id="clip0_341_3">
<rect width="377.06" height="139.64" fill="white"/>
</clipPath>
</defs>
</svg>
