<svg width="342" height="292" viewBox="0 0 342 292" fill="none" xmlns="http://www.w3.org/2000/svg">
<path fill-rule="evenodd" clip-rule="evenodd" d="M165.57 80.4464L132.335 52.5558L160.241 19.3052L193.476 47.2109L165.57 80.4464Z" fill="#A7A9AC"/>
<path fill-rule="evenodd" clip-rule="evenodd" d="M104.778 15.1415C104.975 15.0658 105.111 14.9598 105.187 14.8386C105.278 14.7175 105.354 14.445 105.475 14.0513L107.686 5.73861C107.716 5.54177 107.746 5.4055 107.731 5.32979C107.701 5.20866 107.58 5.13295 107.337 5.11781L107.307 4.89069L109.654 4.46673L109.699 4.69385C109.472 4.83013 109.381 4.93611 109.412 5.05725C109.412 5.11781 109.472 5.23894 109.593 5.4055L114.302 12.204C114.666 12.7037 114.878 13.0065 114.969 13.0822C115.075 13.1579 115.256 13.2033 115.544 13.2185L115.589 13.4608L113.288 13.8696L113.242 13.6273C113.515 13.5516 113.621 13.4153 113.591 13.2488C113.576 13.1731 113.515 13.0368 113.364 12.8248L112.258 11.235L107.065 12.1434L106.52 14.1573C106.489 14.339 106.474 14.4601 106.489 14.5358C106.489 14.6721 106.656 14.7629 106.944 14.7478L106.989 14.9749L104.824 15.3534L104.778 15.1415ZM114.741 3.7248L117.225 3.37654L117.255 3.60367C117.043 3.70966 116.937 3.83079 116.967 3.96707C116.967 4.10334 117.104 4.26989 117.331 4.49701L119.723 6.8288L121.373 3.93678C121.57 3.61881 121.661 3.37655 121.631 3.25541C121.616 3.104 121.479 3.05858 121.252 3.04344L121.222 2.81631L123.554 2.4832L123.584 2.72547C123.387 2.78603 123.221 2.9223 123.024 3.13428C122.857 3.34626 122.645 3.69452 122.358 4.19418L120.45 7.54044L124.25 11.235C124.78 11.7346 125.204 11.9769 125.552 11.9466V12.1737L123.069 12.522L123.024 12.2949C123.251 12.2343 123.372 12.1283 123.342 12.0072C123.327 11.9163 123.175 11.7195 122.857 11.4318L119.89 8.55492L117.845 12.1283C117.633 12.5068 117.527 12.734 117.543 12.8097C117.543 12.9308 117.679 13.0065 117.921 13.0217L117.967 13.2488L115.604 13.5819V13.4608L115.574 13.3548C115.756 13.2942 115.938 13.1882 116.104 13.0217C116.256 12.8551 116.437 12.628 116.619 12.31L119.148 7.84327L116.286 5.05725C115.756 4.51215 115.423 4.20933 115.271 4.10334C115.15 4.01249 114.984 3.96706 114.772 3.95192L114.741 3.7248ZM41.2903 30.4343L41.8202 32.4936L41.5931 32.5541C41.5022 32.3422 41.4417 32.221 41.4114 32.1756C41.3054 32.0545 41.0783 32.0696 40.6997 32.2059C39.6853 32.5238 38.7616 33.0538 37.9743 33.7957C37.3383 34.4014 36.8689 35.0676 36.6267 35.749C36.4904 36.0972 36.4601 36.4152 36.5055 36.7332C36.551 37.0511 36.657 37.3085 36.8538 37.5205C37.0204 37.7022 37.2323 37.8234 37.4897 37.8839C37.732 37.9445 37.9743 37.9293 38.2317 37.8536C38.5042 37.7477 38.7768 37.6114 39.0796 37.3994L40.412 36.2941C41.2448 35.5521 41.8656 35.0525 42.2593 34.7799C42.6378 34.5074 43.0315 34.3408 43.3646 34.2348C44.2731 34.0077 45.0453 34.25 45.6964 34.9465C46.3021 35.5824 46.5292 36.3698 46.3626 37.2934C46.1961 38.323 45.5753 39.3375 44.5305 40.3217C43.9249 40.8971 43.3343 41.3362 42.759 41.6239C42.1987 41.9418 41.4417 42.1992 40.5029 42.4718C40.2455 42.5475 40.1092 42.6081 40.0789 42.6383C40.0184 42.6838 39.9881 42.82 40.0032 43.0623L39.7761 43.1077L39.337 41.0333L39.549 40.9728C39.6247 41.1848 39.6853 41.3059 39.7307 41.3665C39.8215 41.4724 40.2152 41.427 40.8966 41.2453C41.4871 41.0788 42.0322 40.8668 42.4713 40.6094C42.9558 40.3671 43.4101 40.0189 43.834 39.61C44.7274 38.7773 45.227 37.9445 45.333 37.1268C45.3784 36.5818 45.2422 36.1275 44.9242 35.7641C44.47 35.2947 43.9097 35.219 43.2284 35.537C42.9861 35.6278 42.7741 35.7338 42.5773 35.9155L40.9723 37.2783C40.3363 37.8233 39.8215 38.217 39.4127 38.4593C39.0039 38.7167 38.5951 38.8984 38.1862 39.0044C37.8077 39.0801 37.4292 39.0649 37.0506 38.959C36.657 38.8378 36.339 38.641 36.0513 38.3382C35.5819 37.8234 35.3548 37.2026 35.4002 36.4909C35.4305 35.9458 35.6273 35.3704 35.9756 34.7648C36.3239 34.144 36.8084 33.5535 37.3989 33.0084C37.8834 32.5541 38.368 32.1756 38.8676 31.8879C39.3673 31.6002 39.9881 31.3277 40.73 31.0703C40.8966 31.0097 40.9874 30.9643 41.0177 30.934C41.0934 30.8734 41.0934 30.722 41.0934 30.4949L41.2903 30.4343ZM50.9051 25.0591L52.3435 32.5541C52.4041 32.8418 52.4646 33.0387 52.5252 33.1446C52.5858 33.2658 52.7675 33.3112 53.0552 33.2355L53.1611 33.4323L51.1019 34.6285L50.9808 34.4317C51.1776 34.25 51.2533 34.0834 51.1625 33.9169C51.1019 33.826 50.9656 33.6897 50.7234 33.4929L44.8031 28.5114C44.3942 28.1631 44.1217 27.9663 43.9854 27.9208C43.8189 27.8451 43.6372 27.8603 43.4252 27.936L43.3041 27.7391L45.3027 26.5884L45.4239 26.7852C45.1816 26.9518 45.121 27.1335 45.227 27.3152C45.2725 27.3758 45.439 27.5423 45.7418 27.7997L51.3442 32.6147L49.9663 25.3468C49.8755 24.9228 49.83 24.6806 49.7998 24.6351C49.7089 24.4686 49.5423 24.4535 49.2698 24.5443L49.1638 24.3475L51.3442 23.0907L51.4502 23.3027C51.2382 23.4995 51.1776 23.6661 51.2836 23.8175C51.3139 23.8932 51.4804 24.0446 51.7833 24.302L57.3402 29.1322L55.9018 21.9248C55.8412 21.5614 55.7655 21.3343 55.7201 21.2283C55.6292 21.0769 55.4627 21.0315 55.1901 21.1375L55.069 20.9255L56.9617 19.8353L57.0676 20.0321C56.8859 20.1987 56.7951 20.3804 56.7648 20.547C56.7345 20.7135 56.78 21.0466 56.8708 21.5463L58.3244 29.1019C58.3698 29.3896 58.4304 29.5713 58.4758 29.647C58.5666 29.8135 58.7635 29.8589 59.0209 29.7832L59.142 29.9801L57.0979 31.1611L56.9919 30.9643C57.2039 30.7674 57.2342 30.5857 57.1434 30.4192C57.1131 30.3586 56.9919 30.2375 56.78 30.0558L50.9051 25.0591ZM63.0334 27.2546L59.46 19.911C59.3691 19.7293 59.2934 19.6233 59.1874 19.5779C59.0966 19.5173 58.9452 19.5173 58.7635 19.5779L58.6726 19.3659L60.5199 18.4726L60.6259 18.6694C60.4896 18.7905 60.3988 18.8965 60.3836 19.0177C60.3533 19.1085 60.3836 19.2448 60.4896 19.4416L64.063 26.7852C64.1538 26.9669 64.2296 27.0729 64.3355 27.1183C64.4113 27.1638 64.5627 27.1789 64.7595 27.1335L64.8503 27.3455L63.0031 28.2388L62.8971 28.0268C63.0334 27.9057 63.1242 27.7846 63.1394 27.6937C63.1696 27.5877 63.1394 27.4515 63.0334 27.2698V27.2546ZM71.9365 14.445L71.6791 16.5647L71.452 16.5345C71.4369 16.3225 71.4217 16.1711 71.4066 16.1256C71.3612 15.9894 71.134 15.9137 70.7404 15.8985C69.6653 15.838 68.6357 16.0045 67.6364 16.4133C66.8036 16.7464 66.1374 17.1856 65.668 17.7458C65.4257 18.0183 65.2743 18.306 65.1986 18.624C65.1229 18.9268 65.1532 19.2296 65.244 19.487C65.3349 19.7142 65.4863 19.8959 65.7134 20.0473C65.9254 20.1987 66.1525 20.2593 66.4099 20.2744C66.7127 20.2744 67.0156 20.2441 67.3638 20.1684L69.0142 19.6233L71.2703 18.8511C71.7397 18.7451 72.1485 18.7148 72.4968 18.7603C73.4356 18.8663 74.0715 19.3811 74.4197 20.229C74.7529 21.0618 74.6772 21.8794 74.2078 22.697C73.693 23.5904 72.739 24.302 71.4066 24.8623C70.6344 25.1651 69.9379 25.3619 69.2868 25.4376C68.6509 25.5133 67.8484 25.4982 66.8793 25.4074C66.6068 25.4074 66.4553 25.4074 66.4251 25.4225C66.3494 25.4225 66.2888 25.5588 66.1979 25.7859L65.9708 25.7405L66.3039 23.6509L66.531 23.6812C66.531 23.8932 66.531 24.0295 66.531 24.0901C66.5916 24.2415 66.9702 24.3323 67.6667 24.408C68.2723 24.4686 68.8477 24.4686 69.3777 24.3929C69.9076 24.3172 70.4375 24.1658 70.9978 23.9386C72.1334 23.4844 72.8905 22.8939 73.2841 22.1519C73.5264 21.6674 73.5567 21.1829 73.375 20.7438C73.1327 20.1381 72.6331 19.8505 71.8911 19.8959C71.6337 19.8959 71.3915 19.9564 71.1643 20.017L69.1657 20.7286C68.3783 21.0012 67.7575 21.1829 67.2881 21.2889C66.8187 21.3646 66.3645 21.3797 65.9405 21.3343C65.562 21.2889 65.2137 21.1375 64.8958 20.8952C64.5778 20.6378 64.3507 20.335 64.1841 19.9564C63.9419 19.3054 63.957 18.6391 64.2447 17.988C64.4567 17.5035 64.8503 17.0341 65.3954 16.5799C65.9405 16.1256 66.6068 15.7623 67.3487 15.4594C67.9695 15.202 68.56 15.0355 69.1354 14.9598C69.7108 14.8538 70.3921 14.8235 71.1643 14.8538C71.346 14.8538 71.4369 14.8538 71.4823 14.8538C71.558 14.8083 71.6337 14.6872 71.6943 14.445H71.9214H71.9365ZM83.1261 10.9018L82.7173 13.0065L82.4901 12.9611C82.4901 12.734 82.4901 12.5977 82.475 12.5371C82.4447 12.4009 82.2176 12.31 81.8239 12.2494C80.764 12.1283 79.7193 12.2494 78.6896 12.5674C77.8417 12.84 77.1603 13.2336 76.6304 13.7636C76.3881 14.0058 76.2064 14.2935 76.1004 14.5964C76.0247 14.8992 76.0096 15.1869 76.1004 15.4746C76.1762 15.7017 76.3124 15.8985 76.5093 16.0499C76.7213 16.2165 76.9484 16.3074 77.2058 16.3225C77.4935 16.3679 77.7963 16.3528 78.1748 16.2922L79.8404 15.8531L82.1419 15.2626C82.6264 15.1717 83.0352 15.1717 83.3835 15.2474C84.3071 15.4291 84.9128 15.9591 85.1853 16.8524C85.473 17.7004 85.3519 18.5029 84.8068 19.2751C84.2163 20.1533 83.2472 20.7892 81.8693 21.2435C81.082 21.5009 80.3552 21.6523 79.7193 21.6826C79.0682 21.7129 78.2657 21.6371 77.3118 21.4857C77.0392 21.4554 76.8878 21.4403 76.8575 21.4554C76.797 21.4857 76.7061 21.5917 76.6153 21.8037L76.3881 21.7583L76.8575 19.6839L77.0846 19.7445C77.0544 19.9564 77.0544 20.0776 77.0846 20.1533C77.1452 20.2896 77.5086 20.4258 78.19 20.547C78.8108 20.6529 79.371 20.6832 79.9161 20.6378C80.446 20.6075 80.9911 20.5015 81.5665 20.3047C82.7173 19.9413 83.5198 19.3962 83.9589 18.6846C84.2314 18.2152 84.3071 17.7458 84.1557 17.2915C83.9589 16.6707 83.4743 16.3528 82.7173 16.3376C82.475 16.3225 82.2327 16.3376 81.9905 16.4133L79.9464 16.9736C79.159 17.2007 78.5079 17.337 78.0234 17.3975C77.5692 17.4581 77.1149 17.443 76.7061 17.3521C76.3124 17.2915 75.9793 17.1098 75.6765 16.8373C75.3888 16.5647 75.1768 16.2468 75.0557 15.8531C74.8286 15.1869 74.8891 14.5358 75.2374 13.8999C75.4796 13.4305 75.9036 12.9914 76.479 12.5826C77.0544 12.1737 77.7509 11.8558 78.5079 11.5984C79.1439 11.3864 79.7495 11.2652 80.3249 11.2047C80.9003 11.1593 81.5817 11.1744 82.3539 11.2652H82.6567C82.7475 11.235 82.8384 11.0987 82.9141 10.8716L83.1412 10.9018H83.1261ZM96.284 8.63063L95.3452 16.2014C95.2998 16.5042 95.2998 16.701 95.315 16.8222C95.3604 16.9736 95.5118 17.0644 95.7995 17.0796L95.8449 17.2915L93.5131 17.8063L93.4677 17.5792C93.71 17.4732 93.8311 17.3218 93.7857 17.1401C93.7705 17.0493 93.6797 16.8676 93.5131 16.595L89.4249 10.0388C89.1372 9.58454 88.9404 9.312 88.8193 9.20601C88.683 9.10002 88.5013 9.05459 88.2742 9.05459L88.2288 8.82747L90.4848 8.35808L90.5454 8.57006C90.2577 8.66091 90.1517 8.81233 90.1971 9.02431C90.2123 9.10002 90.3183 9.312 90.5151 9.64511L94.3762 15.944L95.2998 8.61549C95.3604 8.19153 95.3755 7.94927 95.3604 7.8887C95.315 7.72215 95.1635 7.6313 94.8759 7.64644L94.8456 7.41931L97.2985 6.88937L97.359 7.13163C97.0865 7.23762 96.9957 7.38903 97.0108 7.57073C97.0259 7.63129 97.1471 7.84328 97.359 8.17639L101.144 14.5055L102.023 7.19219C102.053 6.8288 102.053 6.60168 102.023 6.48055C101.992 6.29885 101.841 6.22314 101.553 6.22314L101.508 5.99602L103.628 5.54177L103.688 5.7689C103.461 5.85974 103.31 5.99602 103.234 6.14743C103.158 6.31399 103.083 6.63196 103.022 7.13163L102.068 14.7629C102.038 15.0658 102.038 15.2474 102.038 15.3383C102.083 15.5351 102.25 15.626 102.537 15.6411L102.583 15.8682L100.281 16.3528L100.236 16.1256C100.493 16.0045 100.584 15.8531 100.539 15.6563C100.539 15.5957 100.463 15.4443 100.296 15.202L96.2689 8.63063H96.284ZM111.683 10.3719L108.655 5.95059L107.307 11.1441L111.683 10.3719ZM132.412 11.5226L127.566 3.61881L128.217 11.0381C128.232 11.235 128.278 11.3561 128.338 11.4469C128.414 11.5226 128.535 11.5832 128.732 11.6135V11.8406L126.794 12.0223V11.7801C126.945 11.7195 127.082 11.6438 127.127 11.5529C127.173 11.4621 127.203 11.3107 127.188 11.1138L126.476 2.98287C126.476 2.77089 126.4 2.63462 126.34 2.55891C126.279 2.4832 126.128 2.42264 125.946 2.39235V2.16523L128.475 1.93811L128.505 2.18037C128.278 2.28636 128.172 2.39235 128.187 2.51348C128.187 2.55891 128.278 2.74061 128.46 3.04344L132.306 9.26657L135.016 2.40749C135.107 2.16523 135.152 1.99868 135.137 1.90783C135.122 1.77155 135.001 1.69585 134.758 1.63528V1.39302L137.317 1.16589V1.40816C137.166 1.46872 137.03 1.54443 136.984 1.63528C136.924 1.72613 136.909 1.8624 136.924 2.07438L137.635 10.2053C137.635 10.4022 137.696 10.5385 137.772 10.6142C137.832 10.6899 137.968 10.7504 138.165 10.7807V11.023L136.121 11.1895L136.091 10.9624C136.273 10.8867 136.409 10.8261 136.454 10.7353C136.515 10.6596 136.53 10.493 136.5 10.2962L135.849 2.89202L132.412 11.5226ZM147.084 7.73728L141.814 7.99469L141.042 9.91766C140.966 10.0994 140.936 10.2356 140.936 10.2962C140.936 10.4476 141.088 10.5385 141.39 10.5687V10.811L139.195 10.917V10.6899C139.377 10.6444 139.528 10.5536 139.634 10.4476C139.725 10.3265 139.846 10.0842 139.997 9.70567L143.207 1.71099C143.268 1.52929 143.313 1.39302 143.313 1.33245C143.298 1.19618 143.177 1.12047 142.935 1.0599V0.832785L145.327 0.71165V0.938774C145.1 1.01448 144.979 1.13561 144.994 1.25674C144.994 1.31731 145.055 1.4233 145.161 1.605L148.991 8.93346C149.279 9.49369 149.461 9.79652 149.552 9.90251C149.627 9.97822 149.824 10.0691 150.097 10.0994V10.3416L147.78 10.4779V10.2356C148.053 10.1751 148.174 10.0691 148.159 9.90251C148.159 9.82681 148.098 9.67539 147.977 9.46341L147.084 7.73728ZM146.614 6.79852L144.146 2.0441L142.178 7.04078L146.614 6.79852ZM152.61 6.60167L152.716 9.52398C152.716 9.72081 152.762 9.87223 152.822 9.94794C152.898 10.0388 153.019 10.0994 153.201 10.1296V10.3568L151.157 10.4476V10.2053C151.323 10.1448 151.444 10.0842 151.505 9.99336C151.565 9.90251 151.581 9.76624 151.581 9.5694L151.308 1.39302C151.308 1.19618 151.247 1.05991 151.187 0.969058C151.126 0.893351 150.99 0.832781 150.808 0.787356V0.575377L152.868 0.499671V0.726789C152.701 0.787355 152.565 0.847926 152.519 0.938774C152.459 1.01448 152.429 1.16589 152.429 1.36273L152.58 5.45093L157.758 1.12047C157.94 0.969056 158.016 0.83278 158.016 0.757073C158.016 0.635941 157.925 0.590521 157.743 0.560238V0.333114L160.332 0.227124V0.469387C160.06 0.49967 159.772 0.620802 159.515 0.847924L155.608 4.08819L160.211 9.52398C160.317 9.67539 160.423 9.7511 160.514 9.79652C160.605 9.84195 160.741 9.85709 160.938 9.87223V10.0994L158.546 10.1751V9.94794C158.742 9.90251 158.848 9.81166 158.833 9.72082C158.833 9.67539 158.727 9.50884 158.5 9.23629L154.775 4.79984L152.61 6.60167ZM163.875 5.61748L163.8 9.28171L170.129 9.3877C170.326 9.3877 170.462 9.37256 170.568 9.312C170.644 9.25143 170.704 9.1303 170.765 8.93346H170.992L170.962 10.811H170.735C170.674 10.6293 170.613 10.493 170.538 10.4476C170.447 10.3719 170.311 10.3416 170.099 10.3265L162.195 10.2053V9.96308C162.376 9.91765 162.513 9.85709 162.573 9.78138C162.634 9.70568 162.664 9.55426 162.664 9.34228L162.816 1.18104C162.816 0.969057 162.785 0.83278 162.725 0.757073C162.664 0.666224 162.543 0.605662 162.361 0.560238V0.317975L170.189 0.454248C170.401 0.454248 170.538 0.423961 170.613 0.378536C170.704 0.317971 170.78 0.196839 170.81 0H171.053L171.007 1.87754H170.795C170.75 1.69585 170.689 1.55957 170.598 1.49901C170.523 1.43844 170.386 1.39302 170.174 1.39302L163.951 1.28703L163.891 4.66357L167.964 4.73928C168.176 4.73928 168.312 4.73928 168.403 4.66357C168.478 4.603 168.554 4.46673 168.6 4.28503H168.842L168.796 6.17772H168.569C168.524 5.98088 168.463 5.8446 168.388 5.79918C168.297 5.72347 168.16 5.69319 167.949 5.69319L163.875 5.61748ZM174.686 5.87489L174.49 9.46341C174.49 9.66025 174.49 9.81166 174.55 9.90251C174.611 9.97822 174.732 10.0539 174.914 10.0994V10.3416L172.839 10.2356V10.0085C173.036 9.96308 173.157 9.90251 173.233 9.82681C173.309 9.7511 173.339 9.61483 173.339 9.40285L173.778 1.2416C173.778 1.04476 173.763 0.908491 173.702 0.802501C173.657 0.726794 173.521 0.651087 173.339 0.590522V0.378536L178.76 0.651083C179.517 0.696507 180.092 0.772214 180.516 0.863062C180.94 0.969053 181.303 1.13561 181.621 1.34759C181.924 1.55957 182.181 1.84726 182.363 2.21066C182.575 2.61948 182.666 3.08886 182.636 3.57338C182.605 4.33046 182.318 4.93612 181.803 5.39036C181.273 5.82946 180.576 6.05658 179.713 6.08686L182.015 10.1145C182.136 10.3719 182.348 10.493 182.636 10.5082V10.7504L180.334 10.6293V10.4022C180.592 10.3719 180.713 10.2962 180.713 10.2205C180.713 10.1599 180.652 10.0085 180.501 9.72082L178.442 6.07173L174.686 5.87489ZM174.717 4.93612L178.714 5.1481C179.259 5.17838 179.668 5.17838 179.941 5.1481C180.228 5.11781 180.47 5.05725 180.698 4.93612C181.197 4.66357 181.47 4.20932 181.5 3.51282C181.546 2.84659 181.318 2.33178 180.819 2.02895C180.607 1.89268 180.349 1.78669 180.077 1.74127C179.804 1.6807 179.38 1.62014 178.79 1.58986L174.898 1.39302L174.717 4.93612ZM194.249 2.3015L193.053 4.07305L192.856 3.93678C192.962 3.7248 193.008 3.58852 193.023 3.5431C193.023 3.39169 192.871 3.22513 192.538 3.02829C191.584 2.49834 190.6 2.16523 189.525 2.08952C188.632 1.99867 187.844 2.08952 187.163 2.36207C186.83 2.51348 186.557 2.71032 186.345 2.93745C186.133 3.17971 186.027 3.45225 185.997 3.73994C185.967 3.9822 186.027 4.22447 186.149 4.45159C186.285 4.66357 186.467 4.84527 186.694 4.9664C186.921 5.10267 187.239 5.2238 187.587 5.29951L189.298 5.55692C190.403 5.67805 191.191 5.81432 191.645 5.92031C192.129 6.0263 192.508 6.19286 192.796 6.3897C193.568 6.9045 193.916 7.64643 193.84 8.57006C193.75 9.46341 193.326 10.1599 192.538 10.6596C191.66 11.235 190.494 11.4469 189.056 11.3107C188.238 11.2501 187.511 11.0835 186.906 10.8716C186.3 10.6596 185.588 10.2811 184.771 9.7511C184.544 9.61483 184.392 9.55426 184.362 9.53912C184.286 9.53912 184.18 9.61483 183.998 9.78138L183.817 9.64511L185.058 7.91898L185.24 8.05525C185.149 8.23695 185.073 8.35808 185.073 8.43379C185.073 8.5852 185.361 8.85775 185.937 9.22115C186.467 9.55426 186.966 9.82681 187.481 9.99336C187.981 10.1599 188.526 10.281 189.116 10.3265C190.343 10.4325 191.281 10.2508 191.963 9.76624C192.402 9.44827 192.659 9.03945 192.705 8.55492C192.75 7.91898 192.432 7.43446 191.751 7.13163C191.524 7.0105 191.281 6.94993 191.024 6.9045L188.935 6.61682C188.117 6.52597 187.481 6.40484 187.012 6.26857C186.557 6.13229 186.149 5.95059 185.8 5.70833C185.482 5.48121 185.24 5.20866 185.058 4.84527C184.907 4.46673 184.831 4.08819 184.861 3.67937C184.937 2.98287 185.24 2.4075 185.8 1.93811C186.224 1.62014 186.769 1.37787 187.481 1.22646C188.162 1.07505 188.904 1.02962 189.722 1.12047C190.388 1.16589 190.994 1.28703 191.539 1.46872C192.084 1.65042 192.705 1.92297 193.386 2.3015C193.538 2.37721 193.644 2.42264 193.674 2.42264C193.765 2.42264 193.886 2.34693 194.052 2.16523L194.249 2.3015ZM209.436 4.07305L208.149 5.78403L207.967 5.63262C208.073 5.43578 208.134 5.29951 208.149 5.25409C208.149 5.10267 208.013 4.93611 207.695 4.70899C206.786 4.13362 205.802 3.75509 204.727 3.61881C203.834 3.49768 203.046 3.5431 202.35 3.78536C202.017 3.89135 201.744 4.08819 201.517 4.30017C201.29 4.54244 201.169 4.79984 201.123 5.08753C201.093 5.31465 201.123 5.55692 201.245 5.79918C201.351 6.0263 201.532 6.22314 201.744 6.34427C201.986 6.51083 202.274 6.61682 202.638 6.72281L204.333 7.07106L206.65 7.55559C207.119 7.69186 207.498 7.87356 207.771 8.08554C208.512 8.64577 208.83 9.40284 208.694 10.3265C208.573 11.2047 208.104 11.8709 207.301 12.3403C206.393 12.8551 205.212 13.0217 203.788 12.8248C202.971 12.6885 202.259 12.5068 201.669 12.2494C201.078 12.0072 200.382 11.5984 199.579 11.023C199.352 10.8716 199.231 10.811 199.185 10.7959C199.125 10.7959 198.988 10.8716 198.807 11.0078L198.64 10.8716L199.958 9.20601L200.139 9.35742C200.033 9.52397 199.973 9.66025 199.958 9.72082C199.927 9.88737 200.215 10.1448 200.775 10.5536C201.275 10.917 201.79 11.2047 202.259 11.4015C202.774 11.5984 203.304 11.7498 203.909 11.8406C205.121 12.0072 206.06 11.8558 206.756 11.4167C207.225 11.1138 207.498 10.7201 207.559 10.2508C207.649 9.59968 207.362 9.11516 206.695 8.7669C206.468 8.64577 206.241 8.57006 205.984 8.52464L203.909 8.13097C203.092 7.96441 202.456 7.81299 202.017 7.66158C201.563 7.51016 201.169 7.29818 200.836 7.04078C200.518 6.79851 200.291 6.49569 200.139 6.13229C199.988 5.75376 199.942 5.37522 200.003 4.9664C200.109 4.26989 200.442 3.70966 201.017 3.30084C201.457 2.98287 202.032 2.75574 202.728 2.64975C203.425 2.52862 204.182 2.52862 204.969 2.64975C205.62 2.7406 206.226 2.90716 206.771 3.104C207.301 3.30084 207.922 3.61881 208.588 4.04277C208.724 4.11848 208.83 4.17904 208.861 4.17904C208.952 4.17904 209.073 4.10334 209.239 3.93678L209.436 4.07305ZM210.496 12.6885L211.768 4.61815C211.798 4.42131 211.768 4.26989 211.753 4.17904C211.692 4.0882 211.571 4.01249 211.404 3.93678L211.45 3.69452L213.494 4.02763L213.449 4.26989C213.267 4.26989 213.131 4.31532 213.055 4.39102C212.979 4.46673 212.934 4.603 212.888 4.79984L211.616 12.8702C211.571 13.0671 211.586 13.2034 211.632 13.3093C211.677 13.4002 211.798 13.4759 211.965 13.5516L211.934 13.7939L209.89 13.4608L209.936 13.2185C210.133 13.2185 210.269 13.1731 210.345 13.0974C210.405 13.0216 210.451 12.8854 210.496 12.6885ZM217.234 5.90517L215.765 13.5365C215.72 13.7333 215.735 13.8696 215.765 13.9756C215.811 14.0664 215.917 14.1573 216.083 14.233L216.038 14.4601L214.115 14.0967L214.16 13.8544C214.357 13.8544 214.478 13.809 214.569 13.7484C214.645 13.6727 214.69 13.5365 214.72 13.3396L216.28 5.31465C216.325 5.11781 216.325 4.98154 216.28 4.87555C216.235 4.7847 216.129 4.69385 215.947 4.63329L216.007 4.39102L218.778 4.93612L218.748 5.16324C218.506 5.19352 218.354 5.26923 218.354 5.42064C218.324 5.51149 218.4 5.70833 218.566 6.0263L223.079 13.9907L224.441 6.9045C224.487 6.70767 224.487 6.57139 224.441 6.4654C224.381 6.37455 224.275 6.2837 224.108 6.22314L224.154 5.98088L226.077 6.35941L226.031 6.58654C225.849 6.58654 225.728 6.61682 225.637 6.70766C225.562 6.78337 225.501 6.90451 225.471 7.10135L223.911 15.1263C223.866 15.3232 223.866 15.4746 223.911 15.5503C223.957 15.6563 224.063 15.732 224.229 15.8228L224.184 16.0499L221.943 15.6108L222.003 15.3837C222.215 15.3686 222.352 15.308 222.382 15.1566C222.382 15.0657 222.337 14.8689 222.185 14.5812L217.204 5.90517H217.234ZM238.629 10.1296L237.175 11.6135L237.009 11.4621C237.084 11.3107 237.13 11.2198 237.16 11.129C237.205 10.9473 236.963 10.6293 236.418 10.1902C235.707 9.5694 234.874 9.14544 233.905 8.91832C232.572 8.58521 231.421 8.67606 230.437 9.20601C229.438 9.73596 228.772 10.5839 228.469 11.7649C228.196 12.9308 228.378 14.0058 229.044 15.0052C229.68 15.9591 230.619 16.595 231.845 16.8979C233.026 17.2007 234.162 17.1098 235.267 16.6405C235.737 16.4285 236.009 16.2619 236.04 16.1256C236.04 16.0651 236.04 15.944 236.009 15.7774L236.206 15.6866L237.069 17.5035L236.857 17.6095C236.766 17.4581 236.66 17.3824 236.585 17.3521C236.524 17.3521 236.418 17.3521 236.282 17.443C235.767 17.6549 235.358 17.8064 235.04 17.8821C234.707 17.988 234.359 18.0486 233.996 18.0638C233.238 18.1395 232.451 18.0638 231.603 17.8669C229.998 17.4581 228.802 16.6859 228.015 15.5351C227.182 14.3238 226.955 12.9914 227.303 11.5226C227.606 10.3719 228.181 9.46341 229.059 8.78205C230.422 7.72215 232.148 7.4496 234.223 7.96441C235.585 8.31266 236.812 9.00917 237.917 10.0539C237.978 10.1145 238.038 10.1599 238.084 10.1599C238.144 10.1599 238.265 10.1145 238.477 9.97822L238.629 10.1296ZM241.475 15.308L240.4 18.8057L246.442 20.6529C246.639 20.7287 246.775 20.7287 246.881 20.6984C246.972 20.6529 247.078 20.5621 247.169 20.3955L247.396 20.4561L246.851 22.2579L246.623 22.1822C246.623 21.9854 246.623 21.8643 246.533 21.7734C246.487 21.6977 246.351 21.6069 246.154 21.5614L238.583 19.2296L238.659 19.0177C238.856 19.0177 238.992 19.0177 239.083 18.942C239.144 18.8814 239.219 18.7603 239.295 18.5634L241.672 10.7504C241.733 10.5536 241.733 10.4022 241.702 10.3113C241.672 10.2205 241.566 10.1145 241.415 10.0236L241.475 9.79652L248.97 12.0829C249.152 12.1434 249.304 12.1586 249.41 12.1132C249.485 12.0829 249.591 11.992 249.682 11.8255L249.909 11.886L249.379 13.6727L249.152 13.597C249.152 13.4153 249.152 13.2791 249.061 13.2034C249.016 13.1125 248.88 13.0368 248.683 12.9914L242.732 11.1593L241.733 14.3995L245.639 15.5957C245.836 15.6563 245.972 15.6714 246.078 15.626C246.184 15.5957 246.29 15.5049 246.366 15.3383L246.593 15.3989L246.048 17.1856L245.836 17.1098C245.836 16.9281 245.821 16.7919 245.745 16.701C245.7 16.6253 245.564 16.5496 245.367 16.5042L241.475 15.308ZM258.949 17.6398C258.494 17.7155 258.101 17.7155 257.798 17.6549C257.677 17.6247 257.586 17.6095 257.54 17.6398C257.495 17.6549 257.419 17.7306 257.344 17.8669L257.132 17.7761L257.813 16.0651L258.025 16.1408C257.98 16.3528 257.964 16.489 257.964 16.5345C257.964 16.5799 258.01 16.6253 258.101 16.6556C258.313 16.7313 258.555 16.7465 258.888 16.701C259.206 16.6556 259.388 16.5496 259.448 16.4285C259.494 16.3225 259.357 16.2014 259.1 16.0499L259.191 15.8077L261.068 16.5647L260.962 16.7919C260.781 16.7616 260.644 16.7919 260.554 16.8373C260.463 16.8979 260.387 17.0039 260.311 17.1856L257.253 24.7563C257.177 24.938 257.162 25.0742 257.192 25.1802C257.192 25.2711 257.298 25.3922 257.45 25.4982L257.374 25.7253L255.496 24.9683L255.587 24.7411C255.784 24.7714 255.905 24.7411 256.011 24.7109C256.087 24.6654 256.178 24.5292 256.238 24.3475L258.949 17.6398ZM260.887 26.0584L262.598 25.0591L262.704 25.256C262.598 25.3468 262.522 25.4376 262.477 25.4982C262.446 25.6042 262.477 25.7405 262.567 25.9373C263.052 26.8458 263.703 27.512 264.521 27.9057C265.369 28.3297 266.232 28.4054 267.095 28.1631C268.155 27.83 269.003 27.0275 269.623 25.7405L269.79 25.4074C268.548 26.2401 267.17 26.3007 265.671 25.5739C264.672 25.0743 263.991 24.3929 263.612 23.4995C263.249 22.6365 263.264 21.7734 263.673 20.9558C263.991 20.3198 264.445 19.8504 265.066 19.5476C265.656 19.2599 266.323 19.1539 267.095 19.2296C267.67 19.2751 268.245 19.4416 268.806 19.7142C269.684 20.1533 270.35 20.7589 270.789 21.5312C271.228 22.2579 271.395 23.0907 271.334 23.9992C271.259 24.726 271.077 25.4376 270.729 26.1341C270.32 26.9821 269.76 27.6937 269.063 28.2691C268.276 28.9202 267.398 29.2684 266.413 29.3139C265.626 29.329 264.854 29.1624 264.097 28.7839C263.612 28.5568 263.203 28.2842 262.84 27.9511C262.477 27.618 262.113 27.1638 261.704 26.5884C261.568 26.3613 261.477 26.2401 261.447 26.225C261.341 26.1796 261.205 26.1947 261.008 26.2704L260.887 26.0584ZM268.321 20.5924C267.519 20.1987 266.746 20.123 265.974 20.3653C265.369 20.547 264.945 20.9255 264.672 21.4857C264.384 22.046 264.384 22.6213 264.672 23.2118C264.96 23.8629 265.49 24.3777 266.247 24.7411C267.08 25.1651 267.897 25.2559 268.669 25.0591C269.275 24.9077 269.714 24.5746 269.972 24.0598C270.214 23.5601 270.244 23.0453 270.078 22.5153C269.835 21.6826 269.245 21.0315 268.336 20.5924H268.321Z" fill="#A7A9AC"/>
<path fill-rule="evenodd" clip-rule="evenodd" d="M274.969 26.528L274.682 24.5596L274.909 24.5142C274.984 24.711 275.06 24.8321 275.105 24.8624C275.151 24.8927 275.363 24.8927 275.711 24.8624C276.483 24.8321 277.15 24.8624 277.74 25.0138C278.315 25.1501 278.876 25.4075 279.436 25.7709C280.375 26.3766 280.995 27.1185 281.298 27.9664C281.435 28.345 281.48 28.7083 281.45 29.0869C281.419 29.4654 281.298 29.7985 281.101 30.0862C280.587 30.8736 279.769 31.1461 278.649 30.8736C279.027 31.2673 279.284 31.6761 279.39 32.0698C279.587 32.7511 279.496 33.4022 279.088 34.023C278.588 34.7801 277.876 35.1889 276.953 35.2646C275.938 35.3252 274.893 35.0072 273.818 34.3107C273.243 33.9321 272.743 33.5082 272.319 33.0085C271.895 32.5391 271.502 31.9486 271.123 31.2521C271.063 31.1158 271.017 31.0553 270.987 31.0401C270.911 30.9796 270.775 30.9796 270.563 31.0401L270.457 30.8282L272.304 29.9197L272.395 30.1316C272.289 30.2073 272.213 30.2831 272.183 30.3285C272.138 30.4042 272.138 30.5556 272.183 30.7524C272.335 31.2673 272.592 31.7669 273.001 32.2514C273.379 32.736 273.864 33.1751 274.424 33.5385C275.272 34.0836 276.059 34.3258 276.786 34.2501C277.044 34.2198 277.301 34.129 277.558 33.9776C277.785 33.8262 277.982 33.6293 278.134 33.4022C278.437 32.9631 278.497 32.4634 278.331 31.9486C278.149 31.3884 277.634 30.8584 276.816 30.3133L276.044 29.8137C275.863 29.7077 275.741 29.6471 275.635 29.6623C275.514 29.6623 275.408 29.7228 275.257 29.8591L275.075 29.7228L276.09 28.1633L276.286 28.2995C276.226 28.4661 276.211 28.6024 276.241 28.7083C276.287 28.7992 276.392 28.9203 276.559 29.0263L277.21 29.4351C277.604 29.7077 277.967 29.9045 278.209 29.9954C278.482 30.1014 278.755 30.1468 279.012 30.1468C279.512 30.1316 279.875 29.9197 280.117 29.526C280.39 29.1323 280.42 28.6932 280.238 28.1935C280.011 27.5727 279.527 27.0125 278.815 26.5583C277.982 25.998 277.044 25.7709 276.059 25.8769C275.62 25.9223 275.348 26.0283 275.257 26.1494C275.257 26.1949 275.211 26.3009 275.196 26.4826L274.969 26.528ZM289.005 33.2811C289.899 34.129 290.368 35.1435 290.413 36.3851C290.444 37.0361 290.338 37.6721 290.095 38.3383C289.823 39.0348 289.429 39.6859 288.884 40.2613C288.218 40.9881 287.385 41.5029 286.401 41.7754C285.523 42.0328 284.645 42.0328 283.812 41.7754C283.13 41.5786 282.54 41.2455 282.04 40.7761C281.45 40.2007 281.026 39.5345 280.799 38.732C280.541 37.8841 280.556 37.021 280.829 36.1125C281.071 35.2495 281.495 34.4924 282.101 33.8413C282.828 33.0691 283.66 32.5543 284.629 32.2666C285.523 32.0243 286.386 32.0243 287.249 32.2666C287.885 32.4634 288.475 32.8117 289.005 33.2659V33.2811ZM288.324 34.0079C287.582 33.3114 286.704 33.0085 285.674 33.0691C284.614 33.1448 283.66 33.6293 282.828 34.5227C282.01 35.4009 281.586 36.3851 281.586 37.4753C281.586 38.4746 281.965 39.3376 282.706 40.0493C283.464 40.7458 284.357 41.0638 285.356 40.9729C286.431 40.9124 287.37 40.4278 288.173 39.5799C289.036 38.6411 289.444 37.6721 289.444 36.597C289.444 35.5826 289.066 34.7346 288.324 34.0079Z" fill="#A7A9AC"/>
<path fill-rule="evenodd" clip-rule="evenodd" d="M163.391 78.4935L134.289 50.3909L162.407 21.2739L191.509 49.3916L163.391 78.4935Z" fill="#B60B09"/>
<path fill-rule="evenodd" clip-rule="evenodd" d="M156.774 65.6383V55.8115H146.947V43.9557H156.774V34.1289H169.054V43.9557H178.865V55.8115H169.054V65.6383H156.774Z" fill="white"/>
<path d="M33.3263 220.899L32.4784 220.354V219.627C32.4784 217.992 26.2553 215.267 19.4113 215.267C12.5674 215.267 8.16124 216.841 8.16124 220.233C8.16124 229.424 37.8082 217.265 37.8082 235.299C37.8082 243.278 30.1921 247.457 18.3363 247.457C12.3403 247.457 8.60035 246.549 6.05658 245.58C3.57338 244.611 2.42263 243.702 1.69584 243.702C1.45358 243.702 1.09019 243.763 0.787356 243.944L0 243.581L4.48187 235.48L5.26923 235.965C5.26923 236.147 5.20866 236.389 5.20866 236.692C5.20866 238.811 12.4008 241.537 19.9716 241.537C27.5423 241.537 30.7977 238.933 30.7977 235.42C30.7977 226.835 1.15075 237.297 1.15075 221.929C1.15075 215.282 6.54111 209.346 19.1842 209.346C24.514 209.346 27.5877 210.134 31.2822 211.345C33.7049 212.132 35.4613 213.344 35.8247 213.344C36.0669 213.344 36.3092 213.162 36.4909 213.041L37.3388 213.344L33.3415 220.899H33.3263Z" fill="#A7A9AC"/>
<path d="M50.4053 209.952V210.8C49.7391 210.86 49.4969 211.284 49.4969 211.466C49.4969 211.708 49.618 212.071 49.8602 212.738L57.7792 236.57H57.9004L65.6376 213.707C65.9405 212.859 66.2433 212.071 66.2433 211.647C66.2433 211.163 65.9405 210.8 65.2742 210.8V209.952H75.737V210.8C75.0708 210.8 74.7074 211.102 74.7074 211.587C74.7074 212.071 75.0708 212.859 75.3736 213.707L83.2926 236.57H83.4137L91.3932 212.738C91.5749 212.132 91.7567 211.587 91.7567 211.405C91.7567 211.042 91.3933 210.8 90.727 210.8V209.952H99.6151V210.8C98.5249 211.102 98.2826 211.587 97.7981 213.041L87.6987 242.869C87.3354 244.02 86.9114 244.807 86.9114 245.292C86.9114 245.837 87.2748 246.019 88.0621 246.019V246.867H78.0234V246.019C78.5684 246.019 78.9924 245.776 78.9924 245.413C78.9924 244.868 78.7501 244.383 78.5684 243.899L70.1649 219.642H69.9832L61.822 243.596C61.5797 244.383 61.2769 244.868 61.2769 245.352C61.2769 245.716 61.6403 246.019 62.4277 246.019V246.867H52.8128V246.019C53.3579 246.019 53.7213 245.716 53.7213 245.473C53.7213 244.747 53.2974 243.657 52.9945 242.869L42.6529 213.041C42.1078 211.345 41.8656 210.981 40.8359 210.8V209.952H50.3902H50.4053Z" fill="#A7A9AC"/>
<path d="M112.94 244.55C112.94 245.64 113.182 246.003 114.454 246.003V246.851H103.87V246.003C105.384 246.003 105.566 245.64 105.566 244.55V212.253C105.566 211.163 105.384 210.8 103.87 210.8V209.952H114.454V210.8C113.182 210.8 112.94 211.163 112.94 212.253V244.55Z" fill="#A7A9AC"/>
<path d="M152.914 220.899L152.066 220.354V219.627C152.066 217.992 145.843 215.267 138.999 215.267C132.155 215.267 127.749 216.841 127.749 220.233C127.749 229.424 157.396 217.265 157.396 235.299C157.396 243.278 149.78 247.457 137.924 247.457C131.928 247.457 128.188 246.549 125.644 245.58C123.161 244.611 122.011 243.702 121.284 243.702C121.041 243.702 120.678 243.763 120.375 243.944L119.588 243.581L124.07 235.48L124.857 235.965C124.857 236.147 124.797 236.389 124.797 236.692C124.797 238.811 131.989 241.537 139.559 241.537C147.13 241.537 150.386 238.933 150.386 235.42C150.386 226.835 120.739 237.297 120.739 221.929C120.739 215.282 126.129 209.346 138.772 209.346C144.102 209.346 147.176 210.134 150.87 211.345C153.293 212.132 155.049 213.344 155.413 213.344C155.655 213.344 155.897 213.162 156.079 213.041L156.927 213.344L152.929 220.899H152.914Z" fill="#A7A9AC"/>
<path d="M195.173 220.899L194.325 220.354V219.627C194.325 217.992 188.087 215.267 181.258 215.267C174.429 215.267 170.008 216.841 170.008 220.233C170.008 229.424 199.655 217.265 199.655 235.299C199.655 243.278 192.039 247.457 180.183 247.457C174.187 247.457 170.447 246.549 167.903 245.58C165.42 244.611 164.269 243.702 163.543 243.702C163.3 243.702 162.937 243.763 162.634 243.944L161.847 243.581L166.329 235.48L167.116 235.965C167.116 236.147 167.055 236.389 167.055 236.692C167.055 238.811 174.248 241.537 181.818 241.537C189.389 241.537 192.644 238.933 192.644 235.42C192.644 226.835 162.997 237.297 162.997 221.929C162.997 215.282 168.388 209.346 181.031 209.346C186.361 209.346 189.434 210.134 193.129 211.345C195.552 212.132 197.308 213.344 197.671 213.344C197.914 213.344 198.156 213.162 198.338 213.041L199.186 213.344L195.188 220.899H195.173Z" fill="#A7A9AC"/>
<path d="M243.717 209.952V210.8C242.93 210.8 242.203 211.587 241.779 212.617L228.107 244.065C227.864 244.671 227.683 244.974 227.683 245.398C227.683 245.761 227.985 245.943 228.652 246.003V246.851H218.734V246.003C219.4 246.003 219.521 245.701 219.521 245.398C219.521 245.216 219.219 244.489 218.976 244.005L204.637 212.617C204.274 211.89 204.032 210.8 202.699 210.8V209.952H213.101V210.8C212.556 210.8 212.132 210.981 212.132 211.405C212.132 211.829 213.465 214.373 215.887 219.688L223.988 237.782L231.847 219.688C233.482 215.933 235.359 211.89 235.359 211.405C235.359 210.981 234.875 210.8 234.39 210.8V209.952H243.702H243.717Z" fill="#A7A9AC"/>
<path d="M265.4 230.998H253.302L259.298 217.689L265.415 230.998H265.4ZM248.214 246.851V246.003C247.548 246.003 247.185 245.761 247.185 245.156C247.185 244.732 247.548 244.186 250.637 236.934H268.065C271.456 244.429 271.759 244.732 271.759 245.398C271.759 245.822 271.456 246.003 270.972 246.003V246.851H280.829V246.003C280.284 246.003 279.86 245.398 279.315 244.186L264.794 212.738C264.552 212.193 264.249 211.829 264.249 211.405C264.249 211.042 264.613 210.8 264.976 210.8V209.952H254.392V210.8C254.755 210.8 255.058 211.163 255.058 211.405C255.058 211.89 254.816 212.314 254.634 212.738L240.962 243.172C240.174 244.928 240.053 245.958 238.842 246.019V246.867H248.214V246.851Z" fill="#A7A9AC"/>
<path d="M283.009 246.851V246.003C284.341 246.003 285.129 245.216 286.037 244.005L298.438 227.849L286.764 212.783C286.098 211.875 285.371 210.784 284.038 210.784V209.937H296.258V210.784C295.773 210.784 295.228 211.087 295.228 211.572C295.228 211.814 295.41 212.48 295.834 213.086L303.026 222.277L310.157 213.025C310.763 212.299 311.005 211.875 311.005 211.572C311.005 211.087 310.581 210.784 310.097 210.784V209.937H321.71V210.784C320.56 210.784 319.772 211.148 318.5 212.783L307.008 227.364L319.833 244.005C320.741 245.216 321.408 245.943 323.043 246.003V246.851H310.702V246.003C311.369 246.003 311.732 245.882 311.732 245.458C311.732 245.034 311.49 244.792 311.066 244.247L302.541 233.118L294.259 243.823C293.714 244.55 293.229 244.913 293.229 245.398C293.229 245.822 293.411 246.003 294.562 246.003V246.851H283.009Z" fill="#A7A9AC"/>
<path d="M330.357 216.099C330.357 216.735 330.538 216.856 331.144 216.871V217.447H328.025V216.871C328.661 216.856 328.842 216.735 328.842 216.099V211.527H328.328C327.677 211.527 327.389 211.996 327.298 212.556H326.723V210.951H332.446V212.556H331.871C331.78 211.996 331.492 211.527 330.856 211.527H330.357V216.099ZM334.899 213.283H334.869V215.812C334.869 216.584 334.944 216.811 335.686 216.871V217.447H333.43V216.871C334.081 216.811 334.157 216.584 334.157 215.812V212.314C334.051 211.814 333.612 211.527 333.128 211.527V210.951H335.338L337.625 215.584L339.911 210.951H342V211.527C341.258 211.527 341.122 211.784 341.122 212.314V216.099C341.122 216.735 341.304 216.856 341.925 216.871V217.447H338.881V216.871C339.426 216.856 339.608 216.735 339.608 216.099V213.192H339.578L337.458 217.477H337.079L334.929 213.298L334.899 213.283Z" fill="#A7A9AC"/>
<path d="M3.76992 266.505V270.305C3.76992 270.563 3.95162 270.684 4.14846 270.684V271.138H0.96875V270.684C1.16559 270.684 1.34729 270.563 1.34729 270.305V260.887C1.34729 260.63 1.16559 260.509 0.96875 260.509V260.055H4.14846V260.509C3.95162 260.509 3.76992 260.63 3.76992 260.887V264.431H10.523V260.887C10.523 260.63 10.3413 260.509 10.1445 260.509V260.055H13.3242V260.509C13.1273 260.509 12.9456 260.63 12.9456 260.887V270.305C12.9456 270.563 13.1273 270.684 13.3242 270.684V271.138H10.1445V270.684C10.3413 270.684 10.523 270.563 10.523 270.305V266.505H3.76992Z" fill="#A7A9AC"/>
<path d="M17.0049 271.138V270.684C17.5348 270.684 17.7165 270.563 17.7165 270.305V260.887C17.7165 260.63 17.5348 260.509 17.0049 260.509V260.055H20.8357V260.509C20.3511 260.509 20.124 260.63 20.124 260.887V270.305C20.124 270.563 20.3511 270.684 20.8357 270.684V271.138H17.0049Z" fill="#A7A9AC"/>
<path d="M35.6435 260.963L34.19 263.704L33.8871 263.522C33.9174 263.416 33.9326 263.325 33.9326 263.25C33.9326 262.614 32.0399 261.766 30.2078 261.766C27.7397 261.766 25.6048 262.841 25.6048 265.642C25.6048 268.443 28.0274 269.412 29.9806 269.412C31.4191 269.412 32.7515 269.23 33.8114 268.685V267.096H31.2222C30.8437 267.096 30.5409 267.217 30.4955 267.625H30.0412V265.036H30.4955C30.5409 265.369 30.8437 265.445 31.2222 265.445H36.1584V265.899C35.8555 266.02 35.7798 266.172 35.7798 266.505V268.897C35.7798 269.2 35.8252 269.276 36.1584 269.397V269.7C35.5527 270.124 33.5086 271.29 30.2986 271.29C25.9227 271.29 23.1973 269.124 23.1973 265.597C23.1973 262.069 25.9227 259.903 30.2986 259.903C31.6159 259.903 32.6153 260.176 33.342 260.464C34.0991 260.736 34.5685 261.024 34.7956 261.024C35.053 261.024 35.1439 260.978 35.3559 260.827L35.6587 260.978L35.6435 260.963Z" fill="#A7A9AC"/>
<path d="M41.9115 266.505V270.305C41.9115 270.563 42.0932 270.684 42.2901 270.684V271.138H39.1104V270.684C39.3072 270.684 39.4889 270.563 39.4889 270.305V260.887C39.4889 260.63 39.3072 260.509 39.1104 260.509V260.055H42.2901V260.509C42.0932 260.509 41.9115 260.63 41.9115 260.887V264.431H48.6646V260.887C48.6646 260.63 48.4829 260.509 48.2861 260.509V260.055H51.4658V260.509C51.2689 260.509 51.0872 260.63 51.0872 260.887V270.305C51.0872 270.563 51.2689 270.684 51.4658 270.684V271.138H48.2861V270.684C48.4829 270.684 48.6646 270.563 48.6646 270.305V266.505H41.9115Z" fill="#A7A9AC"/>
<path d="M64.5029 261.932H68.7274C69.6813 261.932 70.4384 262.311 70.4384 263.34C70.4384 264.37 69.6813 264.673 68.7274 264.673H64.5029V261.932ZM62.0803 270.305C62.0803 270.563 61.8834 270.684 61.4443 270.684V271.138H65.0177V270.684C64.6695 270.684 64.4878 270.563 64.4878 270.305V266.535H68.7728C71.468 266.535 72.8458 265.748 72.8458 263.34C72.8458 260.933 71.468 260.07 68.7728 260.07H61.4443V260.524C61.8683 260.524 62.0803 260.645 62.0803 260.903V270.321V270.305Z" fill="#A7A9AC"/>
<path d="M85.2004 262.402H84.7462C84.7462 262.054 84.4888 261.917 83.9589 261.917H77.8114V264.431H81.6876C82.263 264.431 82.5204 264.385 82.5204 264.022H82.9747V266.687H82.475C82.581 266.339 82.1419 266.278 81.4908 266.278H77.8114V269.246H84.2617C84.6705 269.246 84.9733 269.049 84.9733 268.746H85.4276V271.471H84.9733C84.9733 271.169 84.6705 271.123 84.2617 271.123H75.0254V270.669C75.2071 270.669 75.4039 270.548 75.4039 270.29V260.872C75.4039 260.615 75.2071 260.494 75.0254 260.494V260.04H83.9589C84.4888 260.04 84.7462 259.843 84.7462 259.585H85.2004V262.387V262.402Z" fill="#A7A9AC"/>
<path d="M91.0302 261.932H95.0124C96.7234 261.932 97.4805 262.462 97.4805 263.295C97.4805 264.325 96.6931 264.855 95.0124 264.855H91.0302V261.932ZM88.1079 260.07V260.524C88.3805 260.524 88.5622 260.645 88.5622 260.903V270.321C88.5622 270.578 88.3805 270.699 88.1079 270.699V271.153H91.4542V270.699C91.2573 270.699 90.9697 270.578 90.9697 270.321V266.717H94.4673L96.4509 269.685C96.7083 270.033 96.8294 270.26 96.8294 270.472C96.8294 270.654 96.6477 270.699 96.4963 270.699V271.153H100.342V270.699C99.9637 270.593 99.6306 270.427 99.3883 270.078L96.9202 266.475C98.2981 266.142 99.7971 265.188 99.7971 263.356C99.7971 260.963 98.0407 260.085 95.0427 260.085H88.0928L88.1079 260.07Z" fill="#A7A9AC"/>
<path d="M113.682 262.281H113.228C113.228 262.099 113.031 261.932 112.441 261.932H105.612V264.597H110.048C110.608 264.597 110.684 264.491 110.699 264.219H111.154V266.868H110.699C110.669 266.596 110.593 266.46 110.048 266.46H105.612V270.306C105.612 270.563 105.884 270.684 106.187 270.684V271.138H102.705V270.684C103.007 270.684 103.189 270.563 103.189 270.306V260.888C103.189 260.63 103.007 260.509 102.659 260.509V260.055H112.425C113.001 260.055 113.213 259.858 113.213 259.601H113.667V262.265L113.682 262.281Z" fill="#A7A9AC"/>
<path d="M121.661 261.781C123.826 261.781 125.946 263.219 125.946 265.612C125.946 268.004 123.826 269.442 121.661 269.442C119.496 269.442 117.376 268.004 117.376 265.612C117.376 263.219 119.496 261.781 121.661 261.781ZM121.661 259.918C117.982 259.918 114.969 261.751 114.969 265.612C114.969 269.473 117.997 271.305 121.661 271.305C125.326 271.305 128.354 269.473 128.354 265.612C128.354 261.751 125.326 259.918 121.661 259.918Z" fill="#A7A9AC"/>
<path d="M133.442 261.932H137.425C139.135 261.932 139.893 262.462 139.893 263.295C139.893 264.325 139.105 264.855 137.425 264.855H133.442V261.932ZM130.52 260.07V260.524C130.793 260.524 130.974 260.645 130.974 260.903V270.321C130.974 270.578 130.793 270.699 130.52 270.699V271.153H133.866V270.699C133.669 270.699 133.382 270.578 133.382 270.321V266.717H136.879L138.863 269.685C139.12 270.033 139.241 270.26 139.241 270.472C139.241 270.654 139.06 270.699 138.908 270.699V271.153H142.754V270.699C142.376 270.593 142.043 270.427 141.8 270.078L139.332 266.475C140.71 266.142 142.209 265.188 142.209 263.356C142.209 260.963 140.453 260.085 137.455 260.085H130.505L130.52 260.07Z" fill="#A7A9AC"/>
<path d="M145.494 271.138V270.684C145.676 270.654 145.797 270.608 145.797 270.23V261.009C145.797 260.554 145.721 260.509 145.494 260.509V260.055H148.992V260.509C148.871 260.509 148.734 260.585 148.734 260.736C148.734 260.857 148.856 261.069 149.083 261.463L152.156 267.126L155.26 261.493C155.487 261.084 155.639 260.842 155.639 260.736C155.639 260.585 155.533 260.509 155.442 260.509V260.055H158.985V260.509C158.834 260.509 158.637 260.585 158.637 260.842V270.305C158.637 270.563 158.834 270.684 158.985 270.684V271.138H156.063V270.684C156.396 270.684 156.563 270.563 156.517 270.305V263.234H156.472L152.187 271.138H151.99L147.932 263.234H147.962H147.917V270.305C147.917 270.563 148.098 270.684 148.341 270.684V271.138H145.494Z" fill="#A7A9AC"/>
<path d="M167.282 262.28L169.326 266.505H165.495L167.282 262.28ZM164.284 271.138V270.684C163.981 270.684 163.799 270.639 163.799 270.381C163.799 270.199 163.905 270.003 164.026 269.73L164.738 268.367H170.128L170.81 269.806C170.916 270.063 170.991 270.215 170.991 270.411C170.991 270.669 170.734 270.76 170.583 270.76V271.138H174.156V270.684C173.929 270.639 173.702 270.502 173.55 270.199L169.477 261.645C169.296 261.266 169.129 260.993 169.129 260.781C169.129 260.554 169.28 260.554 169.386 260.509V260.055H165.586V260.509C165.692 260.554 165.783 260.585 165.783 260.781C165.783 261.039 165.662 261.311 165.45 261.766L161.695 269.957C161.573 270.23 161.316 270.639 160.907 270.684V271.138H164.284Z" fill="#A7A9AC"/>
<path d="M175.762 271.138V270.684C176.019 270.684 176.216 270.563 176.216 270.305V260.887C176.216 260.63 176.019 260.509 175.762 260.509V260.055H179.471V260.509C179.32 260.539 179.29 260.554 179.29 260.63C179.29 260.751 179.487 260.933 179.85 261.311L185.891 267.701V260.872C185.891 260.615 185.695 260.494 185.392 260.494V260.04H188.465V260.494C188.208 260.494 188.011 260.615 188.011 260.872V270.29C188.011 270.548 188.208 270.669 188.465 270.669V271.123H185.195V270.669C185.301 270.669 185.377 270.639 185.377 270.548C185.377 270.427 184.998 270.048 184.589 269.609L178.351 262.962V270.29C178.351 270.548 178.548 270.669 178.881 270.669V271.123H175.777L175.762 271.138Z" fill="#A7A9AC"/>
<path d="M200.79 263.431L200.518 263.234C200.518 263.234 200.488 263.113 200.488 263.007C200.488 262.659 199.049 261.766 197.035 261.766C194.643 261.766 192.932 263.083 192.932 265.521C192.932 267.959 194.9 269.427 196.854 269.427C198.64 269.427 200.836 268.398 200.836 267.822C200.836 267.701 200.836 267.565 200.805 267.368L201.078 267.111L202.94 269.776L202.683 269.897C202.532 269.821 202.41 269.776 202.259 269.776C201.699 269.776 199.821 271.29 196.793 271.29C193.765 271.29 190.494 269.321 190.494 265.581C190.494 261.841 193.689 259.918 196.99 259.918C198.292 259.918 199.352 260.221 200.109 260.494C200.881 260.766 201.563 261.069 201.714 261.069C201.896 261.069 201.986 260.948 202.123 260.872L202.426 261.054L200.76 263.446L200.79 263.431Z" fill="#A7A9AC"/>
<path d="M215.145 262.402H214.691C214.691 262.054 214.433 261.917 213.903 261.917H207.756V264.431H211.632C212.207 264.431 212.465 264.385 212.465 264.022H212.919V266.687H212.419C212.525 266.339 212.086 266.278 211.435 266.278H207.756V269.246H214.206C214.615 269.246 214.918 269.049 214.918 268.746H215.372V271.471H214.918C214.918 271.169 214.615 271.123 214.206 271.123H204.97V270.669C205.151 270.669 205.348 270.548 205.348 270.29V260.872C205.348 260.615 205.151 260.494 204.97 260.494V260.04H213.903C214.433 260.04 214.691 259.843 214.691 259.585H215.145V262.387V262.402Z" fill="#A7A9AC"/>
<path d="M234.057 263.431L233.784 263.234C233.784 263.234 233.754 263.113 233.754 263.007C233.754 262.659 232.316 261.766 230.302 261.766C227.909 261.766 226.199 263.083 226.199 265.521C226.199 267.959 228.167 269.427 230.12 269.427C231.907 269.427 234.102 268.398 234.102 267.822C234.102 267.701 234.102 267.565 234.072 267.368L234.345 267.111L236.207 269.776L235.95 269.897C235.798 269.821 235.677 269.776 235.526 269.776C234.965 269.776 233.088 271.29 230.06 271.29C227.031 271.29 223.761 269.321 223.761 265.581C223.761 261.841 226.956 259.918 230.256 259.918C231.574 259.918 232.618 260.221 233.376 260.494C234.163 260.766 234.829 261.069 234.981 261.069C235.162 261.069 235.253 260.948 235.389 260.872L235.692 261.054L234.027 263.446L234.057 263.431Z" fill="#A7A9AC"/>
<path d="M242.914 262.28L244.958 266.505H241.127L242.914 262.28ZM239.916 271.138V270.684C239.613 270.684 239.431 270.639 239.431 270.381C239.431 270.199 239.537 270.003 239.658 269.73L240.37 268.367H245.76L246.442 269.806C246.548 270.063 246.623 270.215 246.623 270.411C246.623 270.669 246.366 270.76 246.214 270.76V271.138H249.788V270.684C249.561 270.639 249.334 270.502 249.182 270.199L245.109 261.645C244.927 261.266 244.761 260.993 244.761 260.781C244.761 260.554 244.912 260.554 245.018 260.509V260.055H241.218V260.509C241.324 260.554 241.415 260.585 241.415 260.781C241.415 261.039 241.293 261.311 241.081 261.766L237.326 269.957C237.205 270.23 236.948 270.639 236.539 270.684V271.138H239.916Z" fill="#A7A9AC"/>
<path d="M254.256 261.932H258.238C259.949 261.932 260.706 262.462 260.706 263.295C260.706 264.325 259.934 264.855 258.238 264.855H254.256V261.932ZM251.333 260.07V260.524C251.606 260.524 251.788 260.645 251.788 260.903V270.321C251.788 270.578 251.606 270.699 251.333 270.699V271.153H254.68V270.699C254.483 270.699 254.195 270.578 254.195 270.321V266.717H257.693L259.676 269.685C259.934 270.033 260.055 270.26 260.055 270.472C260.055 270.654 259.873 270.699 259.722 270.699V271.153H263.568V270.699C263.189 270.593 262.856 270.427 262.614 270.078L260.146 266.475C261.524 266.142 263.023 265.188 263.023 263.356C263.023 260.963 261.266 260.085 258.268 260.085H251.318L251.333 260.07Z" fill="#A7A9AC"/>
<path d="M281.904 263.431L281.631 263.234C281.631 263.234 281.601 263.113 281.601 263.007C281.601 262.659 280.162 261.766 278.149 261.766C275.756 261.766 274.045 263.083 274.045 265.521C274.045 267.959 276.014 269.427 277.967 269.427C279.754 269.427 281.949 268.398 281.949 267.822C281.949 267.701 281.949 267.565 281.919 267.368L282.191 267.111L284.054 269.776L283.796 269.897C283.645 269.821 283.524 269.776 283.372 269.776C282.812 269.776 280.935 271.29 277.906 271.29C274.878 271.29 271.607 269.321 271.607 265.581C271.607 261.841 274.802 259.918 278.103 259.918C279.42 259.918 280.465 260.221 281.222 260.494C282.01 260.766 282.676 261.069 282.827 261.069C283.009 261.069 283.1 260.948 283.236 260.872L283.539 261.054L281.873 263.446L281.904 263.431Z" fill="#A7A9AC"/>
<path d="M290.762 262.28L292.806 266.505H288.975L290.762 262.28ZM287.764 271.138V270.684C287.461 270.684 287.279 270.639 287.279 270.381C287.279 270.199 287.385 270.003 287.506 269.73L288.218 268.367H293.608L294.29 269.806C294.396 270.063 294.471 270.215 294.471 270.411C294.471 270.669 294.214 270.76 294.063 270.76V271.138H297.636V270.684C297.409 270.639 297.182 270.502 297.03 270.199L292.957 261.645C292.776 261.266 292.609 260.993 292.609 260.781C292.609 260.554 292.76 260.554 292.866 260.509V260.055H289.066V260.509C289.172 260.554 289.263 260.585 289.263 260.781C289.263 261.039 289.142 261.311 288.93 261.766L285.175 269.957C285.053 270.23 284.796 270.639 284.402 270.684V271.138H287.779H287.764Z" fill="#A7A9AC"/>
<path d="M302.088 261.932H306.07C307.781 261.932 308.538 262.462 308.538 263.295C308.538 264.325 307.751 264.855 306.07 264.855H302.088V261.932ZM299.166 260.07V260.524C299.438 260.524 299.62 260.645 299.62 260.903V270.321C299.62 270.578 299.438 270.699 299.166 270.699V271.153H302.512V270.699C302.315 270.699 302.027 270.578 302.027 270.321V266.717H305.525L307.508 269.685C307.766 270.033 307.887 270.26 307.887 270.472C307.887 270.654 307.705 270.699 307.554 270.699V271.153H311.4V270.699C311.021 270.593 310.688 270.427 310.446 270.078L307.978 266.475C309.356 266.142 310.855 265.188 310.855 263.356C310.855 260.963 309.098 260.085 306.1 260.085H299.15L299.166 260.07Z" fill="#A7A9AC"/>
<path d="M324.117 262.402H323.663C323.663 262.054 323.406 261.917 322.876 261.917H316.728V264.431H320.605C321.18 264.431 321.437 264.385 321.437 264.022H321.892V266.687H321.392C321.498 266.339 321.059 266.278 320.408 266.278H316.728V269.246H323.179C323.587 269.246 323.89 269.049 323.89 268.746H324.345V271.471H323.89C323.89 271.169 323.587 271.123 323.179 271.123H313.942V270.669C314.124 270.669 314.321 270.548 314.321 270.29V260.872C314.321 260.615 314.124 260.494 313.942 260.494V260.04H322.876C323.406 260.04 323.663 259.843 323.663 259.585H324.117V262.387V262.402Z" fill="#A7A9AC"/>
<path d="M3.76992 286.189V289.99C3.76992 290.247 3.95162 290.368 4.14846 290.368V290.822H0.96875V290.368C1.16559 290.368 1.34729 290.247 1.34729 289.99V280.572C1.34729 280.314 1.16559 280.193 0.96875 280.193V279.739H4.14846V280.193C3.95162 280.193 3.76992 280.314 3.76992 280.572V284.115H10.523V280.572C10.523 280.314 10.3413 280.193 10.1445 280.193V279.739H13.3242V280.193C13.1273 280.193 12.9456 280.314 12.9456 280.572V289.99C12.9456 290.247 13.1273 290.368 13.3242 290.368V290.822H10.1445V290.368C10.3413 290.368 10.523 290.247 10.523 289.99V286.189H3.76992Z" fill="#A7A9AC"/>
<path d="M22.1226 281.965L24.1667 286.189H20.3359L22.1226 281.965ZM19.1246 290.822V290.368C18.8218 290.368 18.6401 290.323 18.6401 290.065C18.6401 289.884 18.7461 289.687 18.8672 289.414L19.5788 288.051H24.9692L25.6506 289.49C25.7565 289.747 25.8323 289.899 25.8323 290.096C25.8323 290.353 25.5748 290.444 25.4234 290.444V290.822H28.9968V290.368C28.7697 290.323 28.5426 290.186 28.3912 289.884L24.3181 281.329C24.1364 280.95 23.9699 280.678 23.9699 280.466C23.9699 280.238 24.1213 280.238 24.2273 280.193V279.739H20.4268V280.193C20.5327 280.238 20.6236 280.269 20.6236 280.466C20.6236 280.723 20.5025 280.996 20.2905 281.45L16.5354 289.641C16.4143 289.914 16.1569 290.323 15.748 290.368V290.822H19.1246Z" fill="#A7A9AC"/>
<path d="M31.2363 290.822V290.368C31.4937 290.368 31.6906 290.247 31.6906 289.99V280.572C31.6906 280.314 31.4937 280.193 31.2363 280.193V279.739H34.9308V280.193C34.7794 280.223 34.7491 280.238 34.7491 280.314C34.7491 280.435 34.946 280.617 35.3094 280.996L41.3508 287.385V280.556C41.3508 280.299 41.154 280.178 40.8511 280.178V279.724H43.9249V280.178C43.6675 280.178 43.4706 280.299 43.4706 280.556V289.974C43.4706 290.232 43.6675 290.353 43.9249 290.353V290.807H40.6543V290.353C40.7603 290.353 40.836 290.323 40.836 290.232C40.836 290.111 40.4575 289.732 40.0487 289.293L33.8104 282.646V289.974C33.8104 290.232 34.0072 290.353 34.3403 290.353V290.807H31.2363V290.822Z" fill="#A7A9AC"/>
<path d="M50.497 281.616H53.7676C55.8268 281.616 57.6438 281.874 57.6438 285.22C57.6438 288.566 55.8268 288.975 53.7676 288.975H50.497V281.616ZM54.6004 290.822C58.5523 290.822 60.0664 288.082 60.0664 285.281C60.0664 282.479 58.4614 279.739 54.4944 279.739H47.499V280.193C47.9078 280.193 48.0744 280.314 48.0744 280.572V289.99C48.0744 290.247 47.8927 290.368 47.499 290.368V290.822H54.6004Z" fill="#A7A9AC"/>
<path d="M70.8613 290.822V290.368C71.043 290.338 71.1642 290.292 71.1642 289.914V280.693C71.1642 280.238 71.0884 280.193 70.8613 280.193V279.739H74.359V280.193C74.2379 280.193 74.1016 280.269 74.1016 280.42C74.1016 280.541 74.2227 280.753 74.4499 281.147L77.5236 286.81L80.6276 281.177C80.8547 280.768 81.0061 280.526 81.0061 280.42C81.0061 280.269 80.9001 280.193 80.8093 280.193V279.739H84.3524V280.193C84.201 280.193 84.0041 280.269 84.0041 280.526V289.99C84.0041 290.247 84.201 290.368 84.3524 290.368V290.822H81.4301V290.368C81.7632 290.368 81.9297 290.247 81.8843 289.99V282.918H81.8389L77.5538 290.822H77.357L73.2991 282.918H73.3294H73.284V289.99C73.284 290.247 73.4657 290.368 73.7079 290.368V290.822H70.8613Z" fill="#A7A9AC"/>
<path d="M93.2715 281.965L95.3156 286.189H91.4848L93.2715 281.965ZM90.2887 290.822V290.368C89.9858 290.368 89.8041 290.323 89.8041 290.065C89.8041 289.884 89.9101 289.687 90.0313 289.414L90.7429 288.051H96.1333L96.8146 289.49C96.9206 289.747 96.9963 289.899 96.9963 290.096C96.9963 290.353 96.7389 290.444 96.5875 290.444V290.822H100.161V290.368C99.9338 290.323 99.7066 290.186 99.5552 289.884L95.4822 281.329C95.3005 280.95 95.1339 280.678 95.1339 280.466C95.1339 280.238 95.2853 280.238 95.3913 280.193V279.739H91.5908V280.193C91.6968 280.238 91.7877 280.269 91.7877 280.466C91.7877 280.723 91.6665 280.996 91.4545 281.45L87.6995 289.641C87.5783 289.914 87.3209 290.323 86.9121 290.368V290.822H90.2887Z" fill="#A7A9AC"/>
<path d="M105.036 281.616H108.307C110.366 281.616 112.183 281.874 112.183 285.22C112.183 288.566 110.366 288.975 108.307 288.975H105.036V281.616ZM109.139 290.822C113.091 290.822 114.605 288.082 114.605 285.281C114.605 282.479 113 279.739 109.033 279.739H102.038V280.193C102.447 280.193 102.613 280.314 102.613 280.572V289.99C102.613 290.247 102.432 290.368 102.038 290.368V290.822H109.139Z" fill="#A7A9AC"/>
<path d="M127.793 282.086H127.339C127.339 281.738 127.082 281.601 126.552 281.601H120.404V284.115H124.28C124.856 284.115 125.113 284.069 125.113 283.706H125.567V286.371H125.068C125.174 286.023 124.735 285.962 124.084 285.962H120.404V288.93H126.854C127.263 288.93 127.566 288.733 127.566 288.43H128.02V291.156H127.566C127.566 290.853 127.263 290.807 126.854 290.807H117.618V290.353C117.8 290.353 117.997 290.232 117.997 289.975V280.557C117.997 280.299 117.8 280.178 117.618 280.178V279.724H126.552C127.082 279.724 127.339 279.527 127.339 279.27H127.793V282.071V282.086Z" fill="#A7A9AC"/>
<path d="M139.15 290.822V290.368C139.68 290.368 139.862 290.247 139.862 289.99V280.572C139.862 280.314 139.68 280.193 139.15 280.193V279.739H142.981V280.193C142.497 280.193 142.27 280.314 142.27 280.572V289.99C142.27 290.247 142.497 290.368 142.981 290.368V290.822H139.15Z" fill="#A7A9AC"/>
<path d="M147.145 290.822V290.368C147.402 290.368 147.599 290.247 147.599 289.99V280.572C147.599 280.314 147.402 280.193 147.145 280.193V279.739H150.839V280.193C150.688 280.223 150.657 280.238 150.657 280.314C150.657 280.435 150.854 280.617 151.218 280.996L157.259 287.385V280.556C157.259 280.299 157.062 280.178 156.759 280.178V279.724H159.833V280.178C159.576 280.178 159.379 280.299 159.379 280.556V289.974C159.379 290.232 159.576 290.353 159.833 290.353V290.807H156.563V290.353C156.669 290.353 156.744 290.323 156.744 290.232C156.744 290.111 156.366 289.732 155.957 289.293L149.719 282.646V289.974C149.719 290.232 149.915 290.353 150.249 290.353V290.807H147.145V290.822Z" fill="#A7A9AC"/>
<path d="M171.538 286.84L172.022 286.961C172.022 287.082 171.992 287.264 171.992 287.416C171.992 288.415 174.99 289.096 175.99 289.096C176.898 289.096 179.094 288.899 179.094 287.612C179.094 285.417 170.735 287.385 170.735 283.1C170.735 280.965 172.643 279.572 175.823 279.572C179.003 279.572 180.275 280.784 180.759 280.784C181.032 280.784 181.107 280.678 181.319 280.587L181.592 280.859L180.335 283.221L179.881 283.07C179.851 282.873 179.851 282.661 179.608 282.464C178.927 281.889 177.413 281.435 175.687 281.435C174.354 281.435 173.173 281.768 173.173 282.691C173.173 284.857 181.531 282.843 181.531 287.294C181.531 290.217 178.336 290.943 176.035 290.943C173.733 290.943 171.326 289.732 171.053 289.732C170.932 289.732 170.826 289.778 170.751 289.884L170.402 289.626L171.553 286.81L171.538 286.84Z" fill="#A7A9AC"/>
<path d="M186.648 279.754V280.208C186.421 280.208 186.315 280.36 186.315 280.556C186.315 280.708 186.467 281.086 186.664 281.616L188.874 287.733H188.92L191.055 281.737C191.236 281.253 191.403 280.799 191.403 280.556C191.403 280.314 191.282 280.208 190.994 280.208V279.754H194.598V280.208C194.295 280.208 194.144 280.284 194.144 280.511C194.144 280.738 194.371 281.268 194.522 281.662L196.733 287.733L199.08 281.616C199.261 281.132 199.382 280.784 199.382 280.556C199.382 280.284 199.201 280.208 198.974 280.208V279.754H202.168V280.208C201.866 280.208 201.639 280.481 201.411 281.147L198.519 288.824C198.323 289.384 198.065 289.884 198.065 290.05C198.065 290.247 198.217 290.383 198.413 290.383V290.837H194.885V290.383C195.143 290.353 195.188 290.308 195.188 290.035C195.188 289.732 193.826 286.28 192.751 282.903H192.705C192.478 283.812 189.964 289.747 189.964 290.035C189.964 290.323 190.04 290.383 190.343 290.383V290.837H187.239V290.383C187.36 290.383 187.496 290.383 187.496 290.186C187.496 289.99 187.345 289.611 187.269 289.429L183.938 280.693C183.832 280.42 183.681 280.269 183.408 280.208V279.754H186.603H186.648Z" fill="#A7A9AC"/>
<path d="M204.728 290.822V290.368C205.257 290.368 205.439 290.247 205.439 289.99V280.572C205.439 280.314 205.257 280.193 204.728 280.193V279.739H208.558V280.193C208.074 280.193 207.847 280.314 207.847 280.572V289.99C207.847 290.247 208.074 290.368 208.558 290.368V290.822H204.728Z" fill="#A7A9AC"/>
<path d="M215.372 290.368C215.554 290.368 215.751 290.247 215.751 289.99V281.601H212.48C212.223 281.601 211.92 281.722 211.92 282.025H211.466V279.133H211.92C211.92 279.618 212.223 279.739 212.48 279.739H221.444C221.701 279.739 222.004 279.618 222.004 279.133H222.459V282.025H222.004C222.004 281.722 221.701 281.601 221.444 281.601H218.173V289.99C218.173 290.247 218.37 290.368 218.628 290.368V290.823H215.372V290.368Z" fill="#A7A9AC"/>
<path d="M224.517 290.368L231.361 281.601H225.592C225.168 281.601 224.956 281.859 224.956 282.101H224.502V279.148H224.956C224.956 279.527 225.153 279.724 225.592 279.724H235.616V280.178L228.59 288.945H234.601C235.025 288.945 235.177 288.748 235.177 288.415H235.631V291.14H235.177C235.177 290.944 235.025 290.807 234.601 290.807H224.502V290.353L224.517 290.368Z" fill="#A7A9AC"/>
<path d="M249.138 282.086H248.684C248.684 281.738 248.426 281.601 247.896 281.601H241.749V284.115H245.625C246.201 284.115 246.458 284.069 246.458 283.706H246.912V286.371H246.412C246.518 286.023 246.079 285.962 245.428 285.962H241.749V288.93H248.199C248.608 288.93 248.896 288.733 248.896 288.43H249.35V291.156H248.896C248.896 290.853 248.593 290.807 248.199 290.807H238.963V290.353C239.145 290.353 239.341 290.232 239.341 289.975V280.557C239.341 280.299 239.145 280.178 238.963 280.178V279.724H247.896C248.426 279.724 248.684 279.527 248.684 279.27H249.138V282.071V282.086Z" fill="#A7A9AC"/>
<path d="M255.618 281.616H259.6C261.311 281.616 262.068 282.146 262.068 282.979C262.068 284.009 261.281 284.539 259.6 284.539H255.618V281.616ZM252.696 279.754V280.208C252.968 280.208 253.15 280.329 253.15 280.587V290.005C253.15 290.262 252.968 290.383 252.696 290.383V290.837H256.042V290.383C255.845 290.383 255.558 290.262 255.558 290.005V286.401H259.055L261.039 289.369C261.296 289.717 261.417 289.944 261.417 290.156C261.417 290.338 261.236 290.383 261.084 290.383V290.837H264.93V290.383C264.552 290.277 264.218 290.111 263.976 289.762L261.508 286.159C262.886 285.826 264.385 284.872 264.385 283.04C264.385 280.647 262.629 279.769 259.631 279.769H252.681L252.696 279.754Z" fill="#A7A9AC"/>
<path d="M267.853 279.754H271.502V280.208C271.123 280.208 270.926 280.329 270.926 280.587V288.975H277.725C278.134 288.975 278.421 288.778 278.421 288.445H278.876V291.171H278.421C278.421 290.898 278.118 290.837 277.725 290.837H267.853V290.383C268.307 290.383 268.504 290.262 268.504 290.005V280.587C268.504 280.329 268.307 280.208 267.853 280.208V279.754Z" fill="#A7A9AC"/>
<path d="M286.506 281.965L288.55 286.189H284.72L286.506 281.965ZM283.508 290.822V290.368C283.206 290.368 283.024 290.323 283.024 290.065C283.024 289.884 283.13 289.687 283.251 289.414L283.963 288.051H289.353L290.034 289.49C290.14 289.747 290.216 289.899 290.216 290.096C290.216 290.353 289.959 290.444 289.807 290.444V290.822H293.381V290.368C293.153 290.323 292.926 290.186 292.775 289.884L288.702 281.329C288.52 280.95 288.354 280.678 288.354 280.466C288.354 280.238 288.505 280.238 288.611 280.193V279.739H284.811V280.193C284.917 280.238 285.007 280.269 285.007 280.466C285.007 280.723 284.886 280.996 284.674 281.45L280.919 289.641C280.798 289.914 280.541 290.323 280.132 290.368V290.822H283.508Z" fill="#A7A9AC"/>
<path d="M295.622 290.822V290.368C295.879 290.368 296.076 290.247 296.076 289.99V280.572C296.076 280.314 295.879 280.193 295.622 280.193V279.739H299.317V280.193C299.165 280.223 299.135 280.238 299.135 280.314C299.135 280.435 299.332 280.617 299.695 280.996L305.737 287.385V280.556C305.737 280.299 305.54 280.178 305.237 280.178V279.724H308.311V280.178C308.053 280.178 307.856 280.299 307.856 280.556V289.974C307.856 290.232 308.053 290.353 308.311 290.353V290.807H305.04V290.353C305.146 290.353 305.222 290.323 305.222 290.232C305.222 290.111 304.843 289.732 304.434 289.293L298.196 282.646V289.974C298.196 290.232 298.393 290.353 298.726 290.353V290.807H295.622V290.822Z" fill="#A7A9AC"/>
<path d="M314.882 281.616H318.153C320.212 281.616 322.029 281.874 322.029 285.22C322.029 288.566 320.212 288.975 318.153 288.975H314.882V281.616ZM318.986 290.822C322.938 290.822 324.452 288.082 324.452 285.281C324.452 282.479 322.847 279.739 318.895 279.739H311.899V280.193C312.308 280.193 312.475 280.314 312.475 280.572V289.99C312.475 290.247 312.293 290.368 311.899 290.368V290.822H319.001H318.986Z" fill="#A7A9AC"/>
<path d="M24.635 144.51C24.635 144.51 24.5442 144.51 24.5139 144.51C24.4685 144.51 24.4382 144.51 24.3928 144.51C24.3019 144.51 24.0899 144.6 23.7417 144.782C23.3934 144.964 22.9695 145.161 22.4547 145.403C21.9247 145.63 21.3342 145.827 20.668 145.993C20.0017 146.16 19.3052 146.236 18.5784 146.236C17.6245 146.236 16.716 146.115 15.8378 145.872C14.9596 145.63 14.1874 145.252 13.5061 144.752C12.8247 144.252 12.2947 143.616 11.9011 142.859C11.5074 142.102 11.3105 141.209 11.3105 140.209C11.3105 139.21 11.5074 138.332 11.9011 137.56C12.2947 136.803 12.8247 136.152 13.5061 135.637C14.1723 135.122 14.9596 134.743 15.8378 134.471C16.716 134.213 17.6245 134.092 18.5784 134.092C19.3507 134.092 20.0472 134.153 20.6831 134.274C21.3039 134.395 21.8641 134.531 22.3335 134.653C22.8029 134.789 23.1814 134.925 23.4388 135.031C23.7114 135.152 23.878 135.213 23.9385 135.213C24.0142 135.213 24.0748 135.182 24.1354 135.092C24.1959 135.016 24.2262 134.955 24.2565 134.91L24.6047 135.182L22.8332 137.923L22.6061 137.772C22.6061 137.772 22.6061 137.681 22.6061 137.635C22.6061 137.59 22.5909 137.545 22.5758 137.484C22.5455 137.317 22.3941 137.151 22.1215 136.969C21.849 136.803 21.5159 136.636 21.1071 136.5C20.6982 136.363 20.2743 136.258 19.8352 136.152C19.3809 136.061 18.9721 136.015 18.5936 136.015C17.9576 136.015 17.352 136.106 16.7615 136.288C16.1861 136.469 15.6713 136.742 15.2473 137.075C14.8082 137.423 14.4751 137.847 14.2177 138.362C13.9603 138.877 13.8392 139.452 13.8392 140.103C13.8392 140.755 13.9754 141.33 14.2177 141.845C14.4751 142.36 14.8234 142.783 15.2473 143.132C15.6864 143.48 16.1861 143.753 16.7615 143.919C17.3368 144.101 17.9576 144.192 18.5936 144.192C19.0781 144.192 19.5778 144.131 20.1229 144.025C20.6528 143.904 21.1373 143.768 21.5765 143.586C22.0156 143.419 22.3789 143.207 22.6818 142.995C22.9695 142.783 23.1209 142.572 23.1209 142.375C23.1209 142.269 23.0906 142.178 23.03 142.102L23.348 141.92L24.847 144.328L24.6653 144.51H24.635Z" fill="#A7A9AC"/>
<path d="M28.6475 145.737C28.8443 145.706 28.9957 145.6 29.1168 145.449C29.2228 145.282 29.344 145.101 29.45 144.873L33.6593 136.031C33.7653 135.834 33.8561 135.652 33.947 135.486C34.0227 135.319 34.0681 135.183 34.0681 135.062C34.0681 134.91 34.0075 134.804 33.9167 134.744C33.8107 134.683 33.7047 134.638 33.5836 134.608V134.199H37.4144V134.608C37.3084 134.638 37.2024 134.683 37.0964 134.729C36.9904 134.789 36.945 134.895 36.945 135.062C36.945 135.183 36.9753 135.304 37.0207 135.425C37.0661 135.546 37.1569 135.713 37.2629 135.895L41.9871 145.146C42.0628 145.313 42.1688 145.434 42.2899 145.509C42.411 145.585 42.5625 145.661 42.729 145.737V146.145H38.7317V145.737C38.7317 145.737 38.8679 145.706 38.9588 145.676C39.0496 145.631 39.0951 145.555 39.0951 145.464C39.0951 145.313 39.0345 145.116 38.9134 144.873L38.0503 143.193H32.5085L31.6909 144.813C31.5395 145.131 31.4638 145.358 31.4638 145.494C31.4638 145.661 31.6 145.737 31.8877 145.737V146.145H28.6626V145.737H28.6475ZM37.2175 141.512L35.3097 137.288L33.1748 141.512H37.2175Z" fill="#A7A9AC"/>
<path d="M54.6157 134.199C55.3425 134.199 56.0087 134.259 56.5841 134.396C57.1746 134.532 57.6894 134.729 58.1134 135.016C58.5373 135.304 58.8553 135.667 59.0824 136.107C59.3096 136.561 59.4155 137.106 59.4155 137.757C59.4155 138.756 59.1279 139.513 58.5373 140.043C57.9468 140.573 57.1595 140.922 56.1601 141.103L59.1884 145.419C59.2944 145.57 59.4155 145.661 59.567 145.691C59.7184 145.721 59.8395 145.737 59.9606 145.737V146.145H55.7059V145.737C55.8422 145.737 55.9633 145.706 56.0541 145.676C56.145 145.631 56.2056 145.57 56.2056 145.494C56.2056 145.419 56.1753 145.328 56.1147 145.237C56.0541 145.146 55.9633 145.01 55.8422 144.843L53.3438 141.3H50.1036V145.343C50.1036 145.479 50.149 145.585 50.255 145.646C50.3458 145.706 50.5275 145.752 50.7849 145.752V146.16H46.8633V145.752C47.3024 145.752 47.5144 145.615 47.5144 145.343V135.031C47.5144 134.759 47.3024 134.623 46.8633 134.623V134.214H54.6308L54.6157 134.199ZM54.0252 139.513C54.5703 139.513 55.0245 139.468 55.3879 139.392C55.7513 139.301 56.039 139.195 56.251 139.044C56.463 138.893 56.6144 138.711 56.7052 138.514C56.7961 138.302 56.8415 138.09 56.8415 137.848C56.8415 137.606 56.7961 137.378 56.7052 137.182C56.6144 136.985 56.463 136.803 56.251 136.652C56.039 136.5 55.7513 136.379 55.3879 136.303C55.0245 136.228 54.5703 136.182 54.0252 136.182H50.1036V139.544H54.0252V139.513Z" fill="#A7A9AC"/>
<path d="M76.297 136.651C76.297 136.485 76.2364 136.364 76.1001 136.273C75.979 136.197 75.7519 136.152 75.4339 136.152H68.0752V138.968H72.5267C72.8296 138.968 73.0567 138.923 73.2232 138.847C73.3898 138.756 73.4807 138.544 73.4807 138.196H73.8895V141.739H73.4807C73.4807 141.391 73.4049 141.163 73.2232 141.073C73.0567 140.982 72.8296 140.921 72.5267 140.921H68.0752V144.055H75.661C75.8881 144.055 76.0698 143.995 76.2213 143.904C76.3575 143.798 76.4332 143.662 76.4332 143.465H76.8421V146.584H76.4332C76.4332 146.357 76.3575 146.221 76.2213 146.19C76.0698 146.16 75.8881 146.145 75.661 146.145H65.0771V145.736C65.1831 145.736 65.274 145.706 65.3648 145.63C65.4405 145.57 65.486 145.464 65.486 145.327V135.016C65.486 134.88 65.4405 134.774 65.3648 134.713C65.274 134.653 65.1831 134.607 65.0771 134.607V134.198H75.4339C75.7519 134.198 75.979 134.153 76.1001 134.047C76.2213 133.941 76.297 133.82 76.297 133.653H76.7058V136.651H76.297Z" fill="#A7A9AC"/>
<path d="M101.508 136.651C101.508 136.485 101.447 136.364 101.311 136.273C101.19 136.197 100.963 136.152 100.645 136.152H93.2861V138.968H97.7377C98.0406 138.968 98.2677 138.938 98.4494 138.877C98.6159 138.817 98.7068 138.68 98.7068 138.468H99.1156V141.739H98.7068C98.7068 141.391 98.6159 141.163 98.4494 141.073C98.2828 140.982 98.0406 140.921 97.7377 140.921H93.2861V145.327C93.2861 145.464 93.3467 145.57 93.483 145.63C93.6193 145.691 93.7707 145.736 93.9675 145.736V146.145H90.1064V145.736C90.5001 145.736 90.697 145.6 90.697 145.327V135.016C90.697 134.743 90.5001 134.607 90.1064 134.607V134.198H100.645C100.963 134.198 101.19 134.153 101.311 134.047C101.432 133.941 101.508 133.82 101.508 133.653H101.917V136.651H101.508Z" fill="#A7A9AC"/>
<path d="M113.031 134.062C113.864 134.062 114.712 134.183 115.575 134.441C116.438 134.683 117.225 135.061 117.937 135.561C118.649 136.061 119.224 136.697 119.678 137.454C120.132 138.211 120.36 139.119 120.36 140.164C120.36 141.209 120.132 142.117 119.678 142.874C119.224 143.631 118.649 144.267 117.937 144.767C117.225 145.267 116.438 145.63 115.575 145.857C114.712 146.084 113.864 146.205 113.031 146.205C112.198 146.205 111.35 146.099 110.487 145.857C109.624 145.63 108.837 145.267 108.125 144.767C107.414 144.267 106.838 143.631 106.369 142.874C105.915 142.117 105.688 141.209 105.688 140.164C105.688 139.119 105.915 138.211 106.369 137.454C106.823 136.697 107.414 136.061 108.125 135.561C108.837 135.061 109.624 134.683 110.487 134.441C111.35 134.183 112.198 134.062 113.031 134.062ZM113.031 136.152C112.456 136.152 111.88 136.242 111.305 136.424C110.73 136.606 110.215 136.863 109.745 137.211C109.276 137.545 108.913 137.969 108.625 138.468C108.337 138.968 108.201 139.528 108.201 140.164C108.201 140.8 108.337 141.36 108.625 141.86C108.913 142.36 109.291 142.784 109.745 143.117C110.215 143.45 110.73 143.722 111.305 143.904C111.88 144.086 112.456 144.177 113.031 144.177C113.606 144.177 114.182 144.086 114.757 143.904C115.333 143.722 115.847 143.465 116.317 143.117C116.786 142.768 117.15 142.36 117.437 141.86C117.725 141.36 117.861 140.785 117.861 140.164C117.861 139.543 117.725 138.953 117.437 138.468C117.15 137.969 116.771 137.545 116.317 137.211C115.847 136.863 115.333 136.606 114.757 136.424C114.182 136.242 113.606 136.152 113.031 136.152Z" fill="#A7A9AC"/>
<path d="M133.153 134.199C133.88 134.199 134.531 134.259 135.121 134.396C135.712 134.532 136.227 134.729 136.651 135.016C137.074 135.304 137.392 135.667 137.62 136.107C137.847 136.561 137.953 137.106 137.953 137.757C137.953 138.756 137.665 139.513 137.074 140.043C136.484 140.573 135.681 140.922 134.697 141.103L137.726 145.419C137.832 145.57 137.953 145.661 138.104 145.691C138.255 145.721 138.377 145.737 138.498 145.737V146.145H134.243V145.737C134.379 145.737 134.5 145.706 134.591 145.676C134.682 145.631 134.743 145.57 134.743 145.494C134.743 145.419 134.712 145.328 134.652 145.237C134.591 145.146 134.5 145.01 134.379 144.843L131.881 141.3H128.641V145.343C128.641 145.479 128.686 145.585 128.792 145.646C128.883 145.706 129.065 145.752 129.322 145.752V146.16H125.4V145.752C125.839 145.752 126.051 145.615 126.051 145.343V135.031C126.051 134.759 125.839 134.623 125.4 134.623V134.214H133.168L133.153 134.199ZM132.562 139.513C133.107 139.513 133.562 139.468 133.925 139.392C134.288 139.301 134.576 139.195 134.788 139.044C135 138.893 135.151 138.711 135.242 138.514C135.333 138.302 135.379 138.09 135.379 137.848C135.379 137.606 135.333 137.378 135.242 137.182C135.151 136.985 135 136.803 134.788 136.652C134.576 136.5 134.288 136.379 133.925 136.303C133.562 136.228 133.107 136.182 132.562 136.182H128.641V139.544H132.562V139.513Z" fill="#A7A9AC"/>
<path d="M155.261 134.199V134.608C155.124 134.608 154.988 134.623 154.867 134.668C154.746 134.698 154.685 134.804 154.685 134.956C154.685 135.047 154.791 135.259 155.018 135.607C155.23 135.94 155.488 136.334 155.791 136.758C156.078 137.197 156.396 137.636 156.714 138.09C157.032 138.544 157.29 138.938 157.487 139.256L160.136 135.592C160.257 135.41 160.363 135.274 160.439 135.168C160.515 135.062 160.545 134.956 160.545 134.865C160.545 134.759 160.469 134.698 160.333 134.668C160.182 134.638 160.061 134.623 159.939 134.623V134.214H163.907V134.623C163.785 134.623 163.664 134.623 163.558 134.653C163.452 134.683 163.346 134.729 163.225 134.804C163.104 134.895 162.983 135.016 162.862 135.168C162.741 135.319 162.574 135.546 162.392 135.819L158.531 141.3V145.343C158.531 145.615 158.698 145.752 159.061 145.752V146.16H155.473V145.752C155.609 145.752 155.73 145.721 155.821 145.646C155.912 145.585 155.957 145.479 155.957 145.343V141.3L151.566 135.168C151.46 135.016 151.294 134.895 151.082 134.774C150.855 134.668 150.673 134.623 150.521 134.623V134.214H155.246L155.261 134.199Z" fill="#A7A9AC"/>
<path d="M174.701 134.062C175.534 134.062 176.382 134.183 177.245 134.441C178.108 134.683 178.895 135.061 179.607 135.561C180.319 136.061 180.894 136.697 181.363 137.454C181.818 138.211 182.045 139.119 182.045 140.164C182.045 141.209 181.818 142.117 181.363 142.874C180.909 143.631 180.319 144.267 179.607 144.767C178.895 145.267 178.108 145.63 177.245 145.857C176.382 146.084 175.534 146.205 174.701 146.205C173.868 146.205 173.02 146.099 172.157 145.857C171.294 145.63 170.507 145.267 169.795 144.767C169.084 144.267 168.493 143.631 168.039 142.874C167.585 142.117 167.357 141.209 167.357 140.164C167.357 139.119 167.585 138.211 168.039 137.454C168.493 136.697 169.084 136.061 169.795 135.561C170.507 135.061 171.294 134.683 172.157 134.441C173.02 134.183 173.868 134.062 174.701 134.062ZM174.701 136.152C174.126 136.152 173.55 136.242 172.975 136.424C172.4 136.606 171.885 136.863 171.415 137.211C170.946 137.545 170.583 137.969 170.295 138.468C170.007 138.968 169.871 139.528 169.871 140.164C169.871 140.8 170.007 141.36 170.295 141.86C170.583 142.36 170.961 142.784 171.415 143.117C171.87 143.45 172.4 143.722 172.975 143.904C173.55 144.086 174.126 144.177 174.701 144.177C175.276 144.177 175.852 144.086 176.427 143.904C177.003 143.722 177.517 143.465 177.987 143.117C178.456 142.768 178.819 142.36 179.107 141.86C179.395 141.36 179.531 140.785 179.531 140.164C179.531 139.543 179.395 138.953 179.107 138.468C178.819 137.969 178.441 137.545 177.987 137.211C177.532 136.863 177.003 136.606 176.427 136.424C175.852 136.242 175.276 136.152 174.701 136.152Z" fill="#A7A9AC"/>
<path d="M190.465 134.608C190.131 134.608 189.965 134.744 189.965 135.016V141.83C189.965 142.784 190.268 143.435 190.888 143.798C191.509 144.162 192.403 144.328 193.584 144.328C194.765 144.328 195.658 144.147 196.279 143.798C196.885 143.45 197.202 142.784 197.202 141.83V135.016C197.202 134.744 196.975 134.608 196.521 134.608V134.199H200.155V134.608C199.792 134.608 199.61 134.744 199.61 135.016V141.724C199.61 142.617 199.474 143.359 199.216 143.935C198.959 144.51 198.58 144.979 198.066 145.328C197.551 145.676 196.915 145.918 196.143 146.024C195.386 146.145 194.492 146.206 193.493 146.206C192.493 146.206 191.615 146.145 190.843 146.024C190.086 145.903 189.435 145.676 188.92 145.328C188.405 144.979 188.027 144.51 187.769 143.935C187.512 143.359 187.391 142.617 187.391 141.724V135.016C187.391 134.744 187.179 134.608 186.755 134.608V134.199H190.48V134.608H190.465Z" fill="#A7A9AC"/>
<path d="M212.934 134.199C213.66 134.199 214.311 134.259 214.902 134.396C215.492 134.532 215.992 134.729 216.416 135.016C216.84 135.304 217.173 135.667 217.4 136.107C217.627 136.561 217.733 137.106 217.733 137.757C217.733 138.756 217.431 139.513 216.84 140.043C216.25 140.573 215.462 140.922 214.463 141.103L217.491 145.419C217.597 145.57 217.718 145.661 217.87 145.691C218.021 145.721 218.142 145.737 218.263 145.737V146.145H214.009V145.737C214.145 145.737 214.266 145.706 214.357 145.676C214.463 145.631 214.508 145.57 214.508 145.494C214.508 145.419 214.478 145.328 214.417 145.237C214.357 145.146 214.266 145.01 214.145 144.843L211.647 141.3H208.391V145.343C208.391 145.479 208.437 145.585 208.543 145.646C208.649 145.706 208.815 145.752 209.073 145.752V146.16H205.136V145.752C205.575 145.752 205.802 145.615 205.802 145.343V135.031C205.802 134.759 205.575 134.623 205.136 134.623V134.214H212.903L212.934 134.199ZM212.343 139.513C212.888 139.513 213.342 139.468 213.706 139.392C214.069 139.301 214.357 139.195 214.569 139.044C214.781 138.893 214.932 138.711 215.023 138.514C215.114 138.302 215.159 138.09 215.159 137.848C215.159 137.606 215.114 137.378 215.023 137.182C214.932 136.985 214.781 136.803 214.569 136.652C214.357 136.5 214.069 136.379 213.706 136.303C213.342 136.228 212.888 136.182 212.343 136.182H208.421V139.544H212.343V139.513Z" fill="#A7A9AC"/>
<path d="M239.295 134.199C240.128 134.199 240.9 134.32 241.627 134.562C242.339 134.804 242.975 135.168 243.505 135.667C244.035 136.152 244.443 136.773 244.746 137.53C245.049 138.287 245.201 139.165 245.201 140.18C245.201 141.194 245.049 142.072 244.746 142.829C244.443 143.571 244.035 144.192 243.505 144.692C242.975 145.176 242.354 145.555 241.627 145.797C240.915 146.039 240.128 146.16 239.295 146.16H231.755V145.752C232.103 145.752 232.285 145.615 232.285 145.343V135.031C232.285 134.759 232.103 134.623 231.755 134.623V134.214H239.295V134.199ZM238.387 144.192C239.098 144.192 239.719 144.132 240.249 144.01C240.779 143.889 241.218 143.677 241.567 143.359C241.915 143.041 242.172 142.633 242.354 142.118C242.52 141.603 242.611 140.952 242.611 140.164C242.611 139.377 242.52 138.726 242.354 138.211C242.172 137.696 241.915 137.288 241.567 136.97C241.218 136.667 240.779 136.44 240.249 136.319C239.719 136.197 239.098 136.137 238.387 136.137H234.859V144.177H238.387V144.192Z" fill="#A7A9AC"/>
<path d="M257.768 134.199C258.494 134.199 259.145 134.259 259.736 134.396C260.326 134.532 260.841 134.729 261.25 135.016C261.674 135.304 262.007 135.667 262.234 136.107C262.461 136.561 262.567 137.106 262.567 137.757C262.567 138.756 262.28 139.513 261.689 140.043C261.099 140.573 260.311 140.922 259.312 141.103L262.325 145.419C262.431 145.57 262.552 145.661 262.704 145.691C262.84 145.721 262.976 145.737 263.097 145.737V146.145H258.858V145.737C258.994 145.737 259.115 145.706 259.206 145.676C259.312 145.631 259.357 145.57 259.357 145.494C259.357 145.419 259.327 145.328 259.267 145.237C259.206 145.146 259.115 145.01 258.994 144.843L256.496 141.3H253.24V145.343C253.24 145.479 253.286 145.585 253.392 145.646C253.498 145.706 253.664 145.752 253.922 145.752V146.16H250V145.752C250.439 145.752 250.651 145.615 250.651 145.343V135.031C250.651 134.759 250.424 134.623 250 134.623V134.214H257.768V134.199ZM257.177 139.513C257.722 139.513 258.176 139.468 258.54 139.392C258.903 139.301 259.191 139.195 259.403 139.044C259.615 138.893 259.766 138.711 259.857 138.514C259.948 138.302 259.993 138.09 259.993 137.848C259.993 137.606 259.948 137.378 259.857 137.182C259.766 136.985 259.615 136.803 259.403 136.652C259.191 136.5 258.903 136.379 258.54 136.303C258.176 136.228 257.722 136.182 257.177 136.182H253.24V139.544H257.177V139.513Z" fill="#A7A9AC"/>
<path d="M279.45 136.651C279.45 136.485 279.39 136.364 279.253 136.273C279.132 136.197 278.905 136.152 278.587 136.152H271.228V138.968H275.68C275.983 138.968 276.21 138.923 276.377 138.847C276.543 138.756 276.619 138.544 276.619 138.196H277.028V141.739H276.619C276.619 141.391 276.543 141.163 276.377 141.073C276.21 140.982 275.968 140.921 275.68 140.921H271.228V144.055H278.814C279.041 144.055 279.223 143.995 279.375 143.904C279.511 143.798 279.587 143.662 279.587 143.465H279.995V146.584H279.587C279.587 146.357 279.511 146.221 279.375 146.19C279.223 146.16 279.041 146.145 278.814 146.145H268.23V145.736C268.336 145.736 268.427 145.706 268.518 145.63C268.594 145.57 268.639 145.464 268.639 145.327V135.016C268.639 134.88 268.594 134.774 268.518 134.713C268.427 134.653 268.336 134.607 268.23 134.607V134.198H278.587C278.905 134.198 279.132 134.153 279.253 134.047C279.39 133.956 279.45 133.82 279.45 133.653H279.859V136.651H279.45Z" fill="#A7A9AC"/>
<path d="M283.614 145.737C283.811 145.706 283.963 145.6 284.084 145.449C284.205 145.282 284.311 145.101 284.417 144.873L288.626 136.031C288.732 135.834 288.823 135.652 288.914 135.486C288.989 135.319 289.035 135.183 289.035 135.062C289.035 134.91 288.974 134.804 288.868 134.744C288.762 134.683 288.656 134.638 288.535 134.608V134.199H292.381V134.608C292.275 134.638 292.169 134.683 292.063 134.729C291.957 134.789 291.912 134.895 291.912 135.062C291.912 135.183 291.942 135.304 291.987 135.425C292.033 135.546 292.124 135.713 292.23 135.895L296.954 145.146C297.03 145.313 297.136 145.434 297.257 145.509C297.393 145.585 297.529 145.661 297.696 145.737V146.145H293.698V145.737C293.698 145.737 293.835 145.706 293.926 145.676C294.016 145.631 294.062 145.555 294.062 145.464C294.062 145.313 294.001 145.116 293.88 144.873L293.017 143.193H287.475L286.658 144.813C286.506 145.131 286.431 145.358 286.431 145.494C286.431 145.661 286.567 145.737 286.855 145.737V146.145H283.629V145.737H283.614ZM292.169 141.512L290.261 137.288L288.126 141.512H292.169Z" fill="#A7A9AC"/>
<path d="M301.98 145.737C302.102 145.737 302.208 145.706 302.298 145.631C302.389 145.57 302.435 145.464 302.435 145.328V134.971C302.435 134.835 302.389 134.744 302.298 134.683C302.208 134.623 302.102 134.608 301.98 134.608V134.199H306.22V134.608C306.22 134.608 306.069 134.638 305.978 134.668C305.902 134.714 305.857 134.789 305.857 134.88C305.857 134.956 305.887 135.062 305.948 135.168C306.008 135.289 306.069 135.41 306.144 135.546L309.4 141.451L312.67 135.622C312.776 135.425 312.852 135.274 312.913 135.153C312.973 135.031 312.988 134.941 312.988 134.85C312.988 134.683 312.882 134.608 312.685 134.608V134.199H316.895V134.608C316.774 134.608 316.668 134.638 316.577 134.683C316.486 134.744 316.441 134.835 316.441 134.971V145.328C316.441 145.464 316.486 145.57 316.577 145.631C316.668 145.691 316.774 145.737 316.895 145.737V146.145H313.321V145.737C313.73 145.737 313.942 145.6 313.942 145.328V137.787H313.897L309.339 146.145H309.264L304.797 137.757H304.751V145.328C304.751 145.6 304.963 145.737 305.387 145.737V146.145H301.98V145.737Z" fill="#A7A9AC"/>
<path d="M324.45 139.71C324.45 139.831 324.526 139.907 324.677 139.907V140.103H323.042V139.907C323.042 139.907 323.133 139.891 323.178 139.861C323.224 139.831 323.239 139.785 323.239 139.725V135.516H321.498C321.498 135.516 321.377 135.531 321.316 135.561C321.255 135.591 321.225 135.667 321.225 135.758H321.028V134.274H321.225C321.225 134.38 321.255 134.44 321.316 134.471C321.377 134.501 321.437 134.531 321.498 134.531H326.207C326.207 134.531 326.328 134.516 326.388 134.471C326.449 134.44 326.479 134.365 326.479 134.274H326.676V135.758H326.479C326.479 135.652 326.449 135.591 326.388 135.561C326.328 135.531 326.267 135.516 326.207 135.516H324.465V139.725L324.45 139.71Z" fill="#A7A9AC"/>
<path d="M329.175 139.907C329.175 139.907 329.281 139.892 329.326 139.862C329.372 139.831 329.387 139.786 329.387 139.725V134.895C329.387 134.895 329.372 134.789 329.326 134.759C329.281 134.729 329.235 134.729 329.175 134.729V134.532H331.158V134.729C331.158 134.729 331.083 134.729 331.052 134.759C331.007 134.774 330.992 134.819 330.992 134.85C330.992 134.88 330.992 134.925 331.037 134.986C331.068 135.047 331.098 135.107 331.128 135.168L332.642 137.923L334.171 135.198C334.217 135.107 334.262 135.031 334.277 134.986C334.308 134.925 334.323 134.88 334.323 134.85C334.323 134.774 334.277 134.729 334.187 134.729V134.532H336.14V134.729C336.14 134.729 336.034 134.729 335.988 134.759C335.943 134.789 335.928 134.835 335.928 134.895V139.725C335.928 139.725 335.943 139.831 335.988 139.862C336.034 139.892 336.079 139.907 336.14 139.907V140.104H334.474V139.907C334.671 139.907 334.762 139.846 334.762 139.71V136.197H334.747L332.612 140.089H332.582L330.492 136.182H330.477V139.71C330.477 139.831 330.583 139.907 330.78 139.907V140.104H329.19V139.907H329.175Z" fill="#A7A9AC"/>
</svg>
