<svg width="22" height="22" viewBox="0 0 22 22" fill="none" xmlns="http://www.w3.org/2000/svg">
<path fill-rule="evenodd" clip-rule="evenodd" d="M22 3.10646C22 1.39081 20.6092 0 18.8935 0H3.10646C1.39081 0 0 1.39081 0 3.10646V18.8935C0 20.6092 1.39081 22 3.10646 22H18.8935C20.6092 22 22 20.6092 22 18.8935V3.10646ZM18.2259 9.59519C16.8065 9.61106 15.4838 9.18195 14.3226 8.3872V13.9662C14.3226 16.4458 12.6253 18.5758 10.2252 19.1321C6.95082 19.8791 4.17893 17.5108 3.82932 14.6816C3.46374 11.8523 5.26818 9.37269 8.03385 8.81636C8.57425 8.70512 9.3871 8.70512 9.80645 8.8005V11.7887C9.67741 11.757 9.55658 11.7251 9.42945 11.7093C8.34859 11.5185 7.30174 12.0589 6.87258 13.0444C6.44344 14.0299 6.73068 15.1743 7.60488 15.842C8.33599 16.4141 9.14721 16.4935 9.97373 16.1121C10.8003 15.7466 11.2445 15.079 11.3398 14.173C11.3557 14.0459 11.3548 13.9028 11.3548 13.7597V3.03066C11.3548 2.72869 11.3572 2.74186 11.6592 2.74186H14.0275C14.2024 2.74186 14.266 2.76702 14.2819 2.97377C14.409 4.81756 15.8088 6.38781 17.6049 6.62626C17.7957 6.65802 18.0001 6.67062 18.2259 6.68649V9.59519Z" fill="white"/>
</svg>
